<svg xmlns="http://www.w3.org/2000/svg" viewBox="0 0 385.77 44.69"><defs><style>.cls-1{fill:#22398e;}.cls-2{fill:#c13f90;}</style></defs><g id="Layer_2" data-name="Layer 2"><g id="Layer_1-2" data-name="Layer 1"><path class="cls-1" d="M16.27,13.65v3.12H13.9V13.49c0-4-1.57-7.11-5.71-7.11S2.48,9.45,2.48,13.49v19.6c0,4,1.56,7.06,5.71,7.06s5.71-3,5.71-7.06V28.62h2.37v4.31c0,5.44-2.37,9.53-8.14,9.53S0,38.37,0,32.93V13.65C0,8.21,2.37,4.11,8.13,4.11S16.27,8.21,16.27,13.65Z"/><path class="cls-1" d="M20.14,13.65c0-5.5,2.53-9.54,8.24-9.54s8.35,4,8.35,9.54V32.93c0,5.49-2.53,9.53-8.35,9.53s-8.24-4-8.24-9.53Zm2.48,19.44c0,4.09,1.62,7.11,5.76,7.11s5.87-3,5.87-7.11V13.49c0-4.1-1.67-7.11-5.87-7.11s-5.76,3-5.76,7.11Z"/><path class="cls-1" d="M43.09,42.14H40.82V4.44h3.24L55.37,36.27V4.44h2.26v37.7H54.88L43.09,8.53Z"/><path class="cls-1" d="M68.24,42.14V6.7H60.59V4.44H78.42V6.7h-7.7V42.14Z"/><path class="cls-1" d="M89.35,4.44c5.76,0,8.08,3.17,8.08,8.51v3.28c0,4.42-1.72,7-5.44,7.81,3.88.86,5.44,3.61,5.44,7.71v5.87a8.43,8.43,0,0,0,.92,4.52H95.76A8.79,8.79,0,0,1,95,37.62V31.69c0-5-2.74-6.41-7-6.41H84V42.14H81.49V4.44ZM88,23c4.42,0,7-1.24,7-6.3V13.16c0-4-1.56-6.46-5.65-6.46H84V23Z"/><path class="cls-1" d="M102.11,13.65c0-5.5,2.53-9.54,8.24-9.54s8.35,4,8.35,9.54V32.93c0,5.49-2.53,9.53-8.35,9.53s-8.24-4-8.24-9.53Zm2.48,19.44c0,4.09,1.62,7.11,5.76,7.11s5.88-3,5.88-7.11V13.49c0-4.1-1.67-7.11-5.88-7.11s-5.76,3-5.76,7.11Z"/><path class="cls-1" d="M122.79,42.14V4.44h2.48V39.88h11.85v2.26Z"/><path class="cls-1" d="M153.6,21.89v2.26H143.31V39.88H155.7v2.26H140.84V4.44H155.7V6.7H143.31V21.89Z"/><path class="cls-1" d="M176.38,4.44c5.82,0,8.35,3.82,8.35,9.37v19c0,5.55-2.53,9.37-8.35,9.37h-8.29V4.44Zm0,35.44c4.2,0,5.92-2.86,5.92-7V13.7c0-4.15-1.77-7-5.92-7h-5.76V39.88Z"/><path class="cls-1" d="M201.59,21.89v2.26H191.3V39.88h12.39v2.26H188.82V4.44h14.87V6.7H191.3V21.89Z"/><path class="cls-1" d="M216.94,2.55h9.5q4.63,0,7,2.49c1.54,1.66,2.32,4.09,2.32,7.29v20c0,3.2-.78,5.63-2.32,7.29s-3.87,2.49-7,2.49h-9.5Zm9.39,33.93a3,3,0,0,0,2.35-.9,4.34,4.34,0,0,0,.82-2.94V12.05a4.34,4.34,0,0,0-.82-2.94,3,3,0,0,0-2.35-.9h-3.17V36.48Z"/><path class="cls-1" d="M239.9,2.55h17V8.21H246.12V18.67h8.54v5.65h-8.54V36.48h10.75v5.66h-17Z"/><path class="cls-1" d="M261.79,40.13q-2.32-2.57-2.32-7.38V30.49h5.88V33.2q0,3.86,3.23,3.85a3,3,0,0,0,2.4-.93,4.52,4.52,0,0,0,.82-3,8.4,8.4,0,0,0-1.13-4.38,20.77,20.77,0,0,0-4.19-4.55A25.28,25.28,0,0,1,261.11,18a12.49,12.49,0,0,1-1.53-6.19c0-3.13.8-5.56,2.38-7.27S265.84,2,268.86,2s5.23.86,6.76,2.58,2.29,4.17,2.29,7.38v1.64H272v-2a4.63,4.63,0,0,0-.79-3,2.89,2.89,0,0,0-2.32-.93c-2.08,0-3.11,1.26-3.11,3.79a7.45,7.45,0,0,0,1.16,4A22,22,0,0,0,271.18,20a23.36,23.36,0,0,1,5.37,6.16A13.71,13.71,0,0,1,278,32.64q0,4.86-2.4,7.46t-7,2.61Q264.12,42.71,261.79,40.13Z"/><path class="cls-1" d="M281.59,2.55h9.16q4.63,0,6.95,2.49T300,12.33v3.91q0,4.8-2.32,7.29T290.75,26h-2.94V42.14h-6.22Zm9.16,17.82a2.94,2.94,0,0,0,2.29-.85,4.32,4.32,0,0,0,.76-2.89V11.94A4.32,4.32,0,0,0,293,9.05a2.94,2.94,0,0,0-2.29-.84h-2.94V20.37Z"/><path class="cls-1" d="M303.42,2.55h17V8.21H309.64V18.67h8.54v5.65h-8.54V36.48h10.74v5.66h-17Z"/><path class="cls-1" d="M325.3,40.13C323.76,38.42,323,36,323,32.75V30.49h5.89V33.2q0,3.86,3.22,3.85a3,3,0,0,0,2.4-.93,4.52,4.52,0,0,0,.82-3,8.31,8.31,0,0,0-1.13-4.38A20.93,20.93,0,0,0,330,24.16,25.14,25.14,0,0,1,324.62,18a12.59,12.59,0,0,1-1.52-6.19c0-3.13.79-5.56,2.37-7.27S329.36,2,332.37,2s5.23.86,6.76,2.58,2.29,4.17,2.29,7.38v1.64h-5.88v-2a4.57,4.57,0,0,0-.79-3,2.88,2.88,0,0,0-2.32-.93c-2.08,0-3.11,1.26-3.11,3.79a7.45,7.45,0,0,0,1.16,4A22.27,22.27,0,0,0,334.69,20a23.36,23.36,0,0,1,5.37,6.16,13.71,13.71,0,0,1,1.47,6.51q0,4.86-2.4,7.46t-7,2.61Q327.62,42.71,325.3,40.13Z"/><path class="cls-1" d="M349.74,2.55h8.42l6.45,39.59h-6.22l-1.13-7.86v.11h-7.07l-1.13,7.75h-5.77ZM356.52,29,353.75,9.45h-.11L350.92,29Z"/><path class="cls-2" d="M373.94,2.94V0H379V2.94c4.42.91,6.68,4.3,6.68,9.67v1.25h-5.88V12.22c0-2.83-1.14-3.91-3.11-3.91s-3.12,1.08-3.12,3.91c0,8.14,12.17,8.54,12.17,19.85,0,5.38-2.32,8.83-6.74,9.73v2.89h-5.09V41.8c-4.46-.9-6.73-4.35-6.73-9.73V29.36h5.89v3.11c0,2.83,1.24,3.84,3.22,3.84s3.22-1,3.22-3.84c0-8.15-12.16-8.54-12.16-19.86C367.38,7.3,369.59,3.9,373.94,2.94Z"/></g></g></svg>