<?xml version="1.0" encoding="utf-8"?>
<!-- Generator: Adobe Illustrator 26.0.3, SVG Export Plug-In . SVG Version: 6.00 Build 0)  -->
<svg version="1.1" id="Layer_2_00000072966895459164992580000013331579650188307374_"
	 xmlns="http://www.w3.org/2000/svg" xmlns:xlink="http://www.w3.org/1999/xlink" x="0px" y="0px" viewBox="0 0 200 202.3"
	 style="enable-background:new 0 0 200 202.3;" xml:space="preserve">
<style type="text/css">
	.st0{fill:#806B50;}
	.st1{fill-rule:evenodd;clip-rule:evenodd;fill:#806B50;}
</style>
<path class="st0" d="M10.1,180.3v0.1c0,0.2-0.1,0.3-0.2,0.3c-0.1,0-0.2-0.1-0.3-0.2C9.3,180.2,8.8,180,8,180c-0.5,0-1.1,0.1-1.6,0.2
	c-0.6,0.1-1.1,0.3-1.6,0.6c-0.5,0.2-0.9,0.5-1.3,0.8c-0.3,0.2-0.5,0.5-0.5,0.9c0,0.3,0.1,0.6,0.3,0.8s0.4,0.4,0.7,0.5
	c0.3,0.1,0.6,0.2,0.9,0.2s0.6,0.1,0.9,0.1c0.8,0,1.7-0.1,2.5-0.4c0.7-0.2,1.4-0.5,2-0.9c0-0.2-0.2-0.4-0.6-0.6
	c-0.4-0.2-0.9-0.4-1.4-0.6c-0.5-0.2-1-0.4-1.4-0.5c-0.4-0.2-0.6-0.3-0.6-0.4c0-0.1,0.1-0.2,0.3-0.2c0.3,0,0.6,0.1,0.8,0.1
	c0.4,0.1,0.9,0.2,1.3,0.4c0.4,0.1,0.9,0.3,1.3,0.5c0.3,0.1,0.6,0.3,0.8,0.5c0.1,0.2,0.1,0.3,0.1,0.5c0,0.3,0,0.4,0,0.5
	c-0.1,0.3-0.3,0.6-0.6,0.8c-0.4,0.3-0.9,0.5-1.4,0.7c-0.6,0.2-1.2,0.3-1.8,0.4C6.5,185,5.8,185,5.2,185c-0.8,0-1.6-0.2-2.3-0.6
	c-0.5-0.3-0.9-0.9-0.9-1.5s0.2-1.2,0.7-1.6c0.5-0.4,1-0.8,1.6-1c0.6-0.3,1.3-0.5,1.9-0.6s1.2-0.2,1.8-0.2c0.4,0,0.8,0.1,1.1,0.2
	C9.5,179.7,9.8,180,10.1,180.3z"/>
<path class="st0" d="M19.3,181.2c0-0.3-0.1-0.5-0.1-0.7s-0.1-0.3-0.1-0.5c-0.1-0.1-0.1-0.3-0.2-0.5c0-0.1,0.1-0.2,0.2-0.3
	c0,0,0,0,0.1,0c0.2,0,0.4,0.2,0.6,0.6c0.2,0.4,0.3,0.9,0.4,1.4s0.2,1,0.3,1.5c0,0.4,0.1,0.7,0.3,1.1c0.1-0.2,0.2-0.5,0.4-0.8
	s0.4-0.7,0.6-1s0.4-0.6,0.6-0.9c0.2-0.2,0.3-0.4,0.4-0.4s0.2,0.1,0.2,0.3c0,0.4-0.1,0.8-0.3,1.1c-0.2,0.5-0.4,1-0.7,1.4
	c-0.3,0.5-0.5,0.9-0.8,1.3c-0.3,0.4-0.4,0.6-0.5,0.6c-0.2,0-0.4-0.2-0.6-0.5c-0.1-0.4-0.3-0.8-0.3-1.2c-0.1-0.5-0.2-0.9-0.3-1.4
	C19.3,181.9,19.3,181.5,19.3,181.2z"/>
<path class="st0" d="M22.5,182.7c0-0.1-0.1-0.1-0.1-0.2c0-0.1,0.1-0.2,0.2-0.3c0,0,0,0,0.1,0c0.2,0,0.4,0.1,0.5,0.1
	c0.2,0.1,0.5,0.2,0.7,0.2c0.3,0,0.6-0.1,0.9-0.1c0.3-0.1,0.7-0.2,1.1-0.3c0.5-0.9,1-1.7,1.7-2.4c0.5-0.6,1.2-0.9,1.9-1
	c0.2,0,0.5,0.1,0.7,0.2c0.2,0.1,0.4,0.4,0.4,0.7c0,0.7-0.4,1.3-1.2,1.8c-0.9,0.5-1.9,1-2.9,1.3c-0.2,0.3-0.3,0.7-0.3,1
	c0,0.7,0.5,1,1.4,1c0.5,0,1.1-0.1,1.6-0.2l1.2-0.3l2-0.7h0.1c0.2,0,0.3,0.1,0.3,0.3s-0.2,0.3-0.6,0.5c-0.5,0.2-1,0.4-1.5,0.6
	c-0.6,0.2-1.1,0.3-1.7,0.5c-0.4,0.1-0.9,0.2-1.3,0.2c-0.6,0.1-1.3-0.1-1.8-0.4c-0.3-0.3-0.5-0.7-0.5-1.1c0-0.2,0-0.3,0.1-0.5
	c0-0.2,0.1-0.4,0.1-0.6c-0.4,0.1-0.9,0.1-1.4,0.2C23.5,183.2,22.9,183.1,22.5,182.7z M28.5,180.3c-0.5,0.4-1,0.9-1.5,1.5l1-0.5
	c0.3-0.2,0.6-0.4,0.8-0.7c0.1-0.1,0.3-0.4,0.6-0.8l0,0h-0.1c0,0,0,0-0.1,0C29,179.9,28.7,180,28.5,180.3L28.5,180.3z M29.6,179.9
	L29.6,179.9L29.6,179.9z"/>
<path class="st0" d="M33.3,179.6c0-0.2,0.1-0.3,0.2-0.3s0.3,0.1,0.4,0.3c0.2,0.2,0.3,0.5,0.4,0.7c0.1,0.3,0.2,0.5,0.3,0.8
	c0.1,0.2,0.1,0.4,0.2,0.7c0.6-1.7,1.8-3.2,3.4-4.1h0.1h0.1c0.1,0,0.2,0.1,0.2,0.2l0,0c0,0.1,0,0.2-0.1,0.3c-1,0.8-1.7,1.7-2.3,2.8
	c-0.4,0.9-0.6,2-0.6,3c0,0.3,0,0.6,0.1,1c0.1,0.3,0.1,0.7,0.1,1c0,0.4-0.2,0.6-0.5,0.6c-0.1,0-0.2,0-0.3-0.1s-0.2-0.2-0.2-0.3
	c-0.2-1.1-0.4-2.3-0.5-3.5c-0.1-1-0.4-2-1-2.9C33.3,179.8,33.3,179.6,33.3,179.6z"/>
<path class="st0" d="M43,179.9c0.2,0,0.3-0.1,0.5-0.1s0.3,0,0.5-0.1c-0.2-1.5-0.4-3.1-0.6-4.6c-0.2-1.5-0.3-3.1-0.4-4.7
	c-0.1-0.4-0.1-1.1-0.2-2.1c-0.1-1-0.1-2-0.1-3c0-0.5,0-0.9,0.1-1.4s0.1-0.9,0.1-1.3c0.1-0.3,0.2-0.6,0.3-0.9
	c0.1-0.2,0.3-0.3,0.5-0.4c0.3,0,0.6,0.2,0.8,0.5c0.3,0.4,0.5,0.8,0.7,1.2c0.2,0.5,0.4,1,0.6,1.4s0.3,0.9,0.4,1.1
	c0.8,1.7,1.5,3.3,2.1,5c0.6,1.6,0.9,3.3,0.9,5.1c0,2.6-1,5-2.7,6.9l-1,1c0.3,1.8,0.8,3.6,1.6,5.3c0.9,1.7,2.1,3.1,3.7,4.2
	c0.1,0.1,0.1,0.1,0.1,0.2c0,0.2-0.1,0.3-0.3,0.3h-0.2c-0.8-0.6-1.6-1.3-2.2-2c-0.6-0.7-1.1-1.4-1.5-2.2s-0.7-1.6-1-2.5
	S45.2,185,45,184c-0.4,0.3-0.8,0.6-1.2,0.8c-0.5,0.2-0.9,0.3-1.4,0.3c-0.6,0-1.2-0.2-1.6-0.5c-0.5-0.3-0.7-0.8-0.7-1.4
	c0-0.4,0.1-0.8,0.3-1.2s0.5-0.7,0.8-1s0.7-0.5,1.1-0.8C42.2,180.2,42.6,180,43,179.9z M44.3,181.7c-0.1-0.2-0.1-0.4-0.1-0.7
	c0-0.2,0-0.4-0.1-0.7c-0.4,0-0.8,0.1-1.2,0.3c-0.4,0.1-0.8,0.3-1.1,0.6c-0.3,0.2-0.6,0.5-0.9,0.9c-0.2,0.3-0.3,0.7-0.4,1.1
	c0,0.4,0.2,0.8,0.5,1.1s0.7,0.4,1.1,0.4c0.5,0,0.9-0.1,1.3-0.4c0.4-0.2,0.8-0.5,1.2-0.8L44.3,181.7z M45.9,181
	c0,0.2-0.1,0.3-0.3,0.3c-0.1,0-0.2-0.1-0.4-0.4c-0.1-0.2-0.2-0.4-0.5-0.5l0.3,2.5l0.6-0.6c0.8-0.9,1.4-1.9,1.8-3
	c0.4-1,0.5-2.1,0.5-3.2c0-1.7-0.3-3.4-0.9-5c-0.6-1.7-1.3-3.3-2-4.9c-0.2-0.5-0.4-0.9-0.6-1.4c-0.2-0.5-0.4-1.1-0.7-1.5
	c-0.1,0.7-0.2,1.4-0.2,2.1c0,0.7-0.1,1.3-0.1,2c0,1.8,0.1,3.6,0.3,5.4c0.2,1.8,0.4,3.6,0.6,5.4l0.2,1.9c0.5,0.1,0.9,0.4,1.1,1.1
	L45.9,181z"/>
<path class="st0" d="M55.8,180.5c0,0.2-0.1,0.3-0.2,0.3c-0.2,0-0.3-0.1-0.6-0.4c-0.2-0.3-0.5-0.4-0.9-0.4s-0.8,0.1-1.2,0.3
	s-0.8,0.4-1.2,0.7c-0.3,0.2-0.7,0.5-0.9,0.9c-0.2,0.3-0.3,0.6-0.4,0.9c0,0.2,0,0.3,0.1,0.4c0.1,0,0.2,0.1,0.4,0.1
	c0.3,0,0.7-0.1,1-0.2c0.3-0.1,0.6-0.2,0.9-0.3c0.6-0.2,1.1-0.3,1.7-0.3c0.3,0,0.6,0.1,0.9,0.3c0.2,0.2,0.3,0.5,0.3,0.7
	c0,0.3,0.1,0.6,0.1,1s0.1,0.7,0.3,1.1c0,0,0.1,0.1,0.1,0.2c0,0.2-0.1,0.3-0.2,0.3c-0.1,0-0.3-0.1-0.4-0.4c-0.1-0.3-0.2-0.6-0.2-1
	c0-0.3-0.1-0.6-0.2-1c-0.1-0.3-0.3-0.4-0.5-0.4c-0.3,0-0.6,0.1-0.8,0.1c-0.3,0.1-0.6,0.2-1,0.3c-0.3,0.1-0.7,0.2-1,0.3
	s-0.6,0.1-1,0.2c-0.3,0-0.6-0.1-0.9-0.3c-0.3-0.2-0.5-0.6-0.4-1c0-0.5,0.2-0.9,0.4-1.3c0.3-0.4,0.7-0.8,1.1-1.1
	c0.4-0.3,0.9-0.6,1.5-0.8c0.5-0.2,1-0.3,1.5-0.3c0.4,0,0.7,0.1,1,0.3C55.4,179.8,55.7,180.1,55.8,180.5L55.8,180.5z"/>
<path class="st0" d="M60.4,179.9c0.2,0,0.3-0.1,0.5-0.1c0.1,0,0.3,0,0.5-0.1c-0.2-1.5-0.4-3.1-0.6-4.6c-0.2-1.5-0.3-3.1-0.4-4.7
	c-0.1-0.4-0.1-1.1-0.2-2.1s-0.1-2-0.1-3c0-0.5,0-0.9,0.1-1.4c0-0.4,0.1-0.8,0.2-1.3c0-0.3,0.1-0.6,0.3-0.9c0.1-0.2,0.3-0.3,0.5-0.4
	c0.3,0,0.6,0.2,0.8,0.5c0.3,0.4,0.5,0.8,0.7,1.2c0.2,0.5,0.4,1,0.6,1.4s0.3,0.9,0.4,1.1c0.8,1.7,1.5,3.3,2.1,5
	c0.6,1.6,0.9,3.3,0.9,5.1c0,2.6-1,5-2.7,6.9l-1,1c0.3,1.8,0.8,3.6,1.6,5.3c0.9,1.7,2.1,3.1,3.7,4.2c0.1,0,0.1,0.1,0.1,0.2
	c0,0.2-0.1,0.3-0.3,0.3h-0.2c-0.8-0.6-1.6-1.3-2.2-2s-1.1-1.4-1.5-2.2s-0.7-1.6-1-2.5s-0.5-1.8-0.7-2.8c-0.4,0.3-0.8,0.6-1.2,0.8
	c-0.5,0.2-0.9,0.3-1.4,0.3c-0.6,0-1.2-0.2-1.6-0.5c-0.5-0.3-0.7-0.8-0.7-1.4c0-0.4,0.1-0.8,0.3-1.2s0.5-0.7,0.8-1s0.7-0.5,1.1-0.8
	C59.7,180.2,60,180,60.4,179.9z M61.7,181.7c-0.1-0.2-0.1-0.4-0.1-0.7c0-0.2,0-0.4-0.1-0.7c-0.4,0-0.8,0.1-1.2,0.3
	c-0.4,0.1-0.8,0.3-1.1,0.6c-0.3,0.2-0.6,0.5-0.9,0.9c-0.2,0.3-0.3,0.7-0.4,1.1c0,0.4,0.2,0.8,0.5,1.1s0.7,0.4,1.1,0.4
	c0.5,0,0.9-0.1,1.3-0.4c0.4-0.2,0.8-0.5,1.2-0.8L61.7,181.7z M63.4,181c0,0.2-0.1,0.3-0.3,0.3c-0.1,0-0.2-0.1-0.4-0.4
	c-0.1-0.2-0.2-0.4-0.5-0.5l0.3,2.5l0.6-0.6c0.8-0.9,1.4-1.9,1.8-3c0.4-1,0.5-2.1,0.5-3.2c0-1.7-0.3-3.4-0.9-5
	c-0.6-1.7-1.3-3.3-2-4.9c-0.2-0.5-0.4-0.9-0.6-1.4c-0.2-0.5-0.4-1.1-0.7-1.5c-0.1,0.7-0.2,1.4-0.2,2.1c0,0.7-0.1,1.3-0.1,2
	c0,1.8,0.1,3.6,0.3,5.4c0.2,1.8,0.4,3.6,0.6,5.4l0.2,1.9c0.5,0.1,0.9,0.4,1.1,1.1L63.4,181z"/>
<path class="st0" d="M65.5,182.7c0-0.1-0.1-0.1-0.1-0.2c0-0.1,0.1-0.2,0.2-0.3c0,0,0,0,0.1,0c0.2,0,0.3,0.1,0.5,0.1
	c0.2,0.1,0.5,0.2,0.7,0.2c0.3,0,0.6-0.1,0.9-0.1c0.3-0.1,0.7-0.2,1.1-0.3c0.5-0.9,1-1.7,1.7-2.4c0.5-0.6,1.2-0.9,1.9-1
	c0.2,0,0.5,0.1,0.7,0.2c0.2,0.1,0.4,0.4,0.4,0.7c0,0.7-0.4,1.3-1.2,1.8c-0.9,0.5-1.9,1-2.9,1.3c-0.2,0.3-0.3,0.7-0.3,1
	c0,0.7,0.5,1,1.4,1c0.5,0,1.1-0.1,1.6-0.2l1.2-0.3l2-0.7h0.1c0.2,0,0.3,0.1,0.3,0.3s-0.2,0.3-0.6,0.5c-0.5,0.2-1,0.4-1.5,0.6
	c-0.6,0.2-1.1,0.3-1.7,0.5c-0.4,0.1-0.9,0.2-1.3,0.2c-0.6,0.1-1.3-0.1-1.8-0.4c-0.3-0.3-0.5-0.7-0.5-1.1c0-0.2,0-0.3,0.1-0.5
	c0-0.2,0.1-0.4,0.1-0.6c-0.4,0.1-0.9,0.1-1.4,0.2C66.6,183.2,66,183.1,65.5,182.7z M71.6,180.3c-0.5,0.4-1,0.9-1.5,1.5l1-0.5
	c0.3-0.2,0.6-0.4,0.8-0.7c0.1-0.1,0.3-0.4,0.6-0.8h-0.1l0,0c0,0,0,0-0.1,0C72.1,179.9,71.8,180,71.6,180.3L71.6,180.3z M72.7,179.9
	L72.7,179.9L72.7,179.9z"/>
<path class="st0" d="M77.9,178.2c-0.1,0.1-0.2,0.1-0.2,0.1c-0.1,0-0.3-0.1-0.3-0.2c0,0,0,0,0-0.1v-0.1c-0.2-0.1-0.4-0.2-0.4-0.4
	c0-0.1,0.1-0.3,0.1-0.4c0.1-0.1,0.2-0.2,0.4-0.2c0.1,0,0.3,0.1,0.4,0.2c0.2,0.1,0.3,0.2,0.3,0.3s-0.1,0.2-0.3,0.4c0,0,0.1,0,0.1,0.1
	S78,178,77.9,178.2L77.9,178.2z M77.2,180.3c-0.1-0.1-0.1-0.1-0.1-0.2c0-0.2,0.1-0.3,0.3-0.3c0.2,0,0.3,0.1,0.4,0.3s0.2,0.4,0.3,0.6
	c0.1,0.2,0.1,0.5,0.1,0.7s0,0.5,0.1,0.7c0,0.5,0,1-0.1,1.5s-0.1,1-0.3,1.5c-0.1,0.4-0.2,0.8-0.3,1.1c-0.1,0.3-0.2,0.5-0.3,0.5
	s-0.3-0.2-0.3-0.5s0-0.6,0-0.8c0-0.6,0-1.3,0.1-1.9c0.1-0.6,0.1-1.3,0.2-1.9v0.3c0-0.3,0.1-0.5,0.1-0.8c0-0.2,0-0.3-0.1-0.5
	C77.4,180.5,77.3,180.4,77.2,180.3L77.2,180.3z"/>
<path class="st0" d="M79.6,179.6c0-0.2,0.1-0.3,0.2-0.3s0.3,0.1,0.4,0.3c0.2,0.2,0.3,0.5,0.4,0.7c0.1,0.3,0.2,0.5,0.3,0.8
	c0.1,0.2,0.1,0.4,0.2,0.7c0.5-1.6,1.6-2.9,3.4-4.1h0.1h0.1c0.1,0,0.2,0.1,0.2,0.2l0,0c0,0.1,0,0.2-0.1,0.3c-1,0.8-1.7,1.7-2.2,2.8
	c-0.4,0.9-0.6,2-0.6,3c0,0.3,0,0.6,0.1,1c0.1,0.3,0.1,0.7,0.1,1c0,0.4-0.2,0.6-0.5,0.6c-0.1,0-0.2,0-0.3-0.1
	c-0.1-0.1-0.2-0.2-0.2-0.3c-0.2-1.1-0.4-2.3-0.5-3.5c-0.1-1-0.4-2-1-2.9L79.6,179.6z"/>
<path class="st0" d="M93.6,180.3c0,0,0,0.1,0.1,0.1c0,0.2-0.1,0.3-0.2,0.3s-0.2-0.1-0.3-0.2c-0.3-0.4-0.8-0.6-1.6-0.6
	c-0.5,0-1.1,0.1-1.6,0.2c-0.6,0.1-1.1,0.3-1.6,0.6c-0.5,0.2-0.9,0.5-1.3,0.8c-0.3,0.2-0.5,0.5-0.5,0.9c0,0.3,0.1,0.6,0.3,0.8
	c0.2,0.2,0.4,0.4,0.7,0.5c0.3,0.1,0.6,0.2,0.9,0.2s0.6,0.1,0.9,0.1c0.8,0,1.7-0.1,2.5-0.4c0.7-0.2,1.4-0.5,2-0.9
	c0-0.2-0.2-0.4-0.6-0.6c-0.4-0.2-0.9-0.4-1.4-0.6c-0.5-0.2-1-0.4-1.4-0.5c-0.4-0.2-0.6-0.3-0.6-0.4c0-0.1,0.1-0.2,0.3-0.2
	c0.3,0,0.5,0.1,0.8,0.2c0.4,0.1,0.9,0.2,1.3,0.4c0.4,0.1,0.9,0.3,1.3,0.5c0.3,0.1,0.6,0.3,0.8,0.5c0.1,0.2,0.1,0.3,0.1,0.5
	c0,0.3,0,0.4,0,0.5c-0.1,0.3-0.4,0.6-0.7,0.8c-0.4,0.3-0.9,0.5-1.4,0.7c-0.6,0.2-1.2,0.3-1.8,0.4c-0.6,0.1-1.3,0.1-1.9,0.1
	c-0.8,0-1.6-0.2-2.3-0.6c-0.5-0.3-0.9-0.9-0.9-1.5s0.2-1.2,0.7-1.6c0.5-0.4,1-0.8,1.6-1c0.6-0.3,1.3-0.5,1.9-0.6s1.2-0.2,1.8-0.2
	c0.4,0,0.8,0.1,1.1,0.2C93.1,179.7,93.4,180,93.6,180.3z"/>
<path class="st0" d="M106.5,179.1L106.5,179.1c0,0.1,0,0.1,0,0.1c0,0.1-0.1,0.2-0.3,0.2c-0.2,0-0.2,0-0.2-0.1c-0.2,0-0.4,0-0.6,0.1
	c-0.3,0.1-0.5,0.1-0.8,0.3c-0.2,0.1-0.5,0.2-0.7,0.4c-0.2,0.1-0.3,0.3-0.3,0.5c0,0.3,0.2,0.6,0.5,0.7c0.3,0.2,0.6,0.3,1,0.5
	s0.7,0.4,1,0.6c0.3,0.3,0.5,0.8,0.5,1.2s-0.1,0.7-0.4,1s-0.6,0.5-1,0.7s-0.9,0.4-1.3,0.5c-0.5,0.1-1,0.2-1.4,0.2
	c-0.1,0-0.2-0.2-0.2-0.3s0.1-0.2,0.2-0.2l0,0c0.4,0,0.9-0.1,1.3-0.3c0.4-0.1,0.7-0.3,1.1-0.5c0.3-0.2,0.5-0.3,0.7-0.6
	c0.1-0.1,0.2-0.3,0.3-0.5c0-0.3-0.2-0.5-0.5-0.7s-0.6-0.4-1-0.6c-0.4-0.2-0.7-0.4-1-0.7c-0.3-0.2-0.4-0.5-0.5-0.8
	c0-0.3,0.1-0.6,0.3-0.8c0.2-0.3,0.4-0.5,0.7-0.7c0.3-0.2,0.6-0.4,0.9-0.5s0.6-0.2,0.9-0.2C106,178.7,106.3,178.8,106.5,179.1z"/>
<path class="st0" d="M114,180.5c0,0.2-0.1,0.3-0.2,0.3s-0.4-0.1-0.6-0.4c-0.2-0.3-0.5-0.4-0.9-0.4s-0.8,0.1-1.2,0.3
	c-0.4,0.2-0.8,0.4-1.2,0.7c-0.3,0.2-0.7,0.5-0.9,0.9c-0.2,0.3-0.3,0.6-0.4,0.9c0,0.2,0.1,0.3,0.2,0.4c0.1,0,0.2,0.1,0.4,0.1
	c0.3,0,0.7-0.1,1-0.2c0.3-0.1,0.6-0.2,0.9-0.3c0.6-0.2,1.1-0.3,1.7-0.3c0.3,0,0.6,0.1,0.9,0.3c0.2,0.2,0.3,0.5,0.3,0.7
	c0,0.3,0.1,0.6,0.1,1s0.1,0.7,0.3,1.1c0,0,0.1,0.1,0.1,0.2c0,0.2-0.1,0.3-0.2,0.3s-0.3-0.1-0.4-0.4c-0.1-0.3-0.2-0.6-0.2-1
	c0-0.3-0.1-0.6-0.2-1c0-0.2-0.3-0.4-0.5-0.4c-0.3,0-0.5,0.1-0.8,0.1c-0.3,0.1-0.6,0.2-1,0.3l-1,0.3c-0.3,0.1-0.7,0.1-1,0.2
	c-0.3,0-0.6-0.1-0.9-0.3s-0.5-0.6-0.4-1c0-0.5,0.2-0.9,0.4-1.3c0.3-0.4,0.7-0.8,1.1-1.1s0.9-0.6,1.5-0.8c0.5-0.2,1-0.3,1.5-0.3
	c0.4,0,0.7,0.1,1,0.3C113.6,179.8,113.9,180.1,114,180.5L114,180.5z"/>
<path class="st0" d="M116.4,165c0.1-0.5,0.2-1.2,0.3-2c0.1-0.9,0.3-1.7,0.6-2.5c0.2-0.7,0.5-1.5,0.8-2.1c0.2-0.5,0.7-0.9,1.2-0.9
	c0.6,0,1.1,0.4,1.6,1.1c0.6,0.9,1,1.8,1.4,2.8c0.4,1.1,0.7,2.3,1,3.4c0.2,1,0.4,2.1,0.4,3.1c0,2.3-0.6,4.6-1.7,6.5
	c-1.3,2.1-3.1,3.8-5.3,4.9c0,0.2,0,0.4,0.1,0.6c0,0.1,0.1,0.3,0.1,0.3c0,0.1,0,0.2,0.1,0.4c0,0.2,0.1,0.3,0.1,0.5v0.5
	c0.5-0.4,1.1-0.6,1.7-0.8c0.7-0.2,1.5-0.3,2.3-0.3c0.3,0,0.7,0,1,0.1s0.7,0.1,1,0.3c0.3,0.1,0.5,0.2,0.8,0.4
	c0.2,0.1,0.3,0.3,0.3,0.5l-0.1,0.2c-0.3,0.4-0.7,0.8-1.2,1.1c-0.5,0.4-1.1,0.8-1.7,1.1s-1.2,0.6-1.8,0.8c-0.5,0.2-1.1,0.3-1.6,0.3
	c-0.3,0-0.5-0.1-0.5-0.3c0-0.1,0.1-0.2,0.2-0.3c0,0,0,0,0.1,0h0.1c0.5,0,0.9-0.1,1.4-0.3c0.6-0.2,1.2-0.5,1.7-0.8
	c0.6-0.3,1.1-0.6,1.6-1c0.4-0.2,0.7-0.5,1-0.9c-0.3-0.4-0.9-0.6-2-0.6c-0.9,0-1.7,0.1-2.5,0.3c-0.6,0.1-1.2,0.3-1.7,0.7
	c-0.1,0.3-0.2,0.6-0.2,0.9c0,0.1,0,0.2,0,0.4s0,0.4,0,0.6c0,0.5,0,1-0.1,1.5c-0.1,0.6-0.3,0.8-0.6,0.8c-0.2,0-0.4-0.1-0.4-0.3
	c-0.1-0.2-0.2-0.4-0.2-0.6c0-0.2,0-0.5,0-0.7c0-0.3,0-0.4,0-0.6c0-0.6,0-1.3,0.1-1.9c0.1-0.7,0.1-1.4,0.1-2.1v-0.5
	c-0.2,0.1-0.4,0.2-0.6,0.2c-0.1,0-0.1-0.1-0.2-0.1c-0.1-0.1-0.1-0.2-0.1-0.3c0-0.2,0.2-0.3,0.4-0.4c0.1,0,0.2,0.1,0.3,0.1
	c0.1,0,0.2,0,0.3-0.1c0-0.4,0-0.8,0-1.2s0-0.8,0-1.2c0-1.9,0.1-3.8,0.2-5.8C116,168.9,116.1,167,116.4,165z M117.5,177.8
	c1.8-1.2,3.2-2.8,4.1-4.8c0.9-1.9,1.4-3.9,1.4-6c0-1.7-0.3-3.4-0.9-5s-1.5-3-2.7-4.2c-0.9,0.9-1.5,2.1-1.7,3.3s-0.4,2.5-0.6,3.8
	c-0.2,1.8-0.3,3.6-0.4,5.3c-0.1,1.8-0.1,3.5-0.1,5.3v2.7L117.5,177.8z"/>
<path class="st0" d="M132.7,180.3v0.1c0,0.2-0.1,0.3-0.2,0.3c-0.1,0-0.2-0.1-0.3-0.2c-0.3-0.4-0.8-0.6-1.6-0.6
	c-0.5,0-1.1,0.1-1.6,0.2c-0.6,0.1-1.1,0.3-1.6,0.6c-0.5,0.2-0.9,0.5-1.3,0.8c-0.3,0.2-0.5,0.5-0.5,0.9c0,0.3,0.1,0.6,0.3,0.8
	c0.2,0.2,0.4,0.4,0.7,0.5c0.3,0.1,0.6,0.2,0.9,0.2s0.6,0.1,0.9,0.1c0.8,0,1.7-0.1,2.5-0.4c0.7-0.2,1.4-0.5,2-0.9
	c0-0.2-0.2-0.4-0.6-0.6c-0.4-0.2-0.9-0.4-1.4-0.6c-0.5-0.2-1-0.4-1.4-0.5c-0.4-0.2-0.6-0.3-0.6-0.4c0-0.1,0.1-0.2,0.3-0.2
	c0.3,0,0.6,0.1,0.8,0.1c0.4,0.1,0.9,0.2,1.3,0.4c0.4,0.1,0.9,0.3,1.3,0.5c0.3,0.1,0.6,0.3,0.8,0.5c0.1,0.2,0.1,0.3,0.1,0.5
	c0,0.3,0,0.4,0,0.5c-0.1,0.3-0.4,0.6-0.7,0.8c-0.4,0.3-0.9,0.5-1.4,0.7c-0.6,0.2-1.2,0.3-1.8,0.4c-0.6,0.1-1.3,0.1-1.9,0.1
	c-0.8,0-1.6-0.2-2.3-0.6c-0.5-0.3-0.9-0.9-0.9-1.5s0.2-1.2,0.7-1.6c0.5-0.4,1-0.8,1.6-1c0.6-0.3,1.3-0.5,1.9-0.6s1.2-0.2,1.8-0.2
	c0.4,0,0.8,0.1,1.1,0.2C132.2,179.7,132.5,180,132.7,180.3z"/>
<path class="st0" d="M135,179.6c0-0.2,0.1-0.3,0.2-0.3s0.3,0.1,0.4,0.3c0.2,0.2,0.3,0.5,0.4,0.7c0.1,0.3,0.2,0.5,0.3,0.8
	s0.1,0.5,0.2,0.7c0.6-1.7,1.8-3.2,3.4-4.1h0.1h0.1c0.1,0,0.2,0.1,0.2,0.2c0,0.1,0,0.2-0.1,0.3c-1,0.8-1.7,1.7-2.2,2.8
	c-0.4,0.9-0.6,2-0.6,3c0,0.3,0,0.6,0.1,1c0.1,0.3,0.1,0.7,0.1,1c0,0.4-0.2,0.6-0.5,0.6c-0.1,0-0.2,0-0.3-0.1s-0.2-0.2-0.2-0.3
	c-0.2-1.1-0.4-2.3-0.5-3.5c-0.1-1-0.4-2-1-2.9L135,179.6z"/>
<path class="st0" d="M146.8,179.3C146.8,179.2,146.8,179.2,146.8,179.3c0-0.1,0-0.2,0-0.2c0-0.1,0.1-0.2,0.3-0.2c0.1,0,0.1,0,0.2,0
	c0.5,0.5,0.9,1.1,1.2,1.8c0.3,0.6,0.5,1.3,0.7,1.9c0.1-0.3,0.3-0.6,0.5-0.9c0.2-0.4,0.5-0.7,0.8-1s0.6-0.6,0.9-0.8
	c0.3-0.2,0.6-0.3,0.9-0.3c0.3,0,0.7,0.1,0.9,0.4c0.2,0.3,0.3,0.6,0.4,0.9c0.1,0.4,0.1,0.8,0.1,1.1c0,0.4,0,0.7,0.1,1.1l1.6-1.2
	c0.3-0.2,0.6-0.4,0.9-0.4c0.2,0,0.3,0.2,0.5,0.7c0.2,0.7,0.3,1.5,0.2,2.2c0,0.1-0.1,0.2-0.3,0.2s-0.2-0.1-0.3-0.3s-0.1-0.5-0.1-0.7
	c0-0.3,0-0.5-0.1-0.8c0-0.2-0.1-0.4-0.2-0.7c-0.2,0.1-0.4,0.3-0.6,0.6c-0.2,0.2-0.4,0.4-0.6,0.5c-0.3,0.3-0.6,0.5-0.9,0.7
	c-0.2,0.1-0.4,0.2-0.6,0.2c-0.3,0-0.5-0.2-0.5-0.5c-0.1-0.3-0.1-0.7-0.1-1c0-0.4-0.1-0.8-0.2-1.1c0-0.3-0.2-0.6-0.4-0.8
	c-0.5,0-0.9,0.2-1.2,0.6c-0.3,0.4-0.6,0.8-0.8,1.3s-0.4,1-0.6,1.5c-0.1,0.4-0.2,0.9-0.3,1.3v0.2h-0.1c-0.1,0.1-0.2,0.2-0.3,0.2
	c-0.2,0-0.4-0.1-0.4-0.3l0,0v-0.1c0-1.1-0.1-2.1-0.3-3.1C148.1,181,147.6,180,146.8,179.3z"/>
<path class="st0" d="M159.6,178.2c-0.1,0.1-0.2,0.1-0.2,0.1c-0.1,0-0.3-0.1-0.3-0.2c0,0,0,0,0-0.1v-0.1c-0.2-0.1-0.4-0.2-0.4-0.4
	c0-0.1,0.1-0.3,0.2-0.4c0.1-0.1,0.2-0.2,0.4-0.2c0.1,0,0.3,0.1,0.4,0.2c0.2,0.1,0.3,0.2,0.3,0.3s-0.1,0.2-0.3,0.4c0,0,0.1,0,0.1,0.1
	S159.8,178,159.6,178.2L159.6,178.2z M158.9,180.3c-0.1,0-0.1-0.1-0.1-0.2c0-0.2,0.1-0.3,0.3-0.3s0.3,0.1,0.4,0.3
	c0.1,0.2,0.2,0.4,0.3,0.6c0.1,0.2,0.1,0.5,0.1,0.7s0,0.5,0.1,0.7c0,0.5,0,1-0.1,1.5s-0.1,1-0.3,1.5c-0.1,0.4-0.2,0.8-0.3,1.1
	s-0.2,0.5-0.3,0.5s-0.3-0.2-0.3-0.5s0-0.6,0-0.8c0-0.6,0-1.3,0.1-1.9c0.1-0.6,0.1-1.3,0.2-1.9v0.3c0-0.3,0.1-0.5,0.1-0.8
	c0-0.2,0-0.3-0.1-0.5C159.1,180.5,159,180.4,158.9,180.3z"/>
<path class="st0" d="M161.7,179.8c-0.1-0.1-0.1-0.1-0.1-0.1c0-0.2,0.1-0.3,0.3-0.3c0.3,0,0.6,0.2,0.8,0.6c0.2,0.5,0.4,0.9,0.5,1.4
	s0.2,1,0.3,1.5c0,0.4,0.1,0.7,0.2,1.1c0.3-0.3,0.6-0.6,0.8-0.9c0.2-0.4,0.4-0.7,0.7-1.1c0.2-0.3,0.5-0.6,0.7-0.9
	c0.3-0.3,0.6-0.4,1-0.4c0.7-0.1,1.4,0.3,1.8,0.9c0.3,0.6,0.6,1.2,0.9,1.8c0.1,0.3,0.2,0.6,0.4,0.9c0.1,0.2,0.1,0.4,0.3,0.5
	c0,0.1-0.1,0.2-0.2,0.2l0,0h-0.2c-0.3-0.2-0.5-0.6-0.6-0.9c-0.2-0.4-0.3-0.7-0.5-1.1c-0.1-0.3-0.3-0.6-0.6-0.9
	c-0.3-0.3-0.6-0.4-1-0.4c-0.3,0-0.6,0.1-0.8,0.4c-0.3,0.3-0.5,0.6-0.7,0.9c-0.2,0.4-0.5,0.8-0.8,1.1c-0.2,0.4-0.6,0.7-0.9,1h-0.3
	c-0.4,0-0.7-0.2-0.8-0.7s-0.2-1.1-0.3-1.6c-0.1-0.6-0.1-1.2-0.2-1.8C162.2,180.6,162,180.1,161.7,179.8z"/>
<path class="st0" d="M169.6,182.7c0-0.1-0.1-0.1-0.1-0.2c0-0.2,0.1-0.3,0.3-0.3s0.3,0.1,0.5,0.1c0.2,0.1,0.5,0.2,0.7,0.2
	c0.3,0,0.6-0.1,0.9-0.1c0.3-0.1,0.7-0.2,1.1-0.3c0.5-0.9,1-1.7,1.7-2.4c0.5-0.6,1.2-0.9,1.9-1c0.2,0,0.5,0.1,0.7,0.2
	c0.2,0.1,0.4,0.4,0.4,0.7c0,0.7-0.4,1.3-1.2,1.8c-0.9,0.5-1.9,1-2.9,1.3c-0.2,0.3-0.3,0.7-0.3,1c0,0.7,0.5,1,1.4,1
	c0.5,0,1.1-0.1,1.6-0.2l1.2-0.3l2-0.7l0,0c0.1,0,0.2,0.1,0.3,0.2c0,0,0,0,0,0.1s-0.2,0.3-0.6,0.5c-0.5,0.2-1,0.4-1.5,0.6
	c-0.6,0.2-1.1,0.3-1.7,0.5c-0.4,0.1-0.9,0.2-1.3,0.2c-0.6,0.1-1.3-0.1-1.8-0.4c-0.3-0.3-0.5-0.7-0.5-1.1c0-0.2,0-0.3,0.1-0.5
	c0-0.2,0.1-0.4,0.2-0.6c-0.4,0.1-0.9,0.1-1.4,0.2C170.7,183.2,170.1,183.1,169.6,182.7z M175.7,180.3c-0.5,0.4-1,0.9-1.5,1.5l1-0.5
	c0.3-0.2,0.6-0.4,0.8-0.7l0.6-0.8h-0.1h-0.1c0,0,0,0-0.1,0C176.2,179.9,175.9,180,175.7,180.3z M176.7,179.9L176.7,179.9
	L176.7,179.9z"/>
<path class="st0" d="M182,178.2c-0.1,0.1-0.2,0.1-0.2,0.1c-0.1,0-0.3-0.1-0.3-0.2c0,0,0,0,0-0.1v-0.1c-0.2-0.1-0.4-0.2-0.4-0.4
	c0-0.1,0.1-0.3,0.2-0.4c0.1-0.1,0.2-0.2,0.4-0.2c0.1,0,0.2,0.1,0.3,0.2c0.2,0.1,0.3,0.2,0.3,0.3s-0.1,0.2-0.3,0.4c0,0,0.1,0,0.1,0.1
	S182.1,178,182,178.2L182,178.2z M181.3,180.3c-0.1,0-0.1-0.1-0.1-0.2c0-0.2,0.1-0.3,0.3-0.3s0.3,0.1,0.4,0.3
	c0.1,0.2,0.2,0.4,0.3,0.6c0.1,0.2,0.1,0.5,0.1,0.7s0,0.5,0.1,0.7c0,0.5,0,1-0.1,1.5s-0.2,1-0.3,1.5c-0.1,0.4-0.2,0.8-0.3,1.1
	s-0.2,0.5-0.3,0.5s-0.3-0.2-0.3-0.5s0-0.6,0-0.8c0-0.6,0-1.3,0.1-1.9c0.1-0.6,0.1-1.3,0.2-1.9v0.3c0-0.3,0.1-0.5,0.1-0.8
	c0-0.2,0-0.3-0.1-0.5C181.4,180.5,181.4,180.4,181.3,180.3z"/>
<path class="st0" d="M183.7,179.6c0-0.2,0.1-0.3,0.2-0.3s0.3,0.1,0.4,0.3c0.2,0.2,0.3,0.5,0.4,0.7c0.2,0.5,0.4,1,0.5,1.5
	c0.6-1.7,1.8-3.2,3.4-4.1h0.1h0.1c0.1,0,0.2,0,0.2,0.1c0,0,0,0,0,0.1s0,0.2-0.1,0.3c-1,0.8-1.7,1.7-2.3,2.8c-0.4,0.9-0.6,2-0.6,3
	c0,0.3,0,0.6,0.1,1c0.1,0.3,0.1,0.7,0.1,1c0,0.4-0.2,0.6-0.5,0.6c-0.1,0-0.2,0-0.3-0.1s-0.2-0.2-0.2-0.3c-0.2-1.1-0.4-2.3-0.5-3.5
	c-0.1-1-0.4-2-1-2.9L183.7,179.6L183.7,179.6z"/>
<path class="st0" d="M197.7,180.3c0,0,0,0.1,0.1,0.1c0,0.2-0.1,0.3-0.2,0.3c-0.1,0-0.2-0.1-0.3-0.2c-0.3-0.4-0.8-0.6-1.6-0.6
	c-0.5,0-1.1,0.1-1.6,0.2c-0.6,0.1-1.1,0.3-1.6,0.6c-0.5,0.2-0.9,0.5-1.3,0.8c-0.3,0.2-0.5,0.5-0.5,0.9c0,0.3,0.1,0.5,0.3,0.8
	c0.2,0.2,0.4,0.4,0.7,0.5s0.6,0.2,0.9,0.2c0.3,0,0.6,0.1,0.9,0.1c0.8,0,1.7-0.1,2.4-0.4c0.7-0.2,1.4-0.5,2-0.9
	c0-0.2-0.2-0.4-0.6-0.6c-0.4-0.2-0.9-0.4-1.4-0.6c-0.5-0.2-1-0.4-1.4-0.5c-0.4-0.2-0.6-0.3-0.6-0.4c0-0.1,0.1-0.2,0.3-0.2
	c0.3,0,0.6,0.1,0.8,0.1c0.4,0.1,0.9,0.2,1.3,0.4c0.4,0.1,0.9,0.3,1.3,0.5c0.3,0.1,0.6,0.3,0.8,0.5c0.1,0.2,0.1,0.3,0.1,0.5
	c0,0.3,0,0.4,0,0.5c-0.1,0.3-0.4,0.6-0.7,0.8c-0.4,0.3-0.9,0.5-1.4,0.7c-0.6,0.2-1.2,0.3-1.8,0.4c-0.6,0.1-1.3,0.1-1.9,0.1
	c-0.8,0-1.6-0.2-2.3-0.6c-0.5-0.3-0.9-0.9-0.9-1.5s0.2-1.2,0.7-1.6c0.5-0.4,1-0.8,1.6-1c0.6-0.3,1.3-0.5,1.9-0.6
	c0.6-0.1,1.2-0.2,1.8-0.2c0.4,0,0.8,0.1,1.1,0.2C197.2,179.7,197.5,180,197.7,180.3z"/>
<path class="st1" d="M105.2,23.2L105.2,23.2c0.9,0,1.6,0.1,2.4,0.2c0.5,0.1,1,0.1,1.5,0.2l1.2,0.1c0.6,0.1,1.3,0.2,1.9,0.3
	c0.5,0.1,0.9,0.2,1.4,0.2h0.1h0.1l0,0c0-0.2,0.1-0.3,0.2-0.4c0,0,0-0.1,0.1-0.1c0.1-0.1,0.2-0.3,0.3-0.5c0.1-0.2,0.3-0.5,0.5-0.6
	c0.2-0.2,0.4-0.3,0.6-0.5c0.1-0.1,0.3-0.1,0.4-0.2c0.3-0.1,0.5-0.1,0.8-0.2s0.4-0.1,0.7-0.1c0.1,0,0.2,0,0.3,0c0.3,0,0.5,0,0.8,0.1
	c0.1,0,0.2,0.1,0.3,0.1c0.1,0,0.2,0.1,0.2,0.2c0,0,0,0.1,0.1,0.1c0,0.1,0.1,0.1,0.1,0.2s0,0.1,0,0.2c0,0.3-0.1,0.6-0.3,0.9
	c-0.1,0.1-0.1,0.2-0.2,0.3c-0.1,0.1-0.1,0.2-0.2,0.3c-0.1,0.1-0.2,0.3-0.2,0.5s-0.1,0.4-0.2,0.6l-0.2,0.3v0.1c0,0.1-0.1,0.2-0.1,0.2
	c0,0.1-0.1,0.1-0.1,0.2c-0.1,0.1-0.1,0.2-0.2,0.3v0.1c0,0.1,0,0.2,0,0.3c0,0.1,0,0.2,0,0.2c0,0.2,0,0.3-0.1,0.5s-0.1,0.3-0.2,0.5
	c0,0.2-0.1,0.4-0.2,0.6c-0.2,0.3-0.3,0.5-0.3,0.8c-0.1,0.2-0.1,0.4-0.2,0.6s-0.2,0.5-0.3,0.7c-0.1,0.2-0.2,0.4-0.4,0.5
	c-0.2,0.2-0.3,0.4-0.4,0.6c-0.1,0.1-0.1,0.2-0.2,0.3l-0.7,0.7l-0.3,0.3l-0.1,0.1c-0.2,0.2-0.4,0.4-0.7,0.6c-0.2,0.2-0.5,0.4-0.8,0.6
	l-0.2,0.1c-0.2,0.1-0.3,0.2-0.5,0.3c-0.1,0.1-0.2,0.1-0.3,0.2c-0.3,0.2-0.6,0.3-1,0.5c-0.3,0.1-0.6,0.2-0.8,0.4
	c-0.2,0.1-0.3,0.1-0.5,0.2h-0.1l0.1,0.1c0.3,0.3,0.6,0.5,0.9,0.8c0.5,0.5,1.1,0.9,1.6,1.3c0.5,0.5,1,0.8,1.4,1.3
	c0.5,0.5,0.8,0.9,1.2,1.3c0.2,0.2,0.3,0.3,0.5,0.4c0.1,0.1,0.2,0.1,0.3,0.1h0.1c0.1,0,0.1,0.1,0.1,0.2l0,0l0,0
	c0.1,0.1,0.1,0.3,0.2,0.4c0.1,0.2,0.1,0.4,0.1,0.5s-0.1,0.2-0.1,0.2l-0.1,0.1c-0.1,0.1-0.3,0.2-0.4,0.3s-0.3,0.2-0.4,0.3
	c-0.1,0-0.2,0.1-0.3,0.1c-0.2,0-0.3,0-0.5,0s-0.4-0.1-0.5-0.3c0-0.1,0-0.1,0-0.2l0,0c0,0,0,0,0-0.1c-0.1-0.1-0.2-0.2-0.3-0.3
	c-0.1-0.1-0.3-0.3-0.5-0.5l-0.7-0.7l-0.8-0.7l-0.5-0.5l-1-0.8c-0.3-0.2-0.5-0.4-0.8-0.6c-0.4-0.3-0.7-0.6-1.1-1
	c-0.2-0.2-0.4-0.3-0.6-0.5s-0.4-0.4-0.6-0.6c0-0.1-0.1-0.1-0.2,0c-0.1,0-0.2,0-0.3,0.1c-0.2,0.1-0.5,0.1-0.7,0.1H104h-0.1
	c-0.1,0-0.2,0-0.3,0c-0.3,0.1-0.5,0.1-0.8,0.1s-0.6,0-0.9,0c-0.2,0-0.4,0-0.7,0h-0.1c-0.6,0-1.2,0-1.9,0c-0.4,0-0.7,0-1.1,0
	c-0.5,0-1,0-1.4,0c-0.3,0-0.7,0-1,0h-0.3c-0.3,0-0.7,0-1,0c-0.2,0-0.4,0-0.5-0.1c-0.1,0-0.2,0-0.3,0h-1h-0.4c-0.1,0-0.3,0-0.4-0.1
	h-0.2c-0.1,0-0.1,0-0.2,0.1L91,36.9l-0.5,0.4c-0.2,0.2-0.4,0.4-0.6,0.6c-0.2,0.2-0.6,0.5-0.8,0.7l-0.9,0.8l-1,0.9
	c-0.2,0.2-0.4,0.4-0.6,0.5l-0.4,0.4c-0.3,0.2-0.5,0.5-0.7,0.7c-0.1,0.2-0.3,0.3-0.4,0.4c-0.1,0.1-0.2,0.2-0.3,0.3l0,0v0.1l0,0
	c0,0.1-0.1,0.1-0.1,0.2c-0.1,0.1-0.2,0.2-0.3,0.2c-0.2,0-0.5,0-0.7,0c-0.1,0-0.2-0.1-0.3-0.1c-0.2-0.1-0.3-0.2-0.4-0.3
	s-0.2-0.1-0.3-0.2c-0.1-0.1-0.2-0.1-0.2-0.2l0,0c0-0.2,0-0.4,0.1-0.5s0.1-0.2,0.2-0.4l0,0c0,0,0-0.1,0-0.2l0,0h0.1
	c0.2,0,0.3-0.1,0.4-0.2c0.3-0.2,0.6-0.5,0.8-0.8c0.3-0.3,0.6-0.6,0.9-0.9c0.6-0.6,1.3-1.2,2-1.8c0.5-0.4,0.9-0.8,1.4-1.1l0.4-0.3
	l0.1-0.1h-0.1c-0.2,0-0.4-0.1-0.5-0.2c-0.3-0.1-0.5-0.3-0.8-0.4l-0.4-0.2c-0.3-0.1-0.6-0.3-0.8-0.4c-0.1-0.1-0.3-0.2-0.4-0.3
	s-0.2-0.1-0.2-0.2L85.1,34c-0.3-0.2-0.6-0.4-0.8-0.6c-0.2-0.2-0.3-0.3-0.5-0.4c-0.1-0.1-0.2-0.2-0.3-0.3c-0.1-0.1-0.1-0.1-0.2-0.2
	l-0.6-0.6c-0.1-0.1-0.1-0.2-0.2-0.2c-0.1-0.2-0.2-0.4-0.4-0.6c-0.1-0.2-0.3-0.3-0.4-0.5s-0.2-0.5-0.3-0.7c-0.1-0.3-0.2-0.6-0.3-0.9
	c-0.1-0.2-0.2-0.4-0.3-0.6c-0.1-0.2-0.2-0.4-0.2-0.6s-0.1-0.3-0.1-0.5c-0.1-0.2-0.1-0.3-0.1-0.5c0-0.1,0-0.2,0-0.3
	c0-0.1,0-0.1,0-0.2s0-0.2-0.1-0.2c-0.1-0.1-0.1-0.2-0.2-0.3C80,25.7,80,25.6,80,25.5c0,0,0-0.1-0.1-0.1L79.7,25
	c-0.1-0.2-0.2-0.4-0.2-0.6c0-0.1-0.1-0.2-0.2-0.3c-0.1-0.1-0.2-0.3-0.3-0.5c-0.1-0.1-0.1-0.2-0.2-0.3c-0.1-0.1-0.2-0.3-0.2-0.5
	s0-0.3,0-0.5v-0.1c0.1-0.2,0.2-0.3,0.4-0.4c0.2,0,0.3-0.1,0.5-0.1c0.1,0,0.2,0,0.3,0c0.3,0,0.5,0,0.8,0c0.3,0.1,0.7,0.1,1,0.2
	s0.6,0.2,0.9,0.4c0.1,0.1,0.2,0.2,0.4,0.3l0.2,0.2c0.1,0.2,0.3,0.3,0.4,0.5c0.1,0.1,0.2,0.3,0.3,0.4c0.1,0.1,0.1,0.2,0.2,0.3
	c0,0.1,0.1,0.2,0.1,0.3c0,0.1,0,0.1,0.1,0.1c0.3,0,0.6-0.1,0.9-0.1c0.6-0.1,1.2-0.2,1.8-0.3c0.3-0.1,0.6-0.1,0.9-0.1l2-0.2l1.5-0.2
	c0.4,0,0.8-0.1,1.2-0.1h0.2h0.1c0,0,0,0-0.1-0.1l-0.5-0.5c-0.1-0.1-0.2-0.2-0.3-0.3l-0.2-0.1L91,21.9c-0.1-0.1-0.2-0.1-0.2-0.2
	c-0.1-0.1-0.2-0.1-0.3-0.2c-0.2,0-0.4-0.1-0.6-0.2c-0.1-0.1-0.3-0.1-0.4-0.2c-0.2,0-0.4-0.1-0.6-0.2c-0.1,0-0.2-0.1-0.3-0.1
	c-0.1,0-0.2-0.1-0.3-0.1L88,20.5h-0.1l-0.5-0.2l-0.2-0.1c-0.4-0.1-0.7-0.2-1.1-0.4c-0.2-0.1-0.3-0.2-0.5-0.3c-0.1,0-0.1-0.1-0.2-0.1
	l-0.2-0.1l0,0c-0.2-0.1-0.3-0.2-0.5-0.3l-0.3,0c-0.1,0-0.1-0.1-0.2-0.1s-0.2-0.1-0.3-0.2l-0.1-0.1c-0.1-0.1-0.2-0.2-0.2-0.3
	c0-0.1-0.1-0.1-0.1-0.1l-0.1-0.1c0,0-0.1-0.2-0.2-0.3s-0.1-0.2-0.2-0.2c-0.1-0.2-0.2-0.4-0.3-0.6c0-0.1-0.1-0.1-0.1-0.2l0,0
	c-0.1-0.3-0.2-0.5-0.3-0.8c0-0.1,0-0.1,0-0.2s0,0,0-0.1c0-0.2,0-0.4,0-0.7c0-0.1,0-0.1,0-0.2c0-0.1,0-0.3,0.1-0.4
	c0-0.1,0.1-0.1,0.1-0.2l0.1-0.2c0-0.1,0.1-0.1,0.1-0.2l0.1-0.2c0-0.1,0.1-0.1,0.1-0.2c0.1-0.1,0.1-0.2,0.2-0.3s0.1-0.1,0.2-0.2
	c0.1-0.1,0.2-0.2,0.3-0.2c0.1-0.1,0.2-0.1,0.3-0.2c0.1-0.1,0.3-0.2,0.5-0.2h0.1c0.1-0.1,0.3-0.1,0.5-0.1h0.2c0.1,0,0.2,0,0.3,0l0,0
	c0.2,0,0.3,0,0.5,0.1l0.5,0.1c0,0,0,0,0.1,0c0.2,0.1,0.3,0.2,0.5,0.3l0.5,0.3h0.1c0.1,0.1,0.3,0.2,0.4,0.3l0.1,0.1
	c0.1,0.1,0.1,0.1,0.2,0.2c0.2,0.2,0.3,0.3,0.5,0.5c0.1,0.2,0.3,0.3,0.4,0.5c0.1,0.1,0.1,0.2,0.2,0.3l0.1,0.1
	c0.1,0.1,0.1,0.2,0.2,0.3c0,0.1,0.1,0.2,0.1,0.2c0,0.1,0.1,0.3,0.2,0.4c0,0,0,0.1,0.1,0.1l0.1,0.2c0,0,0,0.1,0.1,0.1
	c0.1,0.1,0.1,0.3,0.1,0.4c0.1,0.2,0.2,0.4,0.3,0.6l0.1,0.1v0.1c0.1,0.2,0.2,0.4,0.3,0.6v0.1c0.1,0.2,0.2,0.4,0.3,0.5
	c0.2,0.2,0.3,0.5,0.5,0.7c0,0.1,0.1,0.1,0.1,0.1c0.2,0.2,0.5,0.4,0.7,0.7c0.1,0.1,0.1,0.1,0.1,0.2v0.1c0,0.1,0,0.1,0.1,0.1l0.9,0.8
	c0.1,0.1,0.3,0.2,0.5,0.4c0.2,0.1,0.3,0.3,0.4,0.4c0.2,0.2,0.3,0.3,0.5,0.5c0.1,0.1,0.2,0.1,0.3,0.2h0.1h0.9h0.1c0.3,0,0.5,0,0.8,0
	c0.1,0,0.3,0,0.5,0h0.6h0.5h0.9h0.4h0.1h0.4h0.5h0.2h0.1l0.7-0.6c0.1-0.1,0.1-0.2,0.2-0.2c0.1-0.1,0.3-0.3,0.4-0.4
	c0.3-0.2,0.6-0.5,0.9-0.8l0.4-0.3l0.1-0.1v-0.1c0-0.1,0.1-0.1,0.1-0.2c0.2-0.2,0.4-0.4,0.6-0.6c0.4-0.3,0.7-0.7,0.9-1.1
	c0.2-0.2,0.3-0.5,0.4-0.7l0,0c0.1-0.2,0.2-0.3,0.3-0.5c0.1-0.2,0.2-0.3,0.3-0.5l0.2-0.5c0,0,0-0.1,0.1-0.1l0.1-0.2
	c0,0,0-0.1,0.1-0.1c0.1-0.1,0.1-0.2,0.2-0.3c0-0.1,0.1-0.3,0.2-0.4l0.1-0.1l0.1-0.1c0.1-0.1,0.2-0.3,0.3-0.4l0.1-0.1
	c0.1-0.1,0.1-0.1,0.2-0.2l0.1-0.2l0.4-0.4l0.3-0.3l0.1-0.1c0.2-0.1,0.4-0.3,0.7-0.4c0.2-0.1,0.5-0.3,0.7-0.4c0.1,0,0.2-0.1,0.2-0.1
	h0.2h0.3l0.5-0.1l0,0c0.2,0,0.4,0,0.6,0c0.1,0,0.2,0,0.3,0.1c0,0,0.1,0,0.2,0.1c0.2,0,0.3,0.1,0.4,0.2c0.1,0.1,0.3,0.2,0.4,0.3
	c0.1,0,0.2,0.1,0.2,0.2l0.2,0.2c0.1,0.1,0.2,0.2,0.2,0.3s0.1,0.1,0.1,0.2l0.1,0.2l0.1,0.2c0,0,0,0,0,0.1c0.1,0.2,0.1,0.3,0.2,0.5V15
	c0,0.2,0,0.4,0,0.6v0.1V16c0,0.1,0,0.1,0,0.2s0,0.2-0.1,0.4c0,0,0,0,0,0.1c-0.1,0.2-0.1,0.4-0.3,0.6c-0.1,0.2-0.2,0.4-0.3,0.6
	c-0.1,0.1-0.2,0.3-0.3,0.4c-0.1,0.1-0.2,0.3-0.3,0.5l-0.1,0.1l-0.2,0.2c0,0-0.1,0.1-0.2,0.1c-0.1,0.1-0.2,0.1-0.3,0.2
	c-0.2,0.1-0.4,0.2-0.6,0.3c-0.1,0.1-0.2,0.1-0.4,0.1c0,0-0.1,0-0.1,0.1c-0.3,0.2-0.5,0.4-0.8,0.5c-0.2,0.1-0.5,0.2-0.7,0.3
	c-0.1,0-0.2,0.1-0.3,0.1c-0.1,0-0.2,0.1-0.2,0.1c-0.2,0.1-0.3,0.1-0.5,0.2c-0.1,0.1-0.3,0.1-0.4,0.2c-0.1,0-0.3,0.1-0.4,0.1
	s-0.3,0.1-0.4,0.1s-0.3,0.1-0.4,0.1c-0.2,0.1-0.5,0.2-0.7,0.3c-0.1,0-0.2,0.1-0.2,0.1c-0.2,0.2-0.4,0.3-0.6,0.5l-0.1,0.1
	c-0.1,0.1-0.3,0.2-0.4,0.4s-0.1,0.1-0.2,0.2L105.2,23.2L105.2,23.2 M82.9,24.4C82.9,24.4,82.9,24.3,82.9,24.4l-0.3-0.3
	c-0.1-0.1-0.1-0.1-0.2-0.2c-0.2-0.2-0.4-0.5-0.6-0.7c-0.1-0.1-0.2-0.2-0.4-0.3c-0.1-0.1-0.2-0.1-0.4-0.2c-0.2-0.1-0.5-0.2-0.8-0.2
	h-0.1c-0.2,0-0.4,0-0.6,0.1c-0.1,0-0.1,0-0.1,0.1s0,0.2,0.1,0.3c0,0.2,0.1,0.3,0.1,0.5c0,0.1,0.1,0.1,0.1,0.2s0.1,0.2,0.1,0.3
	c0,0.2,0.1,0.4,0.2,0.6c0,0,0.1,0.1,0.1,0l0.3-0.1c0.1,0,0.3-0.1,0.4-0.1c0.3,0,0.6-0.1,0.8-0.1c0.3,0,0.6,0,0.9-0.1L82.9,24.4z
	 M114.5,24.4L114.5,24.4c0.2,0,0.3,0,0.4,0c0.2,0,0.5,0,0.7,0c0.4,0,0.8,0.1,1.2,0.2c0.1,0,0.1,0,0.2,0h0.1c0.1-0.2,0.2-0.4,0.2-0.6
	c0-0.1,0.1-0.2,0.1-0.3c0-0.1,0.1-0.2,0.1-0.2c0-0.1,0-0.1,0.1-0.2c0.1-0.2,0.1-0.4,0.1-0.6c0-0.1,0-0.1-0.1-0.1
	c-0.2,0-0.3-0.1-0.5-0.1c-0.1,0-0.1,0-0.2,0c-0.3,0-0.5,0-0.8,0.2c-0.1,0-0.2,0.1-0.3,0.1c-0.1,0-0.1,0.1-0.2,0.1
	c-0.1,0.1-0.3,0.2-0.4,0.3c-0.1,0.1-0.2,0.2-0.3,0.3c-0.1,0.2-0.2,0.3-0.4,0.5C114.6,24.2,114.6,24.2,114.5,24.4L114.5,24.4z
	 M84.1,41.1C84,41,84,41,83.9,41.1s-0.1,0.1-0.1,0.1c-0.1,0.1-0.1,0.1-0.2,0.2c-0.1,0.1-0.2,0.1-0.2,0.2c-0.1,0.1-0.1,0.2-0.2,0.3
	V42c0,0.1,0.1,0.2,0.2,0.2h0.1c0.2,0.1,0.5,0,0.7-0.1c0.1-0.1,0.2-0.1,0.2-0.2c0-0.1,0.1-0.2,0.1-0.2c0-0.1,0.1-0.2,0.2-0.3
	c0-0.1,0-0.2-0.1-0.2L84.5,41c-0.1,0-0.2,0-0.2,0L84.1,41.1z M113.5,41.1l-0.2-0.1c-0.1,0-0.1,0-0.2,0l-0.2,0.1
	c-0.1,0-0.1,0.1-0.1,0.2v0.1c0.1,0.2,0.2,0.3,0.3,0.5c0,0.1,0.1,0.1,0.1,0.1c0.1,0.1,0.2,0.2,0.3,0.2c0.1,0,0.3,0,0.4,0
	s0.1-0.1,0.2-0.1s0.1-0.1,0.1-0.2c0-0.1,0-0.1,0-0.2c0-0.1,0-0.1-0.1-0.2l-0.3-0.2c-0.1-0.1-0.2-0.1-0.2-0.2l-0.1-0.1
	C113.6,41,113.6,41,113.5,41.1L113.5,41.1z M82.3,110.6c0,0.1-0.1,0.2-0.1,0.4c0,1.3,0,2.5-0.1,3.8c0,2.2,0,4.4,0,6.6
	c0,5.2,0,10.5,0,15.7c0,0.4,0,0.9,0.1,1.3c0.2,1.6,0.3,3.2,0.2,4.8c0,1.3,0,2.7,0,4c0,0.2,0,0.4,0,0.7c0.3,0,0.5,0.1,0.7,0.1
	c0.9,0.2,1.6,1,1.4,2c0,0.1-0.1,0.3-0.1,0.4c-0.2,0.6-0.7,0.9-1.3,0.9c-1.7,0-3.4,0-5.1,0c-0.5,0-1.1-0.2-1.6-0.4
	c-0.6-0.3-0.8-0.9-0.6-1.5c0.1-0.2,0.3-0.4,0.5-0.5c0.4-0.2,0.9-0.4,1.3-0.5c0.3-0.1,0.7-0.1,1-0.2c0-0.3,0-0.5,0-0.7
	c0-2.5,0-5,0-7.5c0-0.5-0.1-0.9-0.1-1.4c-0.1-0.5-0.1-1.1-0.1-1.6c0-1.8,0.1-3.6,0.1-5.3c0-2.3,0-4.7,0-7c0-1.7,0-3.4,0-5.1
	c0-1.1-0.1-2.3-0.2-3.4c0-0.9,0-1.7,0.3-2.6c0.1-0.5,0.1-0.9,0.1-1.4c0-0.4,0-0.9-0.1-1.3h-0.5c-0.4,0-0.7-0.1-1.1-0.1
	c-0.8-0.3-1.3-1.1-1-2c0.1-0.5,0.5-0.9,1-1c0.3-0.1,0.6-0.2,0.9-0.2c1.7,0,3.4,0,5.1,0.1c0.6,0,1.1,0.3,1.4,0.8
	c0.4,0.7,0.2,1.6-0.5,2.1c-0.2,0.1-0.4,0.2-0.7,0.2C83.1,110.6,82.7,110.6,82.3,110.6z M115.6,110.7c-0.4,0-0.8,0-1.1-0.1
	c-0.8-0.1-1.5-0.7-1.5-1.6c0-0.8,0.6-1.5,1.5-1.6c0.2,0,0.4-0.1,0.6-0.1l4.8,0.1c0.5,0,1,0.2,1.3,0.5c0.4,0.4,0.6,1,0.4,1.6
	s-0.6,1-1.2,1c-0.4,0.1-0.9,0.1-1.3,0.1c0,0.1-0.1,0.3-0.1,0.4c0,1.3,0,2.5,0,3.8c0,2.2,0,4.4,0,6.6c0,5.2,0,10.5,0,15.7
	c0,0.5,0,0.9,0.1,1.4c0.2,1.5,0.2,3.1,0.2,4.6c0,1.4,0,2.7,0,4.1c0,0.2,0,0.4,0.1,0.6c0.3,0,0.5,0.1,0.7,0.1c0.9,0.2,1.6,1,1.4,2
	c0,0.2-0.1,0.3-0.1,0.4c-0.2,0.5-0.7,0.9-1.3,0.9c-1.7,0-3.4,0-5.1,0c-0.5,0-1-0.2-1.4-0.4s-0.7-0.6-0.8-1.1c0-0.5,0.3-0.9,0.7-1.1
	c0.4-0.2,0.7-0.3,1.1-0.4c0.3-0.1,0.7-0.1,1.1-0.2c0-0.2,0.1-0.3,0.1-0.5c0-2.6,0-5.2,0-7.8c0-0.4-0.1-0.8-0.1-1.1
	c-0.1-0.6-0.1-1.1-0.1-1.7c0-1.8,0.1-3.5,0.1-5.3c0-2.2,0-4.3,0-6.5c0-1.9,0.1-3.7,0-5.6c0-1.1-0.1-2.3-0.2-3.4c0-0.9,0-1.8,0.3-2.6
	c0.1-0.5,0.1-0.9,0.1-1.4C115.6,111.7,115.6,111.2,115.6,110.7L115.6,110.7z M43.9,111.3c-0.6-0.1-1.1-0.1-1.6-0.2
	c-2.8-0.1-5.5-0.1-8.3,0.1c-2,0.2-4,0.9-5.6,2.1c-1,0.7-2,1.6-2.9,2.5h-0.1c-1.6,1.3-2.9,2.9-4.1,4.6c-0.5,0.7-0.9,1.4-1.1,2.2
	c-0.2,0.8-0.4,1.6-0.7,2.4c-0.4,1-0.6,2.1-0.6,3.2c0,0.2,0,0.5,0,0.7c-0.2,2.2,0.4,4.3,0.9,6.4c0.2,0.6,0.4,1.1,0.7,1.6
	c0.6,1,1.2,1.9,1.9,2.9c2.2,2.9,5.1,5.2,8.4,6.8c0.7,0.3,1.3,0.6,2,0.8c1,0.4,2,0.5,3,0.6c2.3,0.1,4.6,0.2,7,0.2
	c0.9,0,1.8-0.1,2.7-0.2c0.2,0,0.4-0.1,0.6,0c0.8,0,1.4,0.6,1.5,1.4c0.1,0.8-0.5,1.4-1.2,1.6c-0.7,0.2-1.4,0.3-2.2,0.3
	c-1.9,0-3.9-0.1-5.8-0.1c-1.4,0-2.9,0-4.3-0.2c-0.8,0-1.6-0.1-2.4-0.2c-0.8-0.2-1.7-0.4-2.4-0.8c-1.3-0.7-2.5-1.4-3.8-2.2
	c-0.6-0.3-1.1-0.7-1.7-1.1c-1.8-1.2-3.4-2.6-4.7-4.3c-0.1-0.1-0.1-0.1-0.2-0.2c-1.6-1.6-2.3-3.6-2.8-5.8c-0.3-1.1-0.5-2.3-0.7-3.4
	c-0.1-0.7-0.2-1.5-0.3-2.2c0-1.9,0-3.7,0.1-5.6c0.2-1.9,0.8-3.8,1.9-5.4c1.5-2.7,3.5-5.1,6-6.9c1.5-1.4,3.2-2.5,5.1-3.4
	c0.6-0.3,1.2-0.6,1.9-0.8c2.4-0.6,4.8-1.2,7.3-1.1c1.5,0.1,3.1,0,4.6,0.1c0.6,0,1.2,0.1,1.8,0.3c0.8,0.1,1.6,0.3,2.3,0.5
	c0.2,0,0.4,0.1,0.5,0.1c0.5,0.1,0.9,0.6,0.8,1.1c0,0.1-0.1,0.3-0.1,0.4c-0.1,0.2-0.1,0.3-0.1,0.5c-0.1,1.7-0.1,3.4-0.2,5
	c0,0.9-0.7,1.6-1.5,1.6h-0.1c-0.9,0-1.6-0.8-1.6-1.7c0,0,0,0,0-0.1c0-1.1,0-2.1,0.1-3.2C44,111.9,43.9,111.6,43.9,111.3L43.9,111.3z
	 M92.6,131c0,0.3-0.1,0.4-0.1,0.5c0,4.1-0.1,8.2-0.1,12.2c0,0.7,0.1,1.5,0.2,2.2c0,0.3,0.1,0.6,0.1,0.9c0.1,0.3,0,0.8,0.2,1
	c0.4,0.2,0.8,0.4,1.2,0.5c0.2,0.1,0.4,0.1,0.6,0.1c0.5,0.2,0.9,0.7,0.9,1.3s-0.3,1.1-0.9,1.3c-0.3,0.1-0.7,0.2-1,0.2
	c-1.1,0.1-2.2,0.1-3.3,0.2c-0.8,0-1.6-0.1-2.5-0.1c-0.2,0-0.4,0-0.6,0c-0.8,0.1-1.5-0.5-1.6-1.3s0.4-1.5,1.1-1.6h0.1
	c0.9,0,1.1-0.5,1.2-1.2c0.1-0.5,0.2-1,0.2-1.5c0.3-5.5,0.1-11,0.2-16.5c0.1-4.3,0.1-8.6,0.1-12.9c0-2-0.1-4-0.1-6
	c0-0.6,0.1-1.2,0.3-1.8c0.2-0.7,0.9-1,1.6-0.8c0.3,0.1,0.5,0.2,0.6,0.5c0.3,0.4,0.8,0.6,1.2,0.3c0.7-0.2,1.5-0.5,2.2-0.6
	c1.1-0.2,2.2-0.3,3.3-0.1c0.9,0.1,1.9,0.1,2.9,0.1c2.5-0.1,4.6,0.7,6.7,1.9c1,0.6,1.8,1.5,2.4,2.5c0.9,1.4,1.6,2.9,1.9,4.5
	c0.1,0.5,0.2,1.1,0.2,1.6c0,1,0,2.1,0,3.1c0,0.8-0.2,1.7-0.5,2.4c-0.6,1.3-1.1,2.6-1.8,3.8c-0.7,1.1-1.5,2.1-2.5,2.9
	c-1.1,0.9-2.3,1.6-3.5,2.2c-0.4,0.2-0.8,0.3-1.2,0.4c-1.1,0.2-2.2,0.7-3.4,0.6c-2-0.1-3.9-0.5-5.5-1.8C93.3,131.7,93,131.4,92.6,131
	L92.6,131z M92.4,124.3c0.8-0.5,1.5-1,2.2-1.4c1.2-0.9,2.7-1.2,4.2-1c2,0.2,3.5,1.9,3.4,3.9c0,1.1-1,1.9-2,1.9c-0.1,0-0.1,0-0.2,0
	c-0.6,0-1-0.4-1-1c0-0.1,0-0.2,0-0.3c0-0.2,0.1-0.3,0.1-0.5c0.2-0.4,0-0.9-0.4-1c-0.1,0-0.2-0.1-0.3-0.1c-2.2-0.3-3.5,1.3-3.7,3
	c-0.1,0.5,0.1,1.1,0.6,1.3c0.3,0.2,0.6,0.3,0.8,0.5c0.6,0.4,1.3,0.6,2.1,0.6c2.1-0.2,4.2-0.3,6-1.7c0.2-0.1,0.3-0.2,0.5-0.3
	c0.7-0.4,1.3-0.9,1.9-1.5c1.1-1.2,1.8-2.6,2.2-4.1c0.1-0.7,0.1-1.4,0-2c-0.1-0.9-0.3-1.9-0.4-2.8c-0.1-0.5-0.2-1.1-0.5-1.6
	c-0.4-0.8-0.8-1.6-1.2-2.4c-0.1-0.1-0.2-0.3-0.3-0.4c-0.8-0.7-1.7-1.3-2.6-1.8c-2-1-2-1.1-4.3-1c-1.1,0-2.1,0.1-3.2,0.3
	c-0.8,0.1-1.5,0.4-2.2,0.6c-0.5,0.2-1.1,0.4-1.6,0.6c-0.4,0.1-0.6,0.5-0.6,0.9c0,1.5,0,3,0.1,4.4c0.1,2,0.2,4.1,0.3,6.1
	C92.4,123.8,92.4,124,92.4,124.3L92.4,124.3z M175.1,147.6v-15.9c-0.2,0-0.3,0.1-0.5,0.2c-0.6,0.3-1.2,0.4-1.8,0.4
	c-1.8,0-3.5-0.7-4.9-1.9c-0.5-0.4-0.9-0.7-1.4-1.1c-0.2-0.1-0.4-0.2-0.6-0.2c-1.2-0.1-2.3,0.1-3.4,0.7c-0.3,0.2-0.5,0.4-0.6,0.6
	c-0.2,0.3-0.3,0.6-0.6,0.9c-0.4,0.5-0.6,1.1-0.6,1.8c-0.1,1.8-0.3,3.5-0.4,5.2c-0.1,0.8-0.1,1.5-0.1,2.3c-0.1,2.2-0.1,4.4-0.1,6.6
	c0,0.1,0,0.3,0,0.4c0.3,0.1,0.7,0.2,1,0.3c0.7,0.2,1.1,0.9,1,1.6c-0.1,0.3-0.3,0.6-0.6,0.8c-0.3,0.3-0.7,0.4-1,0.5
	c-1.3,0.2-2.6,0.2-4,0.1c-0.7,0-1.2-0.6-1.3-1.3c-0.2-0.6,0.1-1.3,0.7-1.6c0.5-0.2,0.8-0.6,0.7-1.1c0-0.7,0.1-1.5,0.1-2.2
	c-0.1-3.5,0-6.9,0.3-10.4c0-1.3,0-2.5-0.2-3.8c-0.2-1.7-0.2-3.5,0.1-5.3c0-0.2,0.1-0.4,0-0.6c-0.2-1.1-0.2-2.3,0-3.4
	c0.1-2.3,0.3-4.5,0.5-6.8c0-0.3,0.1-0.6,0.1-0.9c0.5-1.7,1.4-3.3,3-4.2c1-0.7,2-1.2,3.1-1.6c0.5-0.2,1-0.2,1.5-0.3
	c1.3,0,2.6,0,3.8,0.2c2.4,0.3,4.6,1.5,6.1,3.4c0.5,0.6,0.9,1.2,1.3,1.9c0.8,1.5,1.4,3.2,1.7,4.9c0.3,2.3,0.5,4.7,0.5,7.1
	c0,3.3,0,6.6-0.2,9.8c-0.1,3.5-0.3,7-0.2,10.5c0,0.8,0.1,1.6,0.1,2.4c0,0.2,0.1,0.4,0.4,0.4c0.2,0,0.3,0.1,0.5,0.1
	c0.6,0.2,1,0.9,1,1.6c-0.1,0.7-0.6,1.2-1.2,1.3c-0.6,0.1-1.1,0.1-1.7,0.1c-0.7,0-1.4-0.1-2.1-0.1c-0.5,0-0.9-0.2-1.2-0.5
	c-0.6-0.6-0.7-1.6-0.1-2.2c0.2-0.2,0.5-0.4,0.7-0.5C174.6,147.8,174.8,147.7,175.1,147.6L175.1,147.6z M160.7,127.2
	c0.1,0,0.2,0,0.3-0.1c1.3-0.9,2.9-1.2,4.5-1c0.6,0,1.1,0.2,1.6,0.5c0.8,0.5,1.6,0.9,2.3,1.5c1,0.8,2.4,1.1,3.7,0.9h0.1
	c0.5,0,1-0.3,1.2-0.7c0.4-0.6,0.6-1.3,0.7-2c0.1-1.4,0.2-2.7,0.1-4.1c-0.2-2.5-0.7-5.1-1.4-7.5c-0.1-0.3-0.2-0.5-0.4-0.7
	c-0.5-0.6-1.1-1.2-1.6-1.9c-0.4-0.4-0.9-0.8-1.4-1c-1.7-0.8-3.5-0.6-5.2,0c-0.5,0.2-0.9,0.4-1.3,0.6c-1.1,0.6-1.7,1.6-2.4,2.6
	c-0.2,0.3-0.3,0.6-0.3,0.9c-0.1,0.8-0.2,1.6-0.3,2.4c-0.1,0.6-0.1,1.2-0.2,1.8c0,2.3,0,4.6,0.1,6.9
	C160.7,126.6,160.7,126.9,160.7,127.2L160.7,127.2z M140,82.1c0,2.2-0.1,4.3-0.1,6.5c-0.1,2.6-0.3,5.1-1.3,7.5
	c-0.8,2.2-2.3,4.1-4.4,5.4c-0.3,0.2-0.6,0.4-0.9,0.6c-0.9,0.6-1.9,0.9-2.9,0.9c-2.1,0-4.1-0.3-6.2-0.8c-0.6-0.1-1.1-0.4-1.5-0.7
	c-0.6-0.5-1.3-1-1.9-1.5c-0.5-0.5-0.8-1-1-1.7c-0.1-0.3-0.3-0.7-0.5-1c-1.3-1.6-2-3.6-2.2-5.6c0-0.4-0.1-0.8-0.2-1.1
	c-0.3-1.1-0.5-2.2-0.4-3.4c0-2.1,0-4.2,0.1-6.3c0-1.1,0.2-2.2,0.2-3.3c0.1-2.4,0.7-4.8,1.1-7.2c0.1-0.6,0.2-1.3,0.3-1.9
	c0.3-1.8,1.1-3.5,2.2-5c0.2-0.3,0.4-0.6,0.6-0.8c0.2-0.3,0.3-0.5,0.6-0.5c0.2,0,0.3-0.2,0.5-0.4c1.3-1.4,3.2-2.3,5.2-2.3
	c0.7,0,1.5,0,2.2,0c0.9,0.1,1.8,0.3,2.6,0.5c1.1,0.3,2,0.8,2.9,1.4c0.9,0.7,1.8,1.5,2.6,2.3c0.7,0.9,1.2,1.9,1.6,2.9
	c0.8,2.3,1.2,4.7,1.4,7.2c0.1,1.5,0.1,3,0,4.4C140.1,79.6,140,80.9,140,82.1L140,82.1z M120.7,72.4c0,0.3-0.1,0.5-0.1,0.7
	c-0.1,1.5-0.3,3.1-0.4,4.6c-0.1,1.1-0.2,2.3-0.3,3.5c0,2.7,0.1,5.3,0,8c0,1.6,0.3,3.2,0.8,4.7c0.3,0.7,0.7,1.4,1.1,1.9
	c0.9,1.1,1.9,2.1,3.1,2.9c1.1,0.9,2.5,1.2,3.8,0.9c1.1-0.3,2.2-0.6,3.3-1c0.9-0.3,1.6-1,2-1.8c0.2-0.4,0.4-0.7,0.6-1.1
	c0.9-1.2,1.5-2.6,1.7-4.1c0.2-1.3,0.3-2.5,0.3-3.8c0.1-2.7,0.2-5.4,0.3-8.1c0.1-2.9,0.2-5.7-0.3-8.6c-0.2-1.2-0.6-2.4-0.9-3.6
	c-0.3-0.9-0.7-1.6-1.4-2.2c-0.8-0.9-1.8-1.5-2.9-1.8c-1.6-0.4-3.2-0.5-4.9-0.5c-1.6,0-3.1,0.9-3.9,2.3c-0.2,0.3-0.3,0.7-0.3,1
	c-0.1,1-0.1,2-0.1,2.9c0,0.5,0.2,1,0.6,1.3c0.7,0.6,1.7,0.9,2.6,0.7c0.2,0,0.4-0.1,0.5-0.3c0.4-0.7,0.8-1.5,1.2-2.2
	c0.2-0.5,0-0.9-0.5-1.1c-0.4-0.2-0.9-0.2-1.3,0c-0.6,0.2-1.3-0.1-1.6-0.7c-0.1-0.1-0.1-0.3-0.1-0.4c0-1.1,0.9-2,1.9-2l0,0
	c0.3,0,0.5,0,0.8,0c1.4,0.1,2.6,0.8,3.4,2c0.1,0.2,0.2,0.4,0.3,0.6c0.1,0.8,0.1,1.6-0.1,2.4c-0.5,1.3-1.1,2.5-1.9,3.6
	c-0.4,0.5-1,0.9-1.7,1c-1.9,0.4-3.8-0.1-5.4-1.3C121.1,72.7,120.9,72.6,120.7,72.4L120.7,72.4z M66.2,100.3c0.4,0.2,0.9,0.4,1.3,0.6
	c0.5,0.2,0.8,0.8,0.6,1.3c-0.1,0.6-0.6,1.1-1.2,1.2c-1.3,0.3-2.6,0.4-3.9,0.3c-0.5-0.1-1-0.1-1.5-0.3c-0.5-0.1-0.9-0.6-1-1.1v-0.1
	c-0.2-1.4,0.3-1.8,1.7-1.8c0.1,0,0.3,0,0.4,0c0.2-1.1,0.2-2.2,0.2-3.3c0-1.4-0.1-2.9,0-4.3c0.1-2,0.3-4,0.3-6c0-0.9,0-1.9-0.1-2.8
	c-0.3-1.9-0.3-3.8-0.1-5.7c0.1-0.6,0.1-1.3,0-1.9c0.1-0.6,0.1-1,0.1-1.4c0.2-2.7,0.3-5.5,0.6-8.2c0.2-2.1,1.3-3.9,3-5
	c1-0.7,2.1-1.3,3.3-1.7c0.5-0.2,1.1-0.2,1.6-0.2c1.2,0,2.4,0,3.6,0.2c2.6,0.4,4.9,1.5,6.4,3.7c0,0.1,0.1,0.1,0.1,0.2
	c1.6,2.2,2.5,4.7,2.7,7.4c0.2,2,0.3,4,0.3,6c0,3.3-0.1,6.5-0.1,9.8c-0.1,3.4-0.2,6.7-0.2,10c0,0.9,0.1,1.9,0.1,2.8
	c0,0.2,0.1,0.4,0.4,0.5l0,0l0.3,0.1c0.7,0.2,1.2,0.9,1.1,1.6s-0.7,1.3-1.4,1.3c-0.6,0.1-1.3,0-1.9,0s-1.1,0-1.6-0.1
	c-0.5,0-0.9-0.1-1.3-0.4c-0.5-0.4-0.7-1-0.5-1.6c0.1-0.6,0.6-1.1,1.2-1.2c0.1,0,0.3-0.1,0.5-0.1v-16c-0.1,0-0.3,0-0.4,0.1
	c-1,0.5-2.2,0.6-3.3,0.3c-1.3-0.3-2.5-0.9-3.5-1.8c-0.4-0.4-0.9-0.7-1.4-1c-0.2-0.1-0.4-0.2-0.6-0.2c-1.1-0.1-2.3,0.2-3.3,0.7
	c-0.3,0.1-0.5,0.4-0.7,0.6c-0.2,0.3-0.4,0.7-0.6,1c-0.4,0.4-0.6,1-0.5,1.6c-0.1,1.4-0.2,2.9-0.3,4.3c-0.1,1.1-0.2,2.2-0.2,3.3
	c-0.1,2.2-0.1,4.5-0.1,6.7C66.2,99.8,66.2,100.1,66.2,100.3L66.2,100.3z M66.9,79.5c0.5-0.3,1-0.5,1.5-0.7c1.9-0.7,3.7-0.7,5.4,0.5
	c0.8,0.6,1.7,1,2.5,1.5c0.7,0.4,1.5,0.6,2.3,0.5c0.2,0,0.5,0,0.7,0c0.7,0,1.3-0.4,1.5-1.1c0.4-1,0.7-2,0.7-3.1c0-1.7-0.1-3.3-0.3-5
	c-0.3-1.7-0.7-3.5-1.2-5.2c-0.1-0.2-0.2-0.5-0.4-0.7c-0.5-0.6-1.1-1.3-1.7-1.9c-0.4-0.4-0.9-0.8-1.5-1c-1.8-0.8-3.7-0.6-5.5,0.1
	c-0.4,0.1-0.7,0.3-1.1,0.6c-0.8,0.6-1.5,1.3-2.1,2.1c-0.4,0.5-0.6,1.2-0.7,1.8c0,0.3-0.1,0.6-0.1,0.9c-0.1,0.9-0.3,1.9-0.3,2.8
	c0,2.4,0,4.8,0.1,7.2C66.8,79.1,66.9,79.3,66.9,79.5L66.9,79.5z M72.4,148c0.3,0.1,0.5,0.1,0.7,0.2c0.6,0.2,1,0.8,0.9,1.5
	c0,0.7-0.6,1.3-1.2,1.3c-0.5,0.1-1,0.1-1.5,0.1c-0.8,0-1.6-0.1-2.4-0.1c-0.7,0-1.3-0.4-1.5-1c-0.4-0.8,0-1.7,0.7-2.1
	c0.1,0,0.1-0.1,0.2-0.1c0.2-0.1,0.4-0.1,0.7-0.2c0.1-5.3,0.1-10.6,0-15.9c-0.1,0-0.2,0-0.3,0.1c-1.7,0.9-3.5,0.6-5.1-0.2
	c-0.8-0.4-1.4-0.9-2-1.5c-0.9-0.9-2.1-1.2-3.3-0.9c-0.6,0.1-1.1,0.3-1.7,0.6c-0.3,0.1-0.5,0.3-0.6,0.6c-0.2,0.3-0.4,0.6-0.6,0.9
	c-0.5,0.6-0.7,1.3-0.6,2c-0.1,1.7-0.3,3.4-0.4,5c-0.1,0.7-0.1,1.4-0.1,2c-0.1,2.3-0.1,4.6-0.2,6.9c0,0.2,0,0.4,0,0.6
	c0.6,0.1,1.3,0.4,1.7,0.8c0.5,0.4,0.7,1,0.5,1.5c-0.2,0.6-0.7,1-1.3,1c-1.3,0.1-2.5,0.1-3.8,0.1c-0.4,0-0.8-0.1-1.1-0.2
	c-0.9-0.4-1.2-1.4-0.8-2.3c0.1-0.1,0.1-0.2,0.2-0.4c0.4-0.3,0.8-0.6,1.2-0.7c0.2-1,0.2-2.1,0.2-3.1c-0.1-3.4,0-6.9,0.3-10.3
	c0.1-0.9,0.1-1.7-0.1-2.6c-0.3-2.2-0.4-4.4-0.1-6.5c0-0.2,0-0.4,0-0.6c-0.2-1.1-0.2-2.2,0-3.3c0.1-2.3,0.3-4.6,0.5-7
	c0.2-2,1.2-3.7,2.8-4.9c1-0.8,2.1-1.4,3.4-1.8c0.5-0.2,1-0.3,1.5-0.3c1.3,0,2.6,0,3.9,0.2c2.5,0.4,4.7,1.5,6.2,3.6
	c0.3,0.4,0.6,0.7,0.8,1.1c1,1.6,1.7,3.5,2,5.4c0.4,3.1,0.6,6.3,0.5,9.5c0,1.5,0,2.9-0.1,4.4c-0.1,3.1-0.2,6.1-0.3,9.1
	c-0.1,2.3-0.1,4.6,0.1,6.9C72.3,147.8,72.3,147.9,72.4,148z M54.7,127.2c0.5-0.3,0.9-0.5,1.4-0.7c1.9-0.7,3.7-0.8,5.5,0.4
	c0.6,0.4,1.2,0.7,1.8,1.1c1,0.8,2.3,1.1,3.6,0.9c0.7,0,1.4-0.5,1.6-1.2c0.4-1,0.6-2.1,0.6-3.1c0.1-2.5-0.2-5.1-0.8-7.5
	c-0.2-0.8-0.4-1.5-0.6-2.2c-0.1-0.4-0.3-0.7-0.5-1c-0.5-0.6-1-1.2-1.6-1.8c-0.4-0.4-0.9-0.8-1.5-1c-1.7-0.6-3.5-0.7-5.1,0
	c-0.5,0.2-1.1,0.4-1.5,0.7c-0.8,0.6-1.5,1.4-2.1,2.3c-0.2,0.3-0.4,0.7-0.5,1.1c-0.1,0.8-0.2,1.6-0.3,2.4c-0.1,0.6-0.1,1.1-0.2,1.7
	c0,2.4,0,4.8,0.1,7.2C54.7,126.7,54.7,126.9,54.7,127.2z M37.2,87.4C36.9,87,36.4,87,36,87.3s-0.8,0.6-1.1,0.9
	c-1,0.7-1.9,1.7-2.5,2.8c-0.2,0.5-0.4,1-0.3,1.6c0,0.4,0.1,0.7,0,1.1c0,0.8,0.3,1.6,0.9,2.1c0.8,0.8,1.7,1.5,2.7,1.9
	c1.3,0.5,2.6,0.9,4,1.1c0.5,0,1,0.1,1.6,0c0.2,0,0.5,0,0.7,0c2.3,0.4,4.5,0,6.7-0.4c0.5-0.1,1-0.3,1.4-0.5c1.2-0.5,2.3-1,3.3-1.7
	c0.6-0.5,1.2-1.1,1.6-1.8c1-1.5,1.7-3.1,2.3-4.8c0.1-0.4,0.2-0.8,0.2-1.2c0.1-1.2,0-2.5-0.3-3.7c-0.3-1.1-0.7-2.1-1.1-3.1
	c-0.1-0.1-0.1-0.2-0.2-0.3c-0.9-1-1.7-2-2.6-2.9c-1.5-1.7-3.5-2.8-5.7-3.1c-1.6-0.2-3.2-0.4-4.8-0.6c-2.3-0.2-4.5-1-6.4-2.4
	c-1.6-1.2-2.1-2.9-2-4.8c0.1-1.3,0.7-2.6,1.6-3.6c1.2-1.3,2.7-2.3,4.3-3c1.7-0.8,3.6-1.2,5.4-1.1c2,0,3.9,0.1,5.9,0.2
	c0.8,0,1.7,0.3,2.4,0.6c0.2,0.1,0.5,0.2,0.7,0.3c0.5,0.1,0.9,0.6,0.9,1.1c0,0.7,0,1.4,0,2c0,0.7-0.2,1.5-0.2,2.2s-0.5,1.3-1.2,1.5
	c-0.7,0.1-1.5-0.2-1.8-0.9c-0.3-0.6-0.4-1.2-0.3-1.8c0-0.4,0-0.9,0-1.3s-0.1-0.6-0.5-0.6c-0.8,0-1.5,0-2.3,0c-1.8,0-3.7,0.1-5.5,0.1
	c-0.9,0-1.8,0.2-2.6,0.6c-1.2,0.5-2.2,1.3-3,2.2c-0.3,0.3-0.5,0.7-0.7,1.1c-0.3,0.9,0.1,1.7,0.7,2.4c0.6,0.7,1.5,1.2,2.4,1.4
	c0.9,0.2,1.7,0.4,2.6,0.5c1.5,0.2,3,0.3,4.6,0.5c3,0.5,5.8,1.8,8,4c0.4,0.4,0.7,0.8,1,1.2c0.7,0.9,1.4,1.9,2,2.8
	c0.3,0.5,0.5,1,0.7,1.5c0.5,1,0.8,2.1,1,3.3c0.2,1.4,0.3,2.9,0.4,4.4c0,0.3,0,0.5-0.1,0.7c-0.5,2.2-1.1,4.3-2.3,6.3
	c-1.1,1.8-2.7,3.3-4.6,4.2c-1.9,1-4,1.8-6.1,2.2c-1.1,0.2-2.3,0.3-3.4,0.4c-0.8,0.1-1.7,0-2.5,0c-1.8,0-3.6-0.3-5.2-1.1
	c-1-0.4-2-0.8-3-1.1c-1.3-0.5-2.5-1.4-3.2-2.7c-0.7-1-1.2-2-1.7-3.1c-0.1-0.2-0.1-0.3-0.1-0.5c-0.1-1.6,0-3.2,0.4-4.8
	c0.4-1.5,1.3-2.8,2.4-3.9c0.4-0.4,0.8-0.8,1.2-1.1c1.5-1.1,3.3-1.2,5-0.8c1,0.2,1.9,0.6,2.7,1.2c0.5,0.4,0.8,1.1,0.8,1.7
	c0.1,1.1-0.3,2.1-1.1,2.8c-1,0.8-2.3,1-3.4,0.5c-0.6-0.3-0.9-0.9-0.9-1.5c0-0.5,0.4-1,0.9-1.1C36.8,87.5,37,87.4,37.2,87.4z
	 M165.2,100c-0.8-2.9-2.1-5.4-3.2-8c-1.1-2.7-2.4-5.3-4.1-7.7c-0.5,0.1-1.1,0.2-1.7,0.4c-1.7,0.4-3.4,0.5-5.1,0.4
	c-0.2,0-0.4,0-0.5-0.1c-0.9-0.3-1.8-0.6-2.6-0.9c-0.3-0.2-0.6-0.3-0.9-0.6c-0.1-0.1-0.3-0.2-0.5-0.4c0,0.3,0,0.6,0,0.8
	c0,2.4,0,4.7,0,7.1c0,1.9,0,3.8-0.1,5.7c0,0.3,0.1,0.6,0.1,0.9c0.1,0.4,0.1,0.8,0.2,1.1c0.1,1.2,0.2,1.2,1.3,1.6
	c0.2,0.1,0.4,0.1,0.6,0.2c0.7,0.3,1.1,1,0.8,1.8c-0.1,0.4-0.4,0.7-0.8,0.8c-0.3,0.1-0.6,0.2-0.9,0.2c-1.1,0.1-2.3,0.2-3.5,0.2
	c-1.1,0-2.1-0.1-3.2-0.1c-0.7,0-1.2-0.5-1.3-1.2c-0.1-0.6,0.1-1.3,0.7-1.6c0.5-0.2,1.1-0.4,1.6-0.5c0.2-0.7,0.3-1.4,0.4-2.2
	c0.3-4,0.1-7.9,0.2-11.9c0-5.8,0.1-11.6,0.1-17.4c0-2.1-0.1-4.2-0.1-6.4c0-0.6,0.1-1.2,0.3-1.8c0.2-0.7,1-1,1.6-0.8
	c0.3,0.1,0.5,0.3,0.7,0.5c0.2,0.4,0.7,0.5,1.1,0.3c1.1-0.4,2.2-0.7,3.3-0.8c0.5,0,1.1-0.1,1.6,0c1.3,0,2.6,0.2,3.9,0.1
	c2.4-0.1,4.5,0.8,6.5,2c0.8,0.6,1.6,1.3,2.1,2.1c1,1.4,1.7,3,2.1,4.7c0.1,0.5,0.2,1,0.2,1.5c0,1.1,0,2.3,0,3.5
	c0,0.8-0.2,1.6-0.5,2.3c-0.6,1.3-1.2,2.5-1.8,3.8c-0.1,0.2-0.3,0.5-0.5,0.6c-0.5,0.6-1.1,1.1-1.6,1.7c-0.2,0.2-0.3,0.5-0.1,0.8
	c0.5,1,0.9,1.9,1.4,2.9s0.9,1.7,1.3,2.6c0.6,1.3,1.1,2.6,1.5,3.9s0.9,2.7,1.5,4c0.3,0.6,0.4,1.2,0.6,1.8s0.4,1.1,0.6,1.7
	c0.1,0.3,0.3,0.4,0.6,0.4h0.7c0.8,0,1.5,0.7,1.5,1.5l0,0c0,0.8-0.6,1.5-1.4,1.5l0,0c-1.3,0.1-2.6,0.1-3.8,0.1
	c-0.3,0-0.6-0.1-0.9-0.2c-0.8-0.3-1.1-1.2-0.8-1.9c0.1-0.2,0.3-0.4,0.5-0.6C164.8,100.2,165,100.1,165.2,100L165.2,100z M146.3,76.2
	c0.8-0.5,1.6-1,2.3-1.5c1.2-0.8,2.7-1.2,4.2-1c2,0.3,3.5,2,3.4,4c0,1.2-1.5,2.1-2.4,1.8c-0.5-0.1-0.9-0.6-0.8-1.1l0,0
	c0-0.2,0.1-0.4,0.2-0.7c0.2-0.4,0-0.9-0.4-1c-0.1,0-0.2-0.1-0.3-0.1c-0.8-0.1-1.6,0.1-2.2,0.5c-0.4,0.3-0.8,0.5-1.1,0.7
	c-0.1,0.1-0.3,0.2-0.4,0.4c-0.2,0.7-0.2,1.4,0,2.1c0,0.1,0.1,0.2,0.2,0.2c0.6,0.4,1.1,0.8,1.8,1.1c0.3,0.2,0.7,0.3,1.1,0.3
	c1.5,0,2.9-0.2,4.3-0.6c0.4-0.1,0.7-0.3,1-0.5c0.7-0.4,1.3-0.8,2-1.2c0.3-0.2,0.7-0.5,1-0.7c0.9-0.9,1.7-1.9,2.2-3.1
	c0.9-1.7,1.1-3.7,0.8-5.6c-0.3-1.7-0.9-3.4-1.7-4.9c-0.5-1-1.4-1.8-2.5-2.1c-1.6-0.7-3.4-1-5.2-0.9h-0.2c-1.1,0.1-2.2,0.2-3.3,0.3
	c-0.7,0.1-1.4,0.3-2.1,0.6c-0.6,0.2-1.1,0.5-1.7,0.7c-0.3,0.1-0.5,0.4-0.5,0.8c0,1.4,0,2.8,0.1,4.2c0.1,1.6,0.2,3.1,0.2,4.7
	C146.3,74.5,146.3,75.4,146.3,76.2L146.3,76.2z M148.1,147.8c-0.8-2.8-2.1-5.4-3.2-8c-1.1-2.7-2.4-5.3-4-7.7
	c-0.5,0.1-1.1,0.2-1.7,0.4c-1.7,0.4-3.4,0.5-5.1,0.4c-0.2,0-0.4,0-0.5-0.1c-0.9-0.3-1.9-0.6-2.8-1c-0.3-0.2-0.6-0.3-0.8-0.6
	c-0.1-0.1-0.3-0.2-0.5-0.4c0,0.3,0,0.6,0,0.8c0,2.4,0,4.8,0,7.2c0,1.9,0,3.8-0.1,5.7c0,0.3,0.1,0.6,0.1,0.9c0.1,0.4,0.1,0.8,0.2,1.2
	c0.1,0.4,0,0.8,0.2,1c0.4,0.3,0.8,0.5,1.2,0.6c0.2,0.1,0.4,0.1,0.5,0.1c0.5,0.2,0.9,0.7,0.9,1.2c0.1,0.6-0.3,1.1-0.8,1.3
	c-0.4,0.1-0.8,0.2-1.1,0.2c-1,0.1-2,0.1-3.1,0.2c-0.2,0-0.5,0-0.7,0l-2.3-0.1c-0.1,0-0.1,0-0.2,0c-0.8,0-1.5-0.6-1.6-1.4
	c-0.1-0.8,0.5-1.5,1.2-1.6l0,0c0.9,0,1.1-0.4,1.2-1.1c0.2-1.1,0.3-2.1,0.3-3.2c0.1-1.2,0.1-2.4,0.1-3.6c0-3.8,0-7.6,0-11.4
	c0-4.1,0.1-8.2,0.1-12.2c0-1.2,0-2.4-0.1-3.6c0-1.2-0.1-2.3-0.1-3.4c0-0.5,0.1-1,0.3-1.5c0.2-0.7,0.9-1.1,1.6-0.9
	c0.3,0.1,0.5,0.3,0.7,0.5c0.2,0.4,0.7,0.5,1.1,0.3c0.9-0.4,1.9-0.7,3-0.8c0.8,0,1.5-0.1,2.3-0.1c1.1,0,2.2,0.2,3.3,0.1
	c2.4-0.1,4.6,0.7,6.6,1.9c1,0.6,1.8,1.4,2.4,2.4c0.9,1.4,1.6,2.9,2,4.6c0.1,0.5,0.2,1.1,0.2,1.6c0,1.1,0,2.1,0,3.2
	c0,0.8-0.2,1.6-0.5,2.4c-0.6,1.3-1.2,2.5-1.8,3.8c-0.1,0.3-0.3,0.5-0.5,0.7c-0.6,0.6-1.1,1.1-1.6,1.7c-0.2,0.2-0.2,0.5-0.1,0.8
	c0.2,0.4,0.3,0.7,0.5,1.1c0.7,1.5,1.6,3,2.3,4.5c0.6,1.2,1,2.5,1.5,3.8c0.4,1.3,0.9,2.7,1.5,4c0.3,0.6,0.5,1.3,0.7,1.9
	c0.2,0.5,0.3,0.9,0.5,1.4c0.1,0.4,0.5,0.7,0.9,0.6l0,0c0.2,0,0.4,0,0.6,0c0.8,0,1.4,0.7,1.4,1.5s-0.5,1.4-1.3,1.5
	c-1.4,0.1-2.8,0.1-4.2,0.1c-0.4,0-0.8-0.2-1.1-0.4c-0.6-0.5-0.7-1.5-0.1-2.1c0-0.1,0.1-0.1,0.1-0.1
	C147.7,148.1,147.9,148,148.1,147.8L148.1,147.8z M129.2,124.1c0.9-0.6,1.6-1,2.3-1.5c1.3-0.9,2.8-1.2,4.3-1c1.9,0.3,3.4,2,3.3,4
	c0,1.2-1.4,2.1-2.4,1.8c-0.5-0.1-0.9-0.6-0.8-1.1c0-0.3,0.1-0.5,0.2-0.8c0.1-0.4-0.1-0.8-0.5-1c-0.1,0-0.1,0-0.2,0
	c-0.7-0.2-1.5,0-2.2,0.4c-0.2,0.2-0.5,0.3-0.7,0.4c-1.2,0.8-1.2,0.8-1.1,2.2c0,0.1,0,0.2,0,0.3c0,0.3,0.2,0.6,0.4,0.7
	c0.4,0.2,0.7,0.4,1.1,0.7c0.7,0.5,1.6,0.8,2.5,0.6c0.9-0.1,1.8-0.2,2.6-0.3s1.5-0.4,2.2-0.9c0.3-0.2,0.7-0.4,1.1-0.6
	c2.1-1.1,3.3-3,4.1-5.1c0.2-0.5,0.4-1.1,0.5-1.6c0.1-1,0.1-2.1-0.1-3.1c-0.3-1.9-1-3.7-2-5.4c-0.3-0.4-0.7-0.8-1.1-1.1
	c-1.1-0.7-2.3-0.9-3.4-1.3c-0.4-0.1-0.8-0.2-1.1-0.2c-1.8-0.1-3.6,0-5.4,0.4c-0.6,0.2-1.2,0.3-1.8,0.5s-1.1,0.5-1.7,0.7
	c-0.3,0.1-0.6,0.5-0.5,0.9c0,1.3,0,2.6,0.1,4c0.1,2.1,0.2,4.2,0.3,6.4C129.2,123.4,129.2,123.7,129.2,124.1L129.2,124.1z M101,70.7
	c0.1,0,0.2,0.1,0.4,0.1c2.3,0.4,4.6,1.2,6.6,2.5c2.9,1.9,5.1,4.6,6.3,7.8c0.3,0.8,0.5,1.7,0.5,2.6c0,2,0,4,0,5.9
	c0,0.5-0.1,1.1-0.2,1.6c-0.1,0.4-0.2,0.8-0.3,1.2c-0.5,1.7-1.2,3.3-2.2,4.7c-0.5,0.8-1,1.6-1.7,2.2c-1.7,1.6-3.6,3-6.1,3.4
	c-0.5,0.1-1,0.1-1.6,0.1c-2.5,0-4.9,0-7.4,0c-1.4,0.1-2.7-0.5-3.7-1.6c-0.1-0.1-0.2-0.2-0.4-0.4c0,0.2-0.1,0.4-0.1,0.6
	c-0.1,0.9-0.8,1.6-1.7,1.5c-0.9,0-1.6-0.8-1.6-1.6c0-1.1,0-2.3,0-3.5c0-3.9,0-7.7,0.3-11.6c0.2-2.5,0.1-5.1,0.1-7.6
	c0.1-3.3,0.1-6.5,0.2-9.8c0-1.6,0-3.2,0-4.8c0-1.3,0-2.5,0-3.8c0-0.4,0.3-0.8,0.7-0.9c0.5-0.2,1.1,0,1.5,0.4
	c0.2,0.2,0.5,0.3,0.8,0.3c1-0.1,2-0.1,3.1-0.2c1.3-0.1,2.6-0.1,4,0.2s2.7,1.1,3.5,2.3s1.2,2.7,1,4.1c-0.1,1.1-0.5,2.2-1.2,3.1
	L101,70.7z M91.2,89.7c0.2-0.2,0.4-0.3,0.5-0.5c1.9-2,4.7-3,7.4-2.7c0.2,0,0.5,0.1,0.7,0.2c1,0.4,1.9,1.1,2.5,2.1
	c1,1.7,1.4,3.7,1.1,5.6c-0.1,1.4-1.1,2.5-2.4,2.7c-1.1,0.1-2.2,0.1-3.3,0.1c-0.6,0-1.1-0.5-1.2-1.1c-0.1-0.7,0-1.3,0.1-1.9
	c0.1-0.5,0.6-0.8,1-0.7h0.1c0.2,0,0.3,0.1,0.5,0.2c0.8,0.2,1.7-0.3,1.9-1.1c0.1-0.2,0.1-0.5,0-0.8c-0.1-0.7-0.4-1.4-1-1.8
	c-0.2-0.1-0.4-0.3-0.6-0.3c-1.2-0.2-2.4,0.1-3.4,0.7c-1.4,0.9-2.5,2.2-3.2,3.6c-0.5,1-0.5,2.3,0.2,3.2c1.6,2.2,1.7,2.4,4.5,2.5
	c2.1,0.1,4.2,0,6.3,0c1.1,0,2.1-0.3,3-1c1.5-1.1,2.8-2.5,3.7-4.2c0.7-1.4,1.3-2.8,1.9-4.2c0.1-0.3,0.2-0.7,0.2-1.1
	c0-1.8,0-3.7,0-5.5c0-0.6-0.1-1.1-0.3-1.7c-1-2.8-3-5.1-5.5-6.6c-2.5-1.6-5.4-2.2-8.3-1.9c-1.7,0.2-3.3,0.3-5,0.5
	c-0.2,0-0.4,0.1-0.6,0.2c-0.5,0.3-0.8,0.9-0.7,1.4c0,4.4,0.2,8.8-0.1,13.2C91.2,89.2,91.2,89.4,91.2,89.7z M95.6,62.3L95.6,62.3
	c-1,0-2,0.1-3,0.3c-0.6,0.1-1.1,0.5-1.4,1c-0.2,0.2-0.1,0.6-0.1,1c0.1,1.5,0.1,2.9,0.2,4.4c0.1,0.8,0.7,1.4,1.5,1.4
	c0.5,0,1.1,0.1,1.6,0.1c0.3,0,0.5,0,0.8,0c0.6-0.1,1.1-0.2,1.7-0.2s1.2-0.3,1.6-0.7c1.1-1.2,1.9-2.6,1.7-4.4c0-0.8-0.5-1.6-1.1-2
	c-0.6-0.5-1.4-0.8-2.2-0.8C96.4,62.3,96,62.3,95.6,62.3L95.6,62.3z M121.1,40.6c-6.9,12.3-22.5,16.7-34.9,9.8
	c-4.1-2.3-7.5-5.7-9.8-9.8h-0.2c-1.7,0-3.4,0.2-5.1,0.4c-1.1,0.2-2.3,0.3-3.5,0.4c-0.7,0.1-1.4,0.2-2.1,0.3
	c-1.1,0.2-2.1,0.5-3.2,0.7c-1.1,0.2-2.1,0.3-3.2,0.5c-0.6,0.1-1.1,0.3-1.7,0.4c-1.4,0.2-2.9,0.4-4.3,0.5c-1.1,0.1-2.2,0.2-3.3,0.4
	c-0.9,0.1-1.7,0.3-2.6,0.4c-1.6,0.2-3.2,0.4-4.8,0.6c-2.5,0.4-5,0.8-7.4,1.2c-1.5,0.2-2.9,0.5-4.4,0.7c-0.7,0.1-1.3,0.3-2,0.4
	c-2.4,0.3-4.8,0.6-6.9,1.9c0,0-0.1,0-0.1,0.1c-0.9,0.5-1.9,1-2.7,1.6c-0.9,0.6-1.4,1.3-2.2,1.9c-0.9,0.8-1.8,1.5-2.7,2.2
	c-0.8,0.5-1.4,1.3-1.9,2.1c-0.2,0.3-0.4,0.6-0.6,0.9c-0.3,0.5-0.7,1-1,1.5C10,60.6,9.6,61.5,9,62.4c-0.7,1-1.2,2.1-1.5,3.2
	c0,0.2-0.1,0.4-0.2,0.6c-0.3,0.6-0.5,1.3-0.5,2c-0.1,0.6-0.3,1.2-0.4,1.8c-0.2,0.5-0.3,0.9-0.3,1.4c0,3.1,0,6.2,0,9.2
	c0,5.4,0.2,10.9-0.4,16.3c-0.2,1.4-0.2,2.9-0.2,4.4c-0.1,3.2,0.1,6.4,0.3,9.6l0.1,1.5c0.1,0.8,0.2,1.5,0.2,2.3c0,4.9,0,9.7,0,14.6
	c0,2.2,0,4.3,0,6.5c0,1.6-0.1,3.2,0.5,4.7c0.1,0.1,0.1,0.3,0.1,0.5c0.2,0.8,0.5,1.5,0.7,2.3c0.3,0.8,0.7,1.6,1,2.3
	c1.6,4.1,4.4,6.9,8.3,8.7c1.2,0.6,2.4,1.2,3.6,1.8c0.5,0.3,1.1,0.5,1.7,0.6c0.7,0.2,1.5,0.3,2.2,0.4l4.7,0.7
	c0.5,0.1,1.1,0.1,1.6,0.3c1.4,0.3,2.8,0.5,4.2,0.7c2.3,0.3,4.7,0.6,7,1c1.6,0.3,3.3,0.5,4.9,0.6c1,0.1,2.1,0.2,3.1,0.3
	c1.3,0.2,2.7,0.4,4,0.6c2.2,0.3,4.4,0.4,6.5,1c0.3,0.1,0.6,0.1,0.9,0.1c1.4,0.2,2.8,0.5,4.2,0.7c0.8,0.1,1.5,0.4,2.3,0.5
	c1.1,0.2,2.2,0.3,3.3,0.4c1.5,0.2,3,0.4,4.5,0.5c2.2,0.1,4.4,0.2,6.6,0.3c2,0.1,4,0.2,5.9,1c0.2,0,0.4,0.1,0.5,0.1
	c2,0.1,4.1,0.1,6.1,0.2c3.3,0.2,6.6,0.2,9.8,0.1c2.2-0.1,4.3-0.1,6.5-0.2c0.2,0,0.5,0,0.7-0.1c0.8-0.4,1.8-0.6,2.7-0.7
	c1.8-0.2,3.6-0.3,5.5-0.3c2.8-0.1,5.6,0,8.3-0.5c1.9-0.3,3.8-0.3,5.8-0.8c2.3-0.5,4.6-0.9,6.9-1.3c1.5-0.2,2.9-0.4,4.4-0.5
	c1.3-0.1,2.5-0.3,3.8-0.4c0.5-0.1,1.1-0.2,1.6-0.3c2.5-0.3,4.9-0.5,7.4-0.9c2.2-0.4,4.5-0.6,6.8-0.9c0.9-0.1,1.8-0.1,2.6-0.3
	c1.7-0.4,3.4-0.6,5.1-0.8c0.5-0.1,1-0.2,1.5-0.5c0.9-0.4,1.9-0.8,2.9-1c1.2-0.2,2.4-0.4,3.6-0.6c0.4-0.1,0.8-0.2,1.1-0.4
	c0.8-0.5,1.5-1.1,2.3-1.6c0.4-0.3,0.8-0.7,1.1-1.2c0.6-0.7,1.2-1.4,1.8-2c0.5-0.5,1-1,1.5-1.5c0.4-0.4,0.8-0.9,1.1-1.4
	s0.7-1,0.9-1.5c0.4-0.9,0.8-1.8,1.2-2.7c0-0.1,0.1-0.2,0.1-0.3c0.3-1.2,0.6-2.5,0.8-3.7c0.1-0.7,0.2-1.5,0.2-2.2
	c0.1-0.9,0.2-1.9,0.4-2.8c0.2-0.5,0.3-1.1,0.4-1.6c0-5.2,0-10.5,0-15.7c0-1.9,0.1-3.7,0.2-5.6c0.3-2.5,0.3-5,0.4-7.6
	c0.1-3.1,0-6.2-0.3-9.3c-0.1-1-0.3-2-0.3-3.1c0-4.3,0-8.7,0-13.4c0-2.1-0.1-4.6-0.2-7.1c0-1.9-0.1-3.8-0.1-5.7
	c0-0.4-0.1-0.8-0.3-1.1c-0.6-1-1.1-2-1.7-2.9c-0.3-0.4-0.6-0.9-1-1.2c-1.6-1.5-3.2-3.1-4.9-4.6c-1.4-1.4-2.8-2.6-4.4-3.6
	c-1.6-1.1-3.3-2-5.2-2.6c-1.3-0.3-2.5-0.8-3.7-1.3c-1-0.5-2.1-0.8-3.2-1c-0.2,0-0.5-0.1-0.7-0.2c-0.6-0.1-1.2-0.3-1.8-0.4
	c-2.9-0.4-5.9-0.8-8.8-1.2c-1.1-0.2-2.2-0.4-3.4-0.6c-2.2-0.3-4.4-0.4-6.5-0.9c-0.5-0.1-1-0.1-1.5-0.2c-2.5-0.3-5.1-0.4-7.6-1.1
	c-0.3-0.1-0.5-0.1-0.8-0.1c-1.5-0.3-3-0.5-4.4-0.8c-1.3-0.3-2.7-0.5-4-0.7c-0.8-0.1-1.6-0.2-2.4-0.3s-1.7-0.2-2.6-0.3L121.1,40.6z
	 M98.7,2.4c14.2,0,25.6,11.5,25.6,25.7c0,2.9-0.5,5.8-1.5,8.5c0.7,0.1,1.5,0.2,2.2,0.3c2.6,0.3,5.2,0.5,7.8,0.7
	c2.2,0.2,4.5,0.3,6.7,0.6c2.4,0.3,4.9,0.7,7.3,1c3.4,0.4,6.9,0.9,10.3,1.3c0.4,0,0.8,0,1.1,0c0.9,0,1.7,0.1,2.6,0.2
	c2,0.2,4,0.6,6,1.1c1,0.2,2,0.4,3,0.5c1.1,0.2,2.2,0.6,3.1,1.1c1.2,0.6,2.5,1.3,3.7,1.9c1.5,0.7,3,1.6,4.3,2.6
	c0.6,0.5,1.3,0.9,2,1.2c1.4,0.6,2.6,1.5,3.7,2.6c1.1,1.1,2.3,2,3.4,3.1c1.2,1.1,2.3,2.4,3.4,3.6c0.1,0.1,0.3,0.3,0.4,0.5
	c0.5,0.5,0.9,1.1,1.1,1.7c0.5,1.3,1,2.7,1.5,4c0.2,0.4,0.3,0.9,0.5,1.3c0.4,1,0.6,2,0.6,3c0.1,4.3,0.1,8.6,0.2,12.9
	c0,1.7-0.1,3.4-0.4,5.1c-0.2,1.6-0.3,3.1-0.3,4.7c-0.1,2.8,0,5.5,0,8.3c0,1.7-0.1,3.4-0.1,5.1c0,3,0.1,6,0.1,9
	c0,2.3,0.2,4.6,0.5,6.8c0.2,1.5,0.2,2.9,0.2,4.4c0,2.6,0,5.3,0,7.9c0,1.5-0.2,2.9-0.6,4.3c-0.3,1.1-0.7,2.1-0.9,3.2
	c-0.2,0.9-0.6,1.7-1,2.4c-0.6,1.1-1.2,2.2-1.7,3.3c-0.7,1.5-1.6,2.9-2.5,4.2c-0.9,1.4-1.9,2.8-2.8,4.2c-0.7,1.2-1.6,2.2-2.7,2.9
	c-0.8,0.5-1.7,1-2.6,1.5c-1.3,0.7-2.6,1.3-3.9,2c-0.4,0.2-0.8,0.4-1.3,0.5c-0.8,0.2-1.6,0.4-2.4,0.7c-2.3,0.7-4.7,1.3-7.1,1.6
	c-1.1,0.2-2.3,0.5-3.4,0.7c-1.6,0.3-3.2,0.5-4.9,0.7c-0.2,0-0.5,0-0.7,0c-1.2-0.3-2.4,0.1-3.7,0.2c-2.9,0.3-5.8,0.7-8.6,1
	c-2.1,0.3-4.2,0.6-6.3,0.8s-4.1,0.4-6.2,0.6c-2.7,0.2-5.4,0.4-8.1,0.6c-1.2,0.1-2.5,0.3-3.7,0.5c-0.6,0.1-1.1,0-1.7,0.1
	c-2.4,0.2-4.8,0.4-7.2,0.6c-0.6,0-1.1,0-1.7,0.1c-2.1,0.1-4.1,0.2-6.2,0.3c-5,0.1-9.9,0-14.9-0.1c-2.6-0.1-5.2-0.3-7.8-0.5
	c-2.3-0.2-4.7-0.4-7-0.6c-1.2-0.1-2.4-0.4-3.6-0.5c-2.2-0.2-4.4-0.4-6.6-0.6c-2.2-0.2-4.3-0.3-6.4-0.5c-1.1-0.1-2.2-0.3-3.3-0.5
	c-3.1-0.4-6.2-0.7-9.4-1c-1.9-0.2-3.8-0.5-5.7-0.8c-0.4-0.1-0.8,0-1.2,0c-0.9,0-1.8-0.1-2.7-0.1c-2-0.2-3.9-0.5-5.8-1
	c-0.5-0.1-1-0.2-1.5-0.2c-1.3-0.2-2.6-0.4-3.9-0.8c-1.2-0.4-2.4-0.7-3.5-1.1c-1-0.4-2-1-2.9-1.5c-1.6-0.8-3.2-1.7-4.9-2.5
	c-0.6-0.3-1.2-0.6-1.9-0.8c-0.6-0.3-1.2-0.7-1.6-1.2c-0.6-0.6-1.3-1.1-1.9-1.7c-0.2-0.2-0.4-0.4-0.6-0.7c-0.7-1-1.5-2.1-2.2-3.1
	c-1.1-1.6-2.1-3.2-3.1-4.9c-0.5-0.7-0.9-1.5-1.2-2.3c-0.7-1.6-1-3.3-1.1-5.1c-0.1-2.7-0.2-5.3-0.3-8h0.1c0-1.9,0-3.7,0-5.6
	c0-1.5,0.1-2.9,0.3-4.4c0.3-1.8,0.4-3.5,0.4-5.3c0-2.7,0-5.4,0-8.1c0-1.7,0.1-3.5,0.1-5.2c0-3-0.1-6-0.1-9c0-2.2-0.2-4.5-0.5-6.7
	c-0.2-1.4-0.2-2.8-0.2-4.3c0-3.9,0.1-7.8,0.2-11.7c0-1.4,0.4-2.8,0.9-4c1.6-3.7,3.3-7.4,5.3-10.9c0.5-0.9,1.2-1.8,1.9-2.7
	s1.6-1.8,2.4-2.7c0.6-0.7,1.4-1.2,2.2-1.6c1.7-0.8,3.5-1.5,5.3-2c2.1-0.6,4.2-1.4,6.1-2.3c1.3-0.7,2.8-1.1,4.3-1.3
	c0.8-0.1,1.6-0.3,2.3-0.5c2.1-0.5,4.3-0.9,6.5-1.1c0.1,0,0.3,0,0.4,0c1.1,0.3,2.2,0,3.3-0.1c3-0.4,6.1-0.8,9.1-1.2
	c2.1-0.3,4.2-0.6,6.4-0.9c2.1-0.2,4.3-0.4,6.5-0.6c1.8-0.1,3.6-0.2,5.4-0.4c0.9-0.1,1.8-0.2,2.7-0.3c0.7-0.1,1.5-0.3,2.3-0.3
	C69.9,23.2,77,8.6,90.3,3.9C93,3,95.9,2.5,98.7,2.4L98.7,2.4z"/>
<path class="st0" d="M79.5,201.5h-1.4v-7c0.9,0,1.5,0,1.7,0c0.9,0,1.7,0.3,2.3,0.9c0.6,0.6,0.9,1.5,0.8,2.4
	C82.9,200.2,81.8,201.5,79.5,201.5z M79,195.4v5.2c0.3,0,0.5,0.1,0.8,0.1c0.6,0,1.2-0.3,1.5-0.7c0.4-0.6,0.6-1.3,0.6-2.1
	c0-1.6-0.7-2.5-2.2-2.5C79.6,195.3,79.4,195.3,79,195.4z"/>
<path class="st0" d="M88.2,199h-3.7c0,0.5,0.1,1,0.5,1.4c0.3,0.3,0.7,0.4,1.1,0.4c0.5,0,0.9-0.1,1.3-0.5l0.4,0.7
	c-0.2,0.2-0.4,0.3-0.6,0.4c-0.4,0.1-0.8,0.2-1.2,0.2c-0.6,0-1.2-0.2-1.6-0.7c-0.5-0.5-0.8-1.2-0.7-1.9c0-0.7,0.2-1.5,0.8-2
	c0.4-0.4,1-0.7,1.6-0.7s1.3,0.2,1.7,0.6c0.4,0.4,0.6,1,0.6,1.6C88.3,198.7,88.3,198.8,88.2,199z M86,197.1c-0.8,0-1.4,0.6-1.5,1.3
	h2.8c0-0.3-0.1-0.7-0.3-0.9C86.8,197.2,86.4,197,86,197.1z"/>
<path class="st0" d="M88.9,201.2l0.3-0.9c0.4,0.3,0.8,0.4,1.2,0.5c0.6,0,0.8-0.2,0.8-0.7c0-0.3-0.3-0.6-0.8-0.9
	c-0.3-0.1-0.6-0.3-0.8-0.4c-0.1-0.1-0.3-0.2-0.4-0.3s-0.2-0.3-0.2-0.4c-0.1-0.1-0.1-0.3-0.1-0.5c0-0.4,0.2-0.8,0.5-1
	s0.8-0.4,1.2-0.3c0.5,0,1,0.1,1.4,0.3l-0.3,0.8c-0.3-0.3-0.7-0.4-1.1-0.4c-0.2,0-0.4,0-0.5,0.1s-0.2,0.2-0.2,0.4
	c0,0.3,0.2,0.6,0.6,0.7l0.6,0.3c0.3,0.1,0.6,0.3,0.9,0.6c0.2,0.3,0.3,0.6,0.3,0.9c0,0.4-0.2,0.8-0.5,1.1c-0.4,0.3-0.9,0.4-1.3,0.4
	C89.9,201.6,89.4,201.4,88.9,201.2z"/>
<path class="st0" d="M96.4,201.5v-0.4c-0.4,0.3-0.9,0.5-1.4,0.5c-0.6,0-1.2-0.2-1.5-0.7c-0.4-0.5-0.6-1.2-0.6-1.8
	c0-0.7,0.2-1.4,0.7-1.9c0.4-0.5,1-0.8,1.6-0.8c0.4,0,0.9,0.1,1.2,0.4v-2.4h0.9v7.2L96.4,201.5z M96.4,197.6
	c-0.2-0.3-0.6-0.5-0.9-0.5c-0.5,0-0.9,0.2-1.2,0.5c-0.3,0.4-0.5,0.9-0.5,1.4c0,1.2,0.6,1.8,1.7,1.8c0.2,0,0.4-0.1,0.5-0.1
	c0.2-0.1,0.3-0.2,0.4-0.3V197.6z"/>
<path class="st0" d="M102.9,199h-3.7c0,0.5,0.1,1,0.5,1.4c0.3,0.3,0.7,0.4,1.1,0.4c0.5,0,0.9-0.1,1.3-0.5l0.4,0.7
	c-0.2,0.2-0.4,0.3-0.6,0.4c-0.4,0.1-0.8,0.2-1.2,0.2c-0.6,0-1.2-0.2-1.6-0.7c-0.5-0.5-0.8-1.2-0.7-1.9c0-0.7,0.2-1.5,0.8-2
	c0.4-0.4,1-0.7,1.6-0.7s1.3,0.2,1.7,0.6c0.4,0.4,0.6,1,0.6,1.6C103,198.7,102.9,198.8,102.9,199z M100.7,197.1c-0.4,0-0.7,0.1-1,0.4
	c-0.3,0.2-0.4,0.6-0.4,0.9h2.8c0-0.3-0.1-0.7-0.3-0.9C101.5,197.2,101.1,197,100.7,197.1z"/>
<path class="st0" d="M108.6,201.5v-5.3l-1.4,0.9v-0.9c0.4-0.2,0.8-0.5,1.1-0.7c0.3-0.3,0.7-0.6,0.9-0.9h0.3v7h-0.9V201.5z"/>
<path class="st0" d="M113.2,201.6l-0.5-0.5c0.5-0.3,0.9-0.7,1.2-1.1c0.4-0.4,0.7-0.9,0.9-1.5c-0.3,0.3-0.7,0.4-1.1,0.4
	c-0.6,0-1.1-0.2-1.5-0.6c-0.4-0.4-0.6-1-0.6-1.6s0.2-1.2,0.6-1.6c0.4-0.4,0.9-0.6,1.4-0.6c1.5,0,2.3,1,2.3,3c0,0.9-0.3,1.8-0.9,2.6
	C114.6,200.7,113.9,201.3,113.2,201.6z M114.9,196.7c0-1-0.4-1.5-1.2-1.5c-0.3,0-0.6,0.1-0.8,0.4c-0.4,0.6-0.4,1.4,0,2.1
	c0.2,0.3,0.5,0.4,0.8,0.4C114.5,198.1,114.9,197.6,114.9,196.7z"/>
<path class="st0" d="M118.3,201.6l-0.5-0.5c0.5-0.3,0.9-0.7,1.2-1.1c0.4-0.4,0.7-0.9,0.9-1.5c-0.3,0.3-0.7,0.4-1.1,0.4
	c-0.6,0-1.1-0.2-1.5-0.6c-0.4-0.4-0.6-1-0.6-1.6s0.2-1.2,0.6-1.6c0.4-0.4,0.9-0.6,1.4-0.6c1.5,0,2.3,1,2.3,3c0,0.9-0.3,1.8-0.9,2.6
	C119.7,200.7,119,201.3,118.3,201.6z M120,196.7c0-1-0.4-1.5-1.2-1.5c-0.3,0-0.6,0.1-0.8,0.4c-0.4,0.6-0.4,1.4,0,2.1
	c0.2,0.3,0.5,0.4,0.8,0.4C119.6,198.1,120,197.6,120,196.7z"/>
<path class="st0" d="M123.2,197.6c-0.3-0.2-0.5-0.4-0.7-0.7c-0.5-0.7-0.3-1.6,0.2-2.1c0.4-0.3,0.9-0.5,1.4-0.5s1,0.1,1.4,0.5
	c0.3,0.3,0.5,0.8,0.5,1.2c0,0.3-0.1,0.7-0.3,0.9c-0.2,0.3-0.4,0.5-0.7,0.7c0.7,0.3,1.2,1,1.3,1.8c0,0.6-0.2,1.1-0.6,1.5
	s-1,0.6-1.6,0.5c-1.4,0-2.1-0.7-2.1-2c0-0.4,0.1-0.8,0.4-1.1C122.5,198.1,122.8,197.8,123.2,197.6z M123.9,198c-0.6,0.3-1,0.9-1,1.5
	c0,0.3,0.1,0.6,0.3,0.9c0.2,0.2,0.5,0.4,0.8,0.3c0.6,0,1.2-0.4,1.2-1.1v-0.1c0-0.3-0.1-0.5-0.2-0.7
	C124.7,198.5,124.3,198.2,123.9,198z M124.3,197.3c0.4-0.3,0.6-0.8,0.6-1.3c0-0.2-0.1-0.5-0.3-0.6c-0.2-0.2-0.4-0.2-0.7-0.2
	c-0.6,0-0.9,0.3-0.9,0.9C123.1,196.5,123.5,196.9,124.3,197.3L124.3,197.3z"/>
</svg>
