<svg id="Layer_1" data-name="Layer 1" xmlns="http://www.w3.org/2000/svg" viewBox="0 0 345.51 348.36"><defs><style>.cls-1,.cls-2{fill:#e0af75;}.cls-2{fill-rule:evenodd;}</style></defs><path class="cls-1" d="M18.32,313.61a.29.29,0,0,1,.08.18c0,.35-.12.53-.35.53a.76.76,0,0,1-.53-.27c-.47-.65-1.41-1-2.83-1a10.61,10.61,0,0,0-2.74.4,16.92,16.92,0,0,0-2.83,1,10.21,10.21,0,0,0-2.21,1.37A2.08,2.08,0,0,0,6,317.41a1.84,1.84,0,0,0,.49,1.32,2.93,2.93,0,0,0,1.23.8,8.81,8.81,0,0,0,1.59.4,10.34,10.34,0,0,0,1.64.13,14.72,14.72,0,0,0,4.29-.66,13.1,13.1,0,0,0,3.58-1.64c0-.35-.36-.7-1.06-1.06a23.9,23.9,0,0,0-2.39-1c-.89-.33-1.68-.64-2.39-.93s-1.06-.53-1.06-.71.15-.35.44-.35a8.57,8.57,0,0,1,1.46.26c.74.18,1.52.4,2.34.67a19.72,19.72,0,0,1,2.3.88,5.14,5.14,0,0,1,1.42.84,2.08,2.08,0,0,1,.22.93c0,.44,0,.72,0,.84A2.55,2.55,0,0,1,19,319.49a10.6,10.6,0,0,1-2.48,1.14,19,19,0,0,1-3.18.76,23.21,23.21,0,0,1-3.4.26,7,7,0,0,1-4.07-1.1,3.17,3.17,0,0,1-1.59-2.61,3.84,3.84,0,0,1,1.15-2.83A8.31,8.31,0,0,1,8.2,313.3a16.18,16.18,0,0,1,3.4-1,17.89,17.89,0,0,1,3.09-.31,6,6,0,0,1,2,.31A3.39,3.39,0,0,1,18.32,313.61Z" transform="translate(-2.91 -2.44)"/><path class="cls-1" d="M34.49,315.11c-.06-.47-.12-.85-.18-1.15a5.86,5.86,0,0,0-.26-.88,3.14,3.14,0,0,1-.27-.8.39.39,0,0,1,.44-.44c.42,0,.75.35,1,1.06a22.68,22.68,0,0,1,.75,2.39c.24.88.43,1.77.58,2.65a7.48,7.48,0,0,0,.48,1.86c.18-.36.43-.83.75-1.42s.67-1.18,1-1.77a13.83,13.83,0,0,1,1-1.5c.32-.41.54-.62.66-.62s.35.15.35.44a5.49,5.49,0,0,1-.53,2,19.6,19.6,0,0,1-1.24,2.52c-.47.83-.92,1.56-1.37,2.21s-.75,1-.92,1c-.42,0-.74-.31-1-.92a14.75,14.75,0,0,1-.61-2.17c-.18-.82-.33-1.65-.45-2.47S34.55,315.58,34.49,315.11Z" transform="translate(-2.91 -2.44)"/><path class="cls-1" d="M40,317.85a.51.51,0,0,1-.09-.35.39.39,0,0,1,.44-.44,2,2,0,0,1,.89.26,2.65,2.65,0,0,0,1.23.27,6.55,6.55,0,0,0,1.59-.23q.88-.21,1.86-.48a17.44,17.44,0,0,1,3-4.16,4.87,4.87,0,0,1,3.36-1.67,2.27,2.27,0,0,1,1.15.35,1.22,1.22,0,0,1,.62,1.15q0,1.77-2.16,3.09a25.73,25.73,0,0,1-5,2.3,3.15,3.15,0,0,0-.53,1.77c0,1.18.83,1.76,2.48,1.76a10.76,10.76,0,0,0,2.78-.39l2.08-.58,3.53-1.24h.09c.3,0,.44.15.44.45s-.36.53-1.1.88a24.35,24.35,0,0,1-2.56,1c-1,.32-2,.6-2.92.84a10.58,10.58,0,0,1-2.26.35,5.57,5.57,0,0,1-3.18-.66,2.23,2.23,0,0,1-.88-1.9,4.48,4.48,0,0,1,.09-.89,7.91,7.91,0,0,1,.26-1,12,12,0,0,1-2.38.27A4.84,4.84,0,0,1,40,317.85Zm10.6-4.33A17.51,17.51,0,0,0,48,316.08l1.68-.79a7.29,7.29,0,0,0,1.46-1.2c.2-.26.57-.72,1.1-1.37h-.08c-.06,0-.09,0-.09,0s0,0-.09,0A2.43,2.43,0,0,0,50.57,313.52Zm1.86-.71.09.09Z" transform="translate(-2.91 -2.44)"/><path class="cls-1" d="M59,312.28c0-.29.12-.44.35-.44s.49.18.75.53a6.1,6.1,0,0,1,.71,1.24,13.48,13.48,0,0,1,.53,1.41,11.63,11.63,0,0,1,.31,1.15,14.57,14.57,0,0,1,5.92-7.25l.18-.08h.09a.31.31,0,0,1,.35.35.62.62,0,0,1-.17.44,13.8,13.8,0,0,0-3.94,4.95A13,13,0,0,0,63,319.8a10.9,10.9,0,0,0,.13,1.67,11.71,11.71,0,0,1,.13,1.77c0,.65-.29,1-.88,1a1,1,0,0,1-.44-.13.7.7,0,0,1-.36-.48c-.35-2-.65-4-.88-6.06A11.78,11.78,0,0,0,59,312.46Z" transform="translate(-2.91 -2.44)"/><path class="cls-1" d="M75.94,312.9c.29-.06.57-.1.84-.13s.54-.07.84-.13q-.62-4.06-1.11-8.09t-.66-8.18c-.12-.7-.23-1.91-.35-3.62s-.18-3.45-.18-5.22c0-.82,0-1.65.09-2.47s.15-1.56.26-2.21a5.19,5.19,0,0,1,.53-1.59,1,1,0,0,1,.89-.62,1.7,1.7,0,0,1,1.32.88,11.33,11.33,0,0,1,1.15,2.12c.36.83.68,1.67,1,2.52s.53,1.49.7,1.9q2,4.33,3.63,8.8a26.36,26.36,0,0,1,1.59,8.88,17.25,17.25,0,0,1-4.78,12L80,319.53a34.83,34.83,0,0,0,2.82,9.28,19.75,19.75,0,0,0,6.46,7.34.51.51,0,0,1,.17.35c0,.3-.17.44-.53.44h-.35a23.93,23.93,0,0,1-3.89-3.49A19,19,0,0,1,82,329.56a27.31,27.31,0,0,1-1.77-4.33q-.7-2.25-1.24-4.82a9.5,9.5,0,0,1-2.16,1.33,6.22,6.22,0,0,1-2.52.53,4.76,4.76,0,0,1-2.87-.93,2.87,2.87,0,0,1-1.29-2.43,4.41,4.41,0,0,1,.53-2.12,6.5,6.5,0,0,1,1.37-1.72A11,11,0,0,1,74,313.74,9,9,0,0,1,75.94,312.9ZM78.15,316a5.77,5.77,0,0,1-.22-1.19c0-.38-.08-.78-.13-1.19a8.6,8.6,0,0,0-2.08.48,9.41,9.41,0,0,0-2,1,5.83,5.83,0,0,0-1.55,1.5,3.22,3.22,0,0,0-.62,1.86,2.35,2.35,0,0,0,.8,1.86,2.93,2.93,0,0,0,2,.7,4.61,4.61,0,0,0,2.3-.66,16.2,16.2,0,0,0,2.12-1.46Zm2.92-1.14c0,.29-.18.44-.53.44-.18,0-.39-.25-.62-.75a1.73,1.73,0,0,0-.8-.93l.53,4.33,1.06-1.06a16.19,16.19,0,0,0,3.14-5.3,17.54,17.54,0,0,0,.93-5.66,25.72,25.72,0,0,0-1.59-8.75,89.9,89.9,0,0,0-3.54-8.49,15.48,15.48,0,0,1-1-2.52,13.29,13.29,0,0,0-1.15-2.69,35.68,35.68,0,0,0-.35,3.62q-.09,1.77-.09,3.54a83.59,83.59,0,0,0,.53,9.41c.35,3.09.71,6.23,1.06,9.41l.35,3.27c.89.12,1.56.77,2,1.95Z" transform="translate(-2.91 -2.44)"/><path class="cls-1" d="M98.39,313.87q0,.45-.36.45c-.29,0-.61-.23-1-.67a1.8,1.8,0,0,0-1.5-.66,5.72,5.72,0,0,0-2.08.44,9.76,9.76,0,0,0-2.07,1.15,7.12,7.12,0,0,0-1.59,1.55,2.71,2.71,0,0,0-.62,1.63c0,.36.08.56.26.62a1.93,1.93,0,0,0,.62.09,5.57,5.57,0,0,0,1.72-.27c.56-.17,1.08-.32,1.55-.44a11.69,11.69,0,0,1,3-.53,1.9,1.9,0,0,1,1.54.49,2.35,2.35,0,0,1,.49,1.28c.06.53.1,1.12.13,1.77a4.43,4.43,0,0,0,.49,1.85.37.37,0,0,1,.09.27c0,.35-.12.53-.36.53s-.6-.25-.75-.75a11.79,11.79,0,0,1-.35-1.68,8.63,8.63,0,0,0-.4-1.68c-.18-.5-.47-.75-.88-.75a4.72,4.72,0,0,0-1.42.26c-.53.18-1.09.36-1.68.53s-1.19.36-1.81.53a6.18,6.18,0,0,1-1.72.27,3,3,0,0,1-1.59-.44,1.92,1.92,0,0,1-.71-1.77,3.94,3.94,0,0,1,.75-2.25,7.8,7.8,0,0,1,1.9-1.95,10.64,10.64,0,0,1,2.56-1.37,7.71,7.71,0,0,1,2.66-.53,3.9,3.9,0,0,1,1.81.44,2.9,2.9,0,0,1,1.28,1.51Z" transform="translate(-2.91 -2.44)"/><path class="cls-1" d="M106.43,312.9c.3-.06.58-.1.84-.13s.55-.07.84-.13q-.61-4.06-1.1-8.09t-.67-8.18c-.12-.7-.23-1.91-.35-3.62s-.18-3.45-.18-5.22c0-.82,0-1.65.09-2.47a20.25,20.25,0,0,1,.27-2.21,4.71,4.71,0,0,1,.53-1.59,1,1,0,0,1,.88-.62,1.73,1.73,0,0,1,1.33.88,12.61,12.61,0,0,1,1.15,2.12c.35.83.67,1.67,1,2.52s.53,1.49.7,1.9q2,4.33,3.63,8.8a26.36,26.36,0,0,1,1.59,8.88,17.3,17.3,0,0,1-4.77,12l-1.68,1.77a34.83,34.83,0,0,0,2.83,9.28,19.63,19.63,0,0,0,6.45,7.34.47.47,0,0,1,.17.35c0,.3-.17.44-.53.44h-.35a23.93,23.93,0,0,1-3.89-3.49,19,19,0,0,1-2.65-3.89,27.31,27.31,0,0,1-1.77-4.33,49,49,0,0,1-1.23-4.82,9.36,9.36,0,0,1-2.17,1.33,6.22,6.22,0,0,1-2.52.53,4.76,4.76,0,0,1-2.87-.93,2.86,2.86,0,0,1-1.28-2.43,4.3,4.3,0,0,1,.53-2.12,6.3,6.3,0,0,1,1.37-1.72,10.89,10.89,0,0,1,1.85-1.33A9,9,0,0,1,106.43,312.9Zm2.21,3.09a5.77,5.77,0,0,1-.22-1.19c0-.38-.07-.78-.13-1.19a8.71,8.71,0,0,0-2.08.48,9.64,9.64,0,0,0-2,1,5.83,5.83,0,0,0-1.55,1.5,3.22,3.22,0,0,0-.62,1.86,2.38,2.38,0,0,0,.8,1.86,2.93,2.93,0,0,0,2,.7,4.59,4.59,0,0,0,2.3-.66,16.2,16.2,0,0,0,2.12-1.46Zm2.92-1.14c0,.29-.18.44-.53.44-.18,0-.39-.25-.62-.75a1.73,1.73,0,0,0-.8-.93l.53,4.33,1.06-1.06a16,16,0,0,0,3.14-5.3,17.54,17.54,0,0,0,.93-5.66,25.72,25.72,0,0,0-1.59-8.75,89.9,89.9,0,0,0-3.54-8.49,16.46,16.46,0,0,1-1-2.52,12.75,12.75,0,0,0-1.15-2.69c-.17,1.24-.29,2.44-.35,3.62s-.09,2.36-.09,3.54a83.59,83.59,0,0,0,.53,9.41c.35,3.09.71,6.23,1.06,9.41l.36,3.27c.88.12,1.56.77,2,1.95Z" transform="translate(-2.91 -2.44)"/><path class="cls-1" d="M115.36,317.85a.51.51,0,0,1-.09-.35.39.39,0,0,1,.44-.44,2,2,0,0,1,.88.26,2.73,2.73,0,0,0,1.24.27,6.55,6.55,0,0,0,1.59-.23q.89-.21,1.86-.48a17.44,17.44,0,0,1,3-4.16,4.87,4.87,0,0,1,3.36-1.67,2.27,2.27,0,0,1,1.15.35,1.22,1.22,0,0,1,.62,1.15q0,1.77-2.16,3.09a25.73,25.73,0,0,1-5,2.3,3.15,3.15,0,0,0-.53,1.77c0,1.18.83,1.76,2.48,1.76a10.76,10.76,0,0,0,2.78-.39l2.08-.58,3.53-1.24h.09c.3,0,.44.15.44.45s-.37.53-1.1.88a24.35,24.35,0,0,1-2.56,1c-1,.32-2,.6-2.92.84a10.67,10.67,0,0,1-2.26.35,5.57,5.57,0,0,1-3.18-.66,2.23,2.23,0,0,1-.88-1.9,4.48,4.48,0,0,1,.09-.89,7.91,7.91,0,0,1,.26-1,12,12,0,0,1-2.38.27A4.84,4.84,0,0,1,115.36,317.85Zm10.6-4.33a17.51,17.51,0,0,0-2.56,2.56l1.68-.79a7.62,7.62,0,0,0,1.46-1.2c.2-.26.57-.72,1.1-1.37h-.09s-.08,0-.08,0,0,0-.09,0A2.4,2.4,0,0,0,126,313.52Zm1.86-.71.09.09Z" transform="translate(-2.91 -2.44)"/><path class="cls-1" d="M137,309.9c-.17.17-.29.26-.35.26a.47.47,0,0,1-.53-.53v-.18c-.41-.17-.62-.41-.62-.7a1.22,1.22,0,0,1,.26-.71.84.84,0,0,1,.71-.35,1.4,1.4,0,0,1,.62.31c.29.2.44.39.44.57s-.15.32-.44.62q.09,0,.09.18a.79.79,0,0,1-.09.35Zm-1.24,3.62a.52.52,0,0,1-.17-.35c0-.3.17-.45.53-.45a.91.91,0,0,1,.75.45,3.79,3.79,0,0,1,.49,1,9,9,0,0,1,.26,1.24,8.93,8.93,0,0,1,.09,1.19,20,20,0,0,1-.18,2.61c-.12.91-.26,1.78-.44,2.61a19.84,19.84,0,0,1-.53,2c-.18.53-.35.8-.53.8s-.46-.27-.49-.8,0-1,0-1.41a30.36,30.36,0,0,1,.18-3.32c.11-1.09.23-2.19.35-3.31v.44a6.37,6.37,0,0,0,.09-1.33,3.86,3.86,0,0,0-.09-.84A1.17,1.17,0,0,0,135.77,313.52Z" transform="translate(-2.91 -2.44)"/><path class="cls-1" d="M139.93,312.28c0-.29.11-.44.35-.44s.49.18.75.53a6.1,6.1,0,0,1,.71,1.24,13.48,13.48,0,0,1,.53,1.41,11.63,11.63,0,0,1,.31,1.15q1.32-4.07,5.92-7.25l.18-.08h.09a.31.31,0,0,1,.35.35.59.59,0,0,1-.18.44,13.87,13.87,0,0,0-3.93,4.95,13,13,0,0,0-1.1,5.22,10.9,10.9,0,0,0,.13,1.67,11.71,11.71,0,0,1,.13,1.77c0,.65-.3,1-.88,1a1,1,0,0,1-.45-.13.72.72,0,0,1-.35-.48c-.35-2-.65-4-.88-6.06a11.78,11.78,0,0,0-1.68-5.08Z" transform="translate(-2.91 -2.44)"/><path class="cls-1" d="M164.5,313.61a.26.26,0,0,1,.09.18c0,.35-.12.53-.36.53a.78.78,0,0,1-.53-.27c-.47-.65-1.41-1-2.83-1a10.67,10.67,0,0,0-2.74.4,16.49,16.49,0,0,0-2.82,1,9.75,9.75,0,0,0-2.21,1.37,2.1,2.1,0,0,0-.89,1.55,1.84,1.84,0,0,0,.49,1.32,2.9,2.9,0,0,0,1.24.8,8.81,8.81,0,0,0,1.59.4,10.22,10.22,0,0,0,1.63.13,14.67,14.67,0,0,0,4.29-.66,13.1,13.1,0,0,0,3.58-1.64c0-.35-.36-.7-1.06-1.06a23.9,23.9,0,0,0-2.39-1c-.88-.33-1.68-.64-2.39-.93s-1.06-.53-1.06-.71.15-.35.45-.35A8.52,8.52,0,0,1,160,314c.74.18,1.52.4,2.35.67a20.26,20.26,0,0,1,2.29.88,5.14,5.14,0,0,1,1.42.84,2,2,0,0,1,.22.93c0,.44,0,.72,0,.84a2.51,2.51,0,0,1-1.19,1.37,10.71,10.71,0,0,1-2.47,1.14,19.36,19.36,0,0,1-3.19.76,23.21,23.21,0,0,1-3.4.26,7.05,7.05,0,0,1-4.07-1.1,3.17,3.17,0,0,1-1.59-2.61,3.88,3.88,0,0,1,1.15-2.83,8.41,8.41,0,0,1,2.79-1.81,16.36,16.36,0,0,1,3.4-1,17.89,17.89,0,0,1,3.09-.31,6.08,6.08,0,0,1,2,.31A3.37,3.37,0,0,1,164.5,313.61Z" transform="translate(-2.91 -2.44)"/><path class="cls-1" d="M187,311.4a.17.17,0,0,0,.05.13.18.18,0,0,1,0,.13c0,.24-.14.36-.44.36s-.35,0-.35-.09a4.7,4.7,0,0,0-1.06.18,8.76,8.76,0,0,0-1.37.44,5.14,5.14,0,0,0-1.2.66,1.17,1.17,0,0,0-.53.93,1.27,1.27,0,0,0,.8,1.19c.53.27,1.12.53,1.77.8a6.12,6.12,0,0,1,1.76,1.1,2.69,2.69,0,0,1,.8,2.12,2.46,2.46,0,0,1-.71,1.73,6.3,6.3,0,0,1-1.77,1.28,9.2,9.2,0,0,1-2.34.79,18.65,18.65,0,0,1-2.52.36.48.48,0,0,1-.35-.53.32.32,0,0,1,.35-.36,8.15,8.15,0,0,0,2.21-.48,10.75,10.75,0,0,0,1.86-.89,5.77,5.77,0,0,0,1.28-1,1.53,1.53,0,0,0,.49-.89,1.47,1.47,0,0,0-.8-1.15c-.53-.35-1.13-.7-1.81-1.06a11,11,0,0,1-1.81-1.15,1.77,1.77,0,0,1-.8-1.41,2.38,2.38,0,0,1,.49-1.46,5,5,0,0,1,1.24-1.19,6.8,6.8,0,0,1,1.63-.84,4.79,4.79,0,0,1,1.59-.31A1.71,1.71,0,0,1,187,311.4Z" transform="translate(-2.91 -2.44)"/><path class="cls-1" d="M200.2,313.87c0,.3-.12.45-.35.45s-.62-.23-1-.67a1.84,1.84,0,0,0-1.51-.66,5.67,5.67,0,0,0-2.07.44,9.83,9.83,0,0,0-2.08,1.15,7.12,7.12,0,0,0-1.59,1.55,2.78,2.78,0,0,0-.62,1.63c0,.36.09.56.27.62a1.89,1.89,0,0,0,.62.09,5.62,5.62,0,0,0,1.72-.27c.56-.17,1.07-.32,1.55-.44a11.55,11.55,0,0,1,3-.53,1.93,1.93,0,0,1,1.55.49,2.42,2.42,0,0,1,.48,1.28c.06.53.11,1.12.14,1.77a4.57,4.57,0,0,0,.48,1.85.37.37,0,0,1,.09.27c0,.35-.12.53-.35.53s-.61-.25-.75-.75a11.73,11.73,0,0,1-.36-1.68,8.63,8.63,0,0,0-.4-1.68.93.93,0,0,0-.88-.75,4.71,4.71,0,0,0-1.41.26c-.53.18-1.09.36-1.68.53l-1.81.53a6.25,6.25,0,0,1-1.73.27,3,3,0,0,1-1.59-.44,2,2,0,0,1-.71-1.77,3.94,3.94,0,0,1,.75-2.25,7.85,7.85,0,0,1,1.91-1.95,10.45,10.45,0,0,1,2.56-1.37,7.61,7.61,0,0,1,2.65-.53,3.87,3.87,0,0,1,1.81.44,2.85,2.85,0,0,1,1.28,1.51Z" transform="translate(-2.91 -2.44)"/><path class="cls-1" d="M204.27,286.83c.12-.89.31-2.08.57-3.58s.59-3,1-4.42a16.12,16.12,0,0,1,1.45-3.76,2.53,2.53,0,0,1,2.13-1.59c1,0,1.95.66,2.87,2a22.56,22.56,0,0,1,2.43,4.82,40.43,40.43,0,0,1,1.72,6,27,27,0,0,1,.66,5.44,22.22,22.22,0,0,1-3,11.44,23.07,23.07,0,0,1-9.32,8.53,4.18,4.18,0,0,0,.09,1c.06.23.1.44.13.61s.07.39.13.62a3.7,3.7,0,0,1,.09.89v.79a8.9,8.9,0,0,1,3-1.32,14.35,14.35,0,0,1,3.94-.53,12,12,0,0,1,1.72.13,9.17,9.17,0,0,1,1.77.44A5.46,5.46,0,0,1,217,315a1.14,1.14,0,0,1,.53.93l-.18.35a9.52,9.52,0,0,1-2.08,2,28.58,28.58,0,0,1-2.91,1.9,17.42,17.42,0,0,1-3.14,1.41,8.93,8.93,0,0,1-2.83.53c-.59,0-.88-.14-.88-.44a.39.39,0,0,1,.44-.44h.17a7,7,0,0,0,2.39-.58,25,25,0,0,0,3.05-1.41,29.21,29.21,0,0,0,2.87-1.77,7.56,7.56,0,0,0,1.77-1.54c-.47-.71-1.62-1.06-3.45-1.06a19.06,19.06,0,0,0-4.46.53,6.57,6.57,0,0,0-3,1.23,3.33,3.33,0,0,0-.27,1.59c0,.18,0,.43.05.76s0,.66,0,1a17.2,17.2,0,0,1-.22,2.61c-.15,1-.51,1.46-1.1,1.46a.76.76,0,0,1-.75-.44,3.22,3.22,0,0,1-.31-1.06,6.11,6.11,0,0,1-.05-1.29c0-.44.05-.78.05-1a21.72,21.72,0,0,1,.22-3.36,25.3,25.3,0,0,0,.22-3.63v-.88a2,2,0,0,1-1.06.27.68.68,0,0,1-.31-.18.54.54,0,0,1-.22-.44.82.82,0,0,1,.62-.62.54.54,0,0,1,.44.26c.23,0,.38-.05.44-.17,0-.71,0-1.43,0-2.17s-.05-1.46-.05-2.16q0-4.95.31-10.08C203.55,293.66,203.86,290.25,204.27,286.83Zm2,22.36a20.68,20.68,0,0,0,7.16-8.31,24.29,24.29,0,0,0,2.39-10.52,24.67,24.67,0,0,0-1.55-8.66,21,21,0,0,0-4.64-7.34,11.77,11.77,0,0,0-3,5.84q-.57,3.18-1,6.72-.44,4.68-.66,9.28t-.22,9.28v4.77Z" transform="translate(-2.91 -2.44)"/><path class="cls-1" d="M232.91,313.61a.29.29,0,0,1,.08.18c0,.35-.12.53-.35.53a.76.76,0,0,1-.53-.27c-.47-.65-1.41-1-2.83-1a10.61,10.61,0,0,0-2.74.4,16.92,16.92,0,0,0-2.83,1,10.21,10.21,0,0,0-2.21,1.37,2.08,2.08,0,0,0-.88,1.55,1.84,1.84,0,0,0,.49,1.32,2.93,2.93,0,0,0,1.23.8,8.81,8.81,0,0,0,1.59.4,10.34,10.34,0,0,0,1.64.13,14.72,14.72,0,0,0,4.29-.66,13.1,13.1,0,0,0,3.58-1.64c0-.35-.36-.7-1.07-1.06a22.72,22.72,0,0,0-2.38-1c-.89-.33-1.68-.64-2.39-.93s-1.06-.53-1.06-.71.15-.35.44-.35a8.57,8.57,0,0,1,1.46.26c.74.18,1.52.4,2.34.67a20.44,20.44,0,0,1,2.3.88,5.14,5.14,0,0,1,1.42.84,2.08,2.08,0,0,1,.22.93c0,.44,0,.72,0,.84a2.59,2.59,0,0,1-1.19,1.37,10.6,10.6,0,0,1-2.48,1.14,19,19,0,0,1-3.18.76,23.21,23.21,0,0,1-3.4.26,7,7,0,0,1-4.07-1.1,3.17,3.17,0,0,1-1.59-2.61,3.84,3.84,0,0,1,1.15-2.83,8.36,8.36,0,0,1,2.78-1.81,16.45,16.45,0,0,1,3.41-1,17.89,17.89,0,0,1,3.09-.31,6,6,0,0,1,2,.31A3.39,3.39,0,0,1,232.91,313.61Z" transform="translate(-2.91 -2.44)"/><path class="cls-1" d="M236.79,312.28c0-.29.12-.44.36-.44s.48.18.75.53a6.61,6.61,0,0,1,.71,1.24c.2.47.38.94.53,1.41s.25.86.31,1.15a14.47,14.47,0,0,1,5.92-7.25l.17-.08h.09c.24,0,.36.11.36.35a.59.59,0,0,1-.18.44,13.66,13.66,0,0,0-3.93,4.95,13,13,0,0,0-1.11,5.22,12.33,12.33,0,0,0,.13,1.67,11.73,11.73,0,0,1,.14,1.77c0,.65-.3,1-.89,1a1,1,0,0,1-.44-.13.66.66,0,0,1-.35-.48c-.36-2-.65-4-.89-6.06a11.52,11.52,0,0,0-1.68-5.08Z" transform="translate(-2.91 -2.44)"/><path class="cls-1" d="M257.56,311.75a.17.17,0,0,0,0-.13.33.33,0,0,1,0-.22c0-.24.18-.35.53-.35a.41.41,0,0,1,.27.08,14.87,14.87,0,0,1,2.12,3.1,16.66,16.66,0,0,1,1.24,3.36,8.41,8.41,0,0,1,.88-1.64,15.5,15.5,0,0,1,1.37-1.77,8.65,8.65,0,0,1,1.59-1.41,3,3,0,0,1,1.64-.58,1.81,1.81,0,0,1,1.55.67,4.42,4.42,0,0,1,.7,1.63,9,9,0,0,1,.22,2,8.5,8.5,0,0,0,.18,1.86l2.83-2.16a3,3,0,0,1,1.59-.76q.44,0,.84,1.2a13.84,13.84,0,0,1,.4,3.93c0,.24-.15.35-.44.35s-.33-.17-.45-.53a4.75,4.75,0,0,1-.22-1.23c0-.47-.07-.95-.13-1.42a4.76,4.76,0,0,0-.27-1.15c-.29.24-.66.58-1.1,1a10.74,10.74,0,0,1-1,.93,9.93,9.93,0,0,1-1.5,1.19,1.92,1.92,0,0,1-1,.31.87.87,0,0,1-.89-.8,15.7,15.7,0,0,1-.26-1.81c-.06-.67-.15-1.34-.27-2a2.36,2.36,0,0,0-.7-1.41,3,3,0,0,0-2.08,1,9.12,9.12,0,0,0-1.46,2.21,16.27,16.27,0,0,0-1,2.65,23.16,23.16,0,0,0-.58,2.34v.27h-.18a.76.76,0,0,1-.61.35.65.65,0,0,1-.71-.62v-.18a28.94,28.94,0,0,0-.49-5.48A10.19,10.19,0,0,0,257.56,311.75Z" transform="translate(-2.91 -2.44)"/><path class="cls-1" d="M279.92,309.9c-.17.17-.29.26-.35.26a.47.47,0,0,1-.53-.53v-.18c-.41-.17-.62-.41-.62-.7a1.17,1.17,0,0,1,.27-.71.81.81,0,0,1,.7-.35,1.36,1.36,0,0,1,.62.31c.3.2.44.39.44.57s-.14.32-.44.62q.09,0,.09.18a.79.79,0,0,1-.09.35Zm-1.23,3.62a.5.5,0,0,1-.18-.35c0-.3.18-.45.53-.45a.91.91,0,0,1,.75.45,3.51,3.51,0,0,1,.49,1,9,9,0,0,1,.26,1.24,8.93,8.93,0,0,1,.09,1.19,20,20,0,0,1-.18,2.61c-.12.91-.26,1.78-.44,2.61a19.84,19.84,0,0,1-.53,2c-.18.53-.35.8-.53.8s-.46-.27-.49-.8,0-1,0-1.41a30.36,30.36,0,0,1,.18-3.32c.11-1.09.23-2.19.35-3.31v.44a6.37,6.37,0,0,0,.09-1.33,3.86,3.86,0,0,0-.09-.84A1.26,1.26,0,0,0,278.69,313.52Z" transform="translate(-2.91 -2.44)"/><path class="cls-1" d="M283.55,312.72c-.12-.11-.18-.2-.18-.26,0-.35.15-.53.44-.53.53,0,1,.37,1.33,1.1a14.39,14.39,0,0,1,.88,2.48,22.4,22.4,0,0,1,.53,2.69,11.17,11.17,0,0,0,.36,1.86,5.63,5.63,0,0,0,1.37-1.59c.38-.65.78-1.28,1.19-1.9a13.15,13.15,0,0,1,1.28-1.64,2.25,2.25,0,0,1,1.72-.7,3.26,3.26,0,0,1,3.1,1.54,23.63,23.63,0,0,1,1.5,3.14,11.88,11.88,0,0,0,.62,1.59,4,4,0,0,0,.44.89.31.31,0,0,1-.35.35h-.36a4.08,4.08,0,0,1-1.1-1.59c-.27-.65-.53-1.28-.8-1.9a5.34,5.34,0,0,0-1-1.59,2.34,2.34,0,0,0-1.77-.67,2,2,0,0,0-1.46.67,9.34,9.34,0,0,0-1.28,1.63c-.41.65-.86,1.33-1.33,2a7.75,7.75,0,0,1-1.59,1.76h-.44c-.71,0-1.16-.41-1.37-1.23a17.74,17.74,0,0,1-.44-2.83c-.09-1.06-.19-2.11-.31-3.14A3.1,3.1,0,0,0,283.55,312.72Z" transform="translate(-2.91 -2.44)"/><path class="cls-1" d="M297.42,317.85a.51.51,0,0,1-.09-.35c0-.3.15-.44.45-.44a2,2,0,0,1,.88.26,2.7,2.7,0,0,0,1.24.27,6.55,6.55,0,0,0,1.59-.23c.59-.14,1.2-.3,1.85-.48a17.74,17.74,0,0,1,3-4.16,4.87,4.87,0,0,1,3.36-1.67,2.33,2.33,0,0,1,1.15.35,1.22,1.22,0,0,1,.62,1.15c0,1.18-.73,2.21-2.17,3.09a25.63,25.63,0,0,1-5,2.3,3.08,3.08,0,0,0-.54,1.77c0,1.18.83,1.76,2.48,1.76a10.76,10.76,0,0,0,2.78-.39l2.08-.58,3.54-1.24h.08a.4.4,0,0,1,.45.45c0,.23-.37.53-1.11.88a24.35,24.35,0,0,1-2.56,1c-1,.32-1.95.6-2.92.84a10.6,10.6,0,0,1-2.25.35,5.55,5.55,0,0,1-3.18-.66,2.24,2.24,0,0,1-.89-1.9,4.48,4.48,0,0,1,.09-.89,8.08,8.08,0,0,1,.27-1,12.14,12.14,0,0,1-2.39.27A4.87,4.87,0,0,1,297.42,317.85ZM308,313.52a17.51,17.51,0,0,0-2.57,2.56l1.68-.79a7,7,0,0,0,1.46-1.2l1.11-1.37h-.09c-.06,0-.09,0-.09,0s0,0-.09,0A2.41,2.41,0,0,0,308,313.52Zm1.85-.71.09.09Z" transform="translate(-2.91 -2.44)"/><path class="cls-1" d="M319.08,309.9c-.18.17-.3.26-.36.26a.47.47,0,0,1-.53-.53v-.18c-.41-.17-.62-.41-.62-.7a1.17,1.17,0,0,1,.27-.71.83.83,0,0,1,.71-.35,1.38,1.38,0,0,1,.61.31q.45.3.45.57c0,.12-.15.32-.45.62q.09,0,.09.18a.79.79,0,0,1-.09.35Zm-1.24,3.62a.5.5,0,0,1-.18-.35c0-.3.18-.45.53-.45a.88.88,0,0,1,.75.45,3.51,3.51,0,0,1,.49,1,6.8,6.8,0,0,1,.26,1.24,8.93,8.93,0,0,1,.09,1.19,21.81,21.81,0,0,1-.17,2.61q-.18,1.36-.45,2.61a17.53,17.53,0,0,1-.53,2c-.17.53-.35.8-.53.8s-.45-.27-.48-.8-.05-1-.05-1.41a30.36,30.36,0,0,1,.18-3.32c.12-1.09.24-2.19.35-3.31v.44a6.37,6.37,0,0,0,.09-1.33,3.86,3.86,0,0,0-.09-.84A1.17,1.17,0,0,0,317.84,313.52Z" transform="translate(-2.91 -2.44)"/><path class="cls-1" d="M322,312.28c0-.29.12-.44.36-.44s.48.18.75.53a6.09,6.09,0,0,1,.7,1.24,14,14,0,0,1,.84,2.56,14.54,14.54,0,0,1,5.93-7.25l.17-.08h.09a.3.3,0,0,1,.35.35.62.62,0,0,1-.17.44,13.8,13.8,0,0,0-3.94,4.95,13.19,13.19,0,0,0-1.1,5.22,10.9,10.9,0,0,0,.13,1.67,11.71,11.71,0,0,1,.13,1.77c0,.65-.29,1-.88,1a1,1,0,0,1-.44-.13.7.7,0,0,1-.36-.48q-.53-3-.88-6.06a11.65,11.65,0,0,0-1.68-5.08Z" transform="translate(-2.91 -2.44)"/><path class="cls-1" d="M346.56,313.61a.26.26,0,0,1,.09.18c0,.35-.12.53-.35.53a.74.74,0,0,1-.53-.27c-.48-.65-1.42-1-2.83-1a10.55,10.55,0,0,0-2.74.4,16.6,16.6,0,0,0-2.83,1,10.21,10.21,0,0,0-2.21,1.37,2.08,2.08,0,0,0-.88,1.55,1.88,1.88,0,0,0,.48,1.32,3,3,0,0,0,1.24.8,8.81,8.81,0,0,0,1.59.4,10.34,10.34,0,0,0,1.64.13,14.6,14.6,0,0,0,4.28-.66,12.83,12.83,0,0,0,3.58-1.64c0-.35-.35-.7-1.06-1.06a23.67,23.67,0,0,0-2.38-1c-.89-.33-1.68-.64-2.39-.93s-1.06-.53-1.06-.71.14-.35.44-.35a8.74,8.74,0,0,1,1.46.26c.73.18,1.51.4,2.34.67a21.21,21.21,0,0,1,2.3.88,4.89,4.89,0,0,1,1.41.84,2,2,0,0,1,.22.93c0,.44.05.72.05.84a2.58,2.58,0,0,1-1.2,1.37,10.52,10.52,0,0,1-2.47,1.14,19,19,0,0,1-3.18.76,23.34,23.34,0,0,1-3.41.26,7,7,0,0,1-4.06-1.1,3.17,3.17,0,0,1-1.59-2.61,3.84,3.84,0,0,1,1.15-2.83,8.26,8.26,0,0,1,2.78-1.81,16.36,16.36,0,0,1,3.4-1,17.9,17.9,0,0,1,3.1-.31,6.06,6.06,0,0,1,2,.31A3.33,3.33,0,0,1,346.56,313.61Z" transform="translate(-2.91 -2.44)"/><path class="cls-2" d="M184.67,38.73l.19,0a30.42,30.42,0,0,1,4,.31c.9.11,1.8.2,2.71.3l2.14.26c1.11.11,2.2.35,3.29.55a24.31,24.31,0,0,0,2.42.35h.1a.09.09,0,0,0,.12-.09,2.47,2.47,0,0,1,.34-.78.8.8,0,0,1,.13-.19,4.85,4.85,0,0,0,.61-.82,4.83,4.83,0,0,1,.89-1.12,6.68,6.68,0,0,1,1.08-.82,2.5,2.5,0,0,1,.74-.3c.44-.12.89-.23,1.34-.33s.77-.16,1.16-.23a3.13,3.13,0,0,1,.53,0,4.33,4.33,0,0,1,1.34.23,4,4,0,0,0,.46.14.75.75,0,0,1,.42.32,1.3,1.3,0,0,0,.1.15.47.47,0,0,1,.09.36c0,.1,0,.21,0,.31a2.83,2.83,0,0,1-.59,1.52c-.12.16-.21.33-.31.49a5,5,0,0,1-.37.53,1.81,1.81,0,0,0-.42.84,3.78,3.78,0,0,1-.38,1l-.36.56a.69.69,0,0,0-.07.15c0,.13-.09.27-.15.4a2.11,2.11,0,0,1-.18.27c-.12.18-.25.36-.36.54a.34.34,0,0,0,0,.2,4.43,4.43,0,0,0-.06.51,3,3,0,0,0,0,.42,1.76,1.76,0,0,1-.15.85,3.76,3.76,0,0,0-.28.92,3.12,3.12,0,0,1-.37,1.06,5.43,5.43,0,0,0-.58,1.46,7,7,0,0,1-.4,1.08c-.19.43-.33.87-.54,1.28a3.7,3.7,0,0,1-.64.92,4,4,0,0,0-.72,1,2,2,0,0,1-.38.48L200.3,55l-.55.55a1.3,1.3,0,0,1-.23.18,11.58,11.58,0,0,0-1.14,1,9.88,9.88,0,0,1-1.37,1l-.33.22a6.77,6.77,0,0,1-.92.58c-.2.1-.38.23-.56.34a10.74,10.74,0,0,1-1.7.84c-.49.19-1,.42-1.45.66a5.42,5.42,0,0,1-.9.35l-.16.06.11.11c.51.46,1,.93,1.54,1.37.93.79,1.88,1.56,2.82,2.35s1.7,1.47,2.5,2.26,1.43,1.49,2.16,2.23a10,10,0,0,0,.85.74,1.26,1.26,0,0,0,.58.25.55.55,0,0,1,.18.06.21.21,0,0,1,.07.35l0,.06c.12.24.24.45.35.68a1.63,1.63,0,0,1,.1.93.58.58,0,0,1-.24.39l-.21.14a5.76,5.76,0,0,0-.69.53,2.64,2.64,0,0,1-.74.44,1.94,1.94,0,0,1-.49.1c-.3,0-.6,0-.9,0a1.21,1.21,0,0,1-.89-.56c-.08-.12-.07-.18,0-.27a.1.1,0,0,0,0-.05.47.47,0,0,0-.06-.09c-.16-.19-.32-.37-.49-.55s-.54-.6-.82-.89l-1.16-1.17-1.37-1.31-.9-.79-1.67-1.46c-.44-.37-.9-.73-1.35-1.1-.66-.54-1.3-1.08-1.91-1.67-.32-.3-.67-.58-1-.88s-.72-.65-1.08-1a.29.29,0,0,0-.32-.08c-.18,0-.37.07-.55.12a4.56,4.56,0,0,1-1.22.12l-1.49,0h-.26a2.6,2.6,0,0,0-.56.07,5.19,5.19,0,0,1-1.36.19c-.54,0-1.08,0-1.61,0a11.06,11.06,0,0,0-1.15,0h-.17c-1.08,0-2.16,0-3.24,0-.63,0-1.27,0-1.9,0-.84,0-1.68,0-2.52,0-.57,0-1.14-.06-1.72-.08l-.58,0a12.34,12.34,0,0,1-1.72,0,4.11,4.11,0,0,1-.92-.15,1.85,1.85,0,0,0-.47-.08l-1.7,0h-.72a2.84,2.84,0,0,1-.71-.11L161,61.9a.31.31,0,0,0-.34.1l-.82.76-.91.78c-.35.32-.69.66-1.05,1s-1,.81-1.46,1.21l-1.6,1.35L153,68.66c-.33.3-.64.62-1,.93l-.69.65a15,15,0,0,0-1.24,1.28c-.24.27-.49.52-.74.78a6.19,6.19,0,0,0-.47.55l.06.06a.16.16,0,0,1,0,.24,2.92,2.92,0,0,1-.21.28.77.77,0,0,1-.54.29,5.65,5.65,0,0,1-1.3,0,1.27,1.27,0,0,1-.54-.21,5.28,5.28,0,0,1-.77-.57,3.58,3.58,0,0,0-.45-.31.78.78,0,0,1-.36-.42.24.24,0,0,1,0-.08,1.69,1.69,0,0,1,.13-.94c.1-.21.21-.41.33-.64a.19.19,0,0,0-.05-.08.21.21,0,0,1,.05-.32.5.5,0,0,1,.2-.08,1.48,1.48,0,0,0,.73-.36,13.42,13.42,0,0,0,1.44-1.38c.53-.56,1.06-1.13,1.62-1.66,1.11-1.07,2.29-2.09,3.49-3.07.82-.66,1.64-1.33,2.42-2l.68-.61a2.11,2.11,0,0,0,.15-.15l-.16-.06a3.87,3.87,0,0,1-.92-.32,14,14,0,0,0-1.36-.64l-.7-.28a11.11,11.11,0,0,1-1.44-.78c-.25-.17-.53-.3-.78-.46s-.28-.19-.42-.28l-.67-.44a10.27,10.27,0,0,1-1.41-1.13,9.53,9.53,0,0,0-.93-.75,5.8,5.8,0,0,1-.52-.47c-.11-.1-.2-.22-.31-.33l-1.13-1.13a2,2,0,0,1-.34-.43,3.73,3.73,0,0,0-.73-1,3.5,3.5,0,0,1-.64-.93c-.2-.39-.34-.82-.52-1.22a10.65,10.65,0,0,1-.53-1.53,5,5,0,0,0-.47-1.06,3.22,3.22,0,0,1-.37-1.08,3.79,3.79,0,0,0-.26-.87,1.79,1.79,0,0,1-.17-.91,2.74,2.74,0,0,0,0-.49c0-.12,0-.24,0-.36a.68.68,0,0,0-.13-.39,6.28,6.28,0,0,1-.38-.52c-.09-.17-.15-.36-.23-.53a1.12,1.12,0,0,0-.13-.24l-.37-.62a4.4,4.4,0,0,1-.38-1,1.35,1.35,0,0,0-.31-.56,4.32,4.32,0,0,1-.54-.8,5.65,5.65,0,0,0-.34-.51,3,3,0,0,1-.36-.81,4.08,4.08,0,0,1-.08-.85.23.23,0,0,1,0-.14,1,1,0,0,1,.63-.63c.29-.07.56-.18.85-.25a3.55,3.55,0,0,1,.47-.08,4.2,4.2,0,0,1,1.37,0c.58.14,1.17.24,1.76.38a3.67,3.67,0,0,1,1.49.68c.21.17.43.33.64.51l.29.29a7.63,7.63,0,0,1,.68.93,5.58,5.58,0,0,0,.55.73A2.8,2.8,0,0,1,147,40a1.86,1.86,0,0,1,.16.45c0,.12,0,.14.17.12.53-.06,1.06-.11,1.58-.2,1.06-.18,2.11-.39,3.16-.57.53-.09,1.07-.14,1.6-.2l3.47-.39,2.7-.31a18.24,18.24,0,0,1,2.1-.1h.29l.14,0a.47.47,0,0,0-.09-.1l-.85-.85c-.18-.17-.38-.32-.57-.49l-.27-.23-.78-.62c-.14-.11-.28-.24-.41-.36a.89.89,0,0,0-.55-.28,3.28,3.28,0,0,1-1.13-.38,2.58,2.58,0,0,0-.76-.28,5.76,5.76,0,0,1-1.07-.33,4.84,4.84,0,0,0-.51-.14,1.52,1.52,0,0,1-.54-.19l-.49-.28-.16-.08-.82-.39-.35-.13a9.79,9.79,0,0,1-1.85-.74c-.3-.17-.58-.37-.87-.56a1,1,0,0,0-.36-.17l-.36-.14,0,0a5.92,5.92,0,0,1-.87-.44l-.3-.18a2.61,2.61,0,0,0-.28-.17,1.49,1.49,0,0,1-.45-.34,1.37,1.37,0,0,0-.22-.19,1.69,1.69,0,0,1-.43-.49,2.48,2.48,0,0,0-.19-.26c0-.07-.09-.12-.13-.19s-.24-.4-.37-.6-.19-.27-.27-.41c-.19-.32-.4-.63-.56-1a3,3,0,0,0-.15-.31s0,0,0-.06A4.25,4.25,0,0,1,144.9,26c0-.1,0-.2,0-.31s0-.06,0-.09a11.22,11.22,0,0,1,0-1.16c0-.11,0-.22,0-.32a1.39,1.39,0,0,1,.14-.64c.06-.12.1-.25.15-.37l.16-.36c0-.1.09-.2.14-.3l.17-.34c.06-.12.12-.24.17-.36a1.6,1.6,0,0,1,.36-.49c.11-.1.21-.19.31-.3a1.38,1.38,0,0,1,.49-.37,2.14,2.14,0,0,0,.61-.42,1.27,1.27,0,0,1,.84-.37.48.48,0,0,0,.23-.07,1.34,1.34,0,0,1,.85-.21h.33a1.51,1.51,0,0,1,.52.06h.08c.28,0,.58.05.86.09l.91.17a.16.16,0,0,1,.09,0c.3.15.61.3.91.47l.86.5.09.06c.22.15.44.3.65.46a2.18,2.18,0,0,1,.22.21c.11.12.21.24.32.35.29.3.61.58.88.9a5.09,5.09,0,0,1,.68.92,5.34,5.34,0,0,0,.4.57c0,.06.1.11.14.17a5.48,5.48,0,0,1,.35.49,2.35,2.35,0,0,1,.21.42,2.72,2.72,0,0,0,.33.66c0,.06.07.13.11.2l.19.35c0,.06.07.12.1.19.09.24.18.49.26.74a2.65,2.65,0,0,0,.56,1,1.16,1.16,0,0,1,.16.21l.06.1a4.69,4.69,0,0,1,.56,1l0,.1c.19.31.37.62.57.91a10,10,0,0,0,.94,1.21,3,3,0,0,0,.25.25,9.77,9.77,0,0,1,1.15,1.17,1.45,1.45,0,0,1,.22.38.26.26,0,0,1,0,.17c0,.12,0,.19.1.26l1.61,1.43c.26.23.54.43.82.64a4.45,4.45,0,0,1,.78.72,7.11,7.11,0,0,0,.9.84c.16.14.32.26.49.39a.36.36,0,0,0,.17.07H170a1,1,0,0,1,.24,0c.46.07.92,0,1.38.06.26,0,.53,0,.79,0h1l.84,0h1.63l.71,0h.11l.77,0h.79l.29,0a.33.33,0,0,0,.22-.05l1.23-1a5.14,5.14,0,0,0,.38-.42,5.15,5.15,0,0,1,.76-.64,16.29,16.29,0,0,0,1.62-1.37l.67-.61a.22.22,0,0,0,.1-.23.22.22,0,0,1,0-.18,1.58,1.58,0,0,1,.2-.36,13.18,13.18,0,0,1,1-1,8.56,8.56,0,0,0,1.58-1.92,5.15,5.15,0,0,0,.66-1.25v0c.19-.27.36-.55.56-.81a3,3,0,0,0,.53-.93l.27-.79c0-.07.07-.13.1-.19l.19-.35a1.55,1.55,0,0,0,.12-.22,4.8,4.8,0,0,0,.3-.6,2,2,0,0,1,.36-.64c.06-.07.11-.15.17-.23a1.49,1.49,0,0,1,.15-.2,2.86,2.86,0,0,0,.5-.73,2.2,2.2,0,0,1,.17-.25c.09-.12.18-.25.28-.37l.25-.27.72-.73.47-.52a1,1,0,0,1,.19-.16c.39-.26.78-.53,1.18-.77a10.1,10.1,0,0,1,1.21-.65,1.73,1.73,0,0,1,.43-.12l.3-.06.46-.06.94-.13h0a6.72,6.72,0,0,1,1.1,0,1.09,1.09,0,0,1,.45.18.51.51,0,0,0,.27.09,1.15,1.15,0,0,1,.75.31,2.63,2.63,0,0,0,.73.5,1.23,1.23,0,0,1,.42.33l.32.31a1.39,1.39,0,0,1,.36.5c0,.12.12.23.18.35l.16.33.15.32a.93.93,0,0,1,.05.1c.12.29.23.58.34.88a.39.39,0,0,1,0,.18c0,.36,0,.73,0,1.09a2.17,2.17,0,0,1,0,.26l0,.44c0,.11,0,.23,0,.34a1.48,1.48,0,0,1-.14.62.21.21,0,0,0,0,.1,3.64,3.64,0,0,1-.47,1.11,6.28,6.28,0,0,1-.58,1c-.17.22-.29.48-.45.71s-.39.59-.6.87a1.21,1.21,0,0,1-.16.16l-.38.34a1.89,1.89,0,0,1-.27.2,4.57,4.57,0,0,1-.47.29c-.32.16-.62.38-1,.51a4,4,0,0,1-.65.26.76.76,0,0,0-.23.13,6.43,6.43,0,0,1-1.48.86c-.42.16-.84.29-1.26.44-.16.06-.31.14-.46.21s-.28.15-.42.2a4.64,4.64,0,0,0-.8.41,2.5,2.5,0,0,1-.75.27c-.25.06-.49.16-.74.24s-.52.16-.78.22a3.12,3.12,0,0,0-.67.23,3.71,3.71,0,0,1-1.3.44.71.71,0,0,0-.41.23,8.61,8.61,0,0,1-1,.81l-.23.19c-.25.22-.51.42-.75.64s-.25.25-.37.37l-.53.51-.16.17m-38.91,2a.42.42,0,0,0-.07-.12l-.39-.46c-.1-.13-.22-.24-.3-.37a4.88,4.88,0,0,0-1.08-1.14,3.22,3.22,0,0,0-.68-.48c-.22-.1-.43-.23-.65-.34a2.35,2.35,0,0,0-1.35-.27h-.11a4.46,4.46,0,0,0-1,.12c-.12,0-.14,0-.12.17a5.59,5.59,0,0,0,.11.59q.1.41.24.81c0,.12.13.24.18.36a2.61,2.61,0,0,1,.2.5,3.27,3.27,0,0,0,.41,1.09.12.12,0,0,0,.15.07l.45-.09c.23-.06.47-.13.71-.18a7,7,0,0,1,1.45-.11,11.2,11.2,0,0,0,1.64-.11Zm55.33,0,.12,0a5.59,5.59,0,0,0,.59.08c.41,0,.82,0,1.23,0a7.21,7.21,0,0,1,2.17.31,2.7,2.7,0,0,0,.39.08.12.12,0,0,0,.15-.07,3.07,3.07,0,0,0,.41-1.09,2,2,0,0,1,.21-.52,3.36,3.36,0,0,0,.2-.43c0-.11.07-.23.11-.34a4.76,4.76,0,0,0,.21-1c0-.11,0-.13-.1-.15a3.78,3.78,0,0,0-.82-.12,2,2,0,0,1-.35,0,2.25,2.25,0,0,0-1.37.3c-.18.08-.35.17-.52.26a2.6,2.6,0,0,0-.36.21c-.25.19-.5.39-.74.6a3,3,0,0,0-.55.57,6.07,6.07,0,0,1-.64.8A5.38,5.38,0,0,0,201.09,40.71ZM147.77,70c-.13-.15-.18-.15-.3,0s-.12.16-.19.23a2.87,2.87,0,0,1-.29.31,4.82,4.82,0,0,1-.43.36.69.69,0,0,0-.27.52,2.17,2.17,0,0,0,0,.26.4.4,0,0,0,.29.39l.23.08a1.16,1.16,0,0,0,1.24-.25,1,1,0,0,0,.34-.43c.06-.13.14-.27.21-.41s.19-.36.27-.55a.3.3,0,0,0-.12-.4l-.25-.18a.37.37,0,0,0-.38,0Zm51.52,0-.36-.14a.33.33,0,0,0-.32,0l-.33.23a.3.3,0,0,0-.09.33,1.19,1.19,0,0,0,.08.2c.15.29.29.59.45.88a1.18,1.18,0,0,0,.19.25,1.58,1.58,0,0,0,.6.38,1.05,1.05,0,0,0,.7,0c.1,0,.2-.09.3-.12a.35.35,0,0,0,.26-.34,2.26,2.26,0,0,0,0-.37.6.6,0,0,0-.16-.36l-.44-.38a1.8,1.8,0,0,1-.39-.39,1.73,1.73,0,0,0-.17-.21C199.47,69.84,199.42,69.84,199.29,70ZM144.65,191.7a4.12,4.12,0,0,0-.14.66c0,2.19-.08,4.38-.1,6.57,0,3.87-.06,7.73-.06,11.59q0,13.75,0,27.51a13.27,13.27,0,0,0,.2,2.26,51.76,51.76,0,0,1,.32,8.35c0,2.35,0,4.7,0,7.05,0,.36,0,.71.08,1.14.47.08.89.13,1.31.21a3,3,0,0,1,2.28,4.11,2.28,2.28,0,0,1-2.27,1.61c-3,0-5.9.06-8.84,0a6.67,6.67,0,0,1-2.73-.75,2,2,0,0,1-.11-3.6,9.7,9.7,0,0,1,2.33-.86,15.44,15.44,0,0,1,1.79-.32c0-.44.08-.79.08-1.14,0-4.38,0-8.77,0-13.15,0-.79-.19-1.58-.26-2.37-.09-.95-.23-1.9-.23-2.85,0-3.11.14-6.22.16-9.33,0-4.1,0-8.2,0-12.31,0-3,.08-5.89,0-8.84,0-2-.18-4-.28-6a15.55,15.55,0,0,1,.45-4.5,10.75,10.75,0,0,0,.12-2.48c0-.75-.07-1.5-.11-2.34l-.8-.08a12.88,12.88,0,0,1-1.88-.24,2.74,2.74,0,0,1-.06-5.22,4.63,4.63,0,0,1,1.52-.27c2.95,0,5.9,0,8.84.11a2.89,2.89,0,0,1,2.49,1.44,2.61,2.61,0,0,1-2,4A20.44,20.44,0,0,1,144.65,191.7Zm58.21.18c-.74,0-1.38,0-2-.12a2.77,2.77,0,0,1-2.6-2.78,2.8,2.8,0,0,1,2.59-2.8,7.6,7.6,0,0,1,1.07-.1l8.37.12a3.14,3.14,0,0,1,2.26.93,2.56,2.56,0,0,1,.73,2.73,2.45,2.45,0,0,1-2.16,1.81c-.75.1-1.51.09-2.31.13a4.09,4.09,0,0,0-.16.7q-.06,3.28-.08,6.57c0,3.82-.06,7.65-.07,11.47q0,13.76,0,27.5a14.51,14.51,0,0,0,.22,2.37,50.09,50.09,0,0,1,.3,8.12c0,2.39,0,4.78,0,7.17,0,.35.05.7.09,1.13.47.08.89.13,1.31.21a3,3,0,0,1,2.21,4.23,2.27,2.27,0,0,1-2.23,1.5c-2.94,0-5.9,0-8.84,0a8.09,8.09,0,0,1-2.53-.62,2,2,0,0,1-1.32-1.84,2.05,2.05,0,0,1,1.23-2,10.72,10.72,0,0,1,2-.7c.57-.16,1.17-.22,1.84-.34a5.82,5.82,0,0,0,.13-.92c0-4.54,0-9.08,0-13.63,0-.67-.17-1.34-.23-2a27,27,0,0,1-.24-3c0-3.07.12-6.14.14-9.2,0-3.79,0-7.57,0-11.36,0-3.27.09-6.53.06-9.8,0-2-.18-4-.28-6a16.37,16.37,0,0,1,.44-4.62,11.34,11.34,0,0,0,.12-2.48C203,193.49,202.9,192.74,202.86,191.88Zm-125.27,1c-1-.1-1.9-.24-2.8-.27a131.61,131.61,0,0,0-14.46.2,18.94,18.94,0,0,0-9.84,3.66c-1.81,1.3-3.43,2.85-5.13,4.29l-.09.08c-2.87,2.24-5,5.15-7.1,8a11.16,11.16,0,0,0-1.85,3.85c-.37,1.43-.77,2.85-1.27,4.23a17.76,17.76,0,0,0-1,5.63c0,.4,0,.8,0,1.2-.32,3.88.66,7.59,1.64,11.28a11.07,11.07,0,0,0,1.18,2.74,50.34,50.34,0,0,0,3.28,5A38.66,38.66,0,0,0,54.86,254.6c1.17.52,2.35,1,3.54,1.46a16.2,16.2,0,0,0,5.26,1c4.06.11,8.12.32,12.19.4,1.58,0,3.17-.2,4.76-.31.35,0,.71-.09,1.07-.08a2.73,2.73,0,0,1,2.65,2.45,2.61,2.61,0,0,1-2.14,2.77,20.3,20.3,0,0,1-3.79.5c-3.38,0-6.77-.16-10.16-.09a72.3,72.3,0,0,1-7.51-.28,33.71,33.71,0,0,1-4.28-.42,18.13,18.13,0,0,1-4.28-1.44c-2.27-1.15-4.44-2.5-6.64-3.79-1-.59-2-1.23-2.91-1.89a35.28,35.28,0,0,1-8.25-7.55,3.72,3.72,0,0,0-.3-.37c-2.79-2.8-4-6.38-4.87-10.09-.47-2-.84-4-1.18-6a23.68,23.68,0,0,1-.46-3.92c0-3.26,0-6.53.19-9.79A23,23,0,0,1,31,207.64,40.13,40.13,0,0,1,41.46,195.5a42.73,42.73,0,0,1,8.88-6,21.1,21.1,0,0,1,3.32-1.33c4.17-1.07,8.35-2.09,12.72-1.92,2.66.1,5.34.08,8,.2a22.7,22.7,0,0,1,3.07.44c1.38.25,2.74.52,4.11.79.31.06.63.12.93.21a1.71,1.71,0,0,1,1.25,2.56,2.89,2.89,0,0,0-.18.92c-.11,2.94-.15,5.89-.32,8.83A2.73,2.73,0,0,1,80.33,203a2.91,2.91,0,0,1-2.83-3.09c0-1.87.06-3.74.09-5.61C77.6,193.87,77.59,193.44,77.59,192.92Zm85.15,34.48c-.05.45-.1.68-.1.9-.06,7.13-.14,14.27-.16,21.4,0,1.3.23,2.61.36,3.91.06.51.14,1,.23,1.54s0,1.37.35,1.68a6.37,6.37,0,0,0,2.06.87c.33.12.71.13,1,.26a2.3,2.3,0,0,1,1.51,2.23,2.23,2.23,0,0,1-1.49,2.24,6.06,6.06,0,0,1-1.74.36c-1.91.12-3.82.25-5.73.27-1.43,0-2.86-.15-4.29-.22-.35,0-.71,0-1.07,0a2.59,2.59,0,0,1-2.74-2.3,2.47,2.47,0,0,1,2.22-2.89c1.63,0,2-.83,2.16-2.12.11-.86.31-1.72.36-2.59.56-9.64.17-19.29.28-28.93.09-7.53.19-15.07.2-22.6,0-3.5-.22-7-.25-10.51a9.36,9.36,0,0,1,.55-3.15,2.23,2.23,0,0,1,3.93-.63,1.6,1.6,0,0,0,2.14.56c1.29-.42,2.58-.84,3.89-1.13a18.69,18.69,0,0,1,5.83-.25,31.08,31.08,0,0,0,5,.15c4.3-.25,8.08,1.18,11.65,3.35a13.23,13.23,0,0,1,4.2,4.35,23.19,23.19,0,0,1,3.39,7.86,18.07,18.07,0,0,1,.35,2.84c.06,1.83,0,3.67,0,5.5a9.27,9.27,0,0,1-.91,4.28c-1,2.24-2,4.52-3.2,6.69a19.12,19.12,0,0,1-4.38,5.16,24.69,24.69,0,0,1-6.2,3.79,9.61,9.61,0,0,1-2.13.74c-2,.38-3.89,1.18-6,1.06-3.53-.18-6.88-.86-9.69-3.19C163.91,228.47,163.42,228,162.74,227.4Zm-.36-11.83c1.43-.93,2.69-1.68,3.88-2.53a10.39,10.39,0,0,1,7.39-1.75,6.74,6.74,0,0,1,6,6.83,3.46,3.46,0,0,1-3.85,3.32,1.78,1.78,0,0,1-1.74-2.31c.06-.31.17-.61.25-.92a1.37,1.37,0,0,0-1.22-1.88c-3.86-.52-6.1,2.36-6.43,5.25a2.17,2.17,0,0,0,1.1,2.33,14.81,14.81,0,0,1,1.42.9,5.24,5.24,0,0,0,3.6,1c3.66-.29,7.34-.53,10.41-2.94a6.1,6.1,0,0,1,.92-.56,12.4,12.4,0,0,0,3.24-2.61,15.13,15.13,0,0,0,3.77-7.22,13.33,13.33,0,0,0,.06-3.57c-.16-1.66-.45-3.31-.77-4.95a13,13,0,0,0-.8-2.74c-.64-1.45-1.41-2.85-2.15-4.26a1.68,1.68,0,0,0-.52-.63,35.27,35.27,0,0,0-4.62-3.17c-3.58-1.76-3.54-1.88-7.49-1.76a45.58,45.58,0,0,0-5.59.54,26.06,26.06,0,0,0-3.91,1.07c-.94.3-1.85.73-2.76,1.12a1.52,1.52,0,0,0-1,1.61c.08,2.59.08,5.18.17,7.77.13,3.58.32,7.17.49,10.75C162.32,214.67,162.35,215.06,162.38,215.57Zm144.54,40.91V228.67a6.86,6.86,0,0,0-.87.31,6.94,6.94,0,0,1-3.23.75,12.55,12.55,0,0,1-8.49-3.3c-.79-.66-1.63-1.28-2.47-1.87a2.07,2.07,0,0,0-1-.35,11.38,11.38,0,0,0-5.91,1.17,3.34,3.34,0,0,0-1.08,1.07c-.36.47-.57,1.07-1,1.5a4.55,4.55,0,0,0-1.07,3.16c-.14,3.07-.47,6.12-.7,9.18-.1,1.35-.16,2.7-.2,4.06-.09,3.82-.17,7.65-.24,11.47a7.68,7.68,0,0,0,0,.78c.57.18,1.14.32,1.69.52a2.33,2.33,0,0,1,.69,4.22,3.78,3.78,0,0,1-1.81.85,23.88,23.88,0,0,1-6.91.12,2.42,2.42,0,0,1-2.27-2.23,2.39,2.39,0,0,1,1.29-2.81,2.05,2.05,0,0,0,1.31-2c0-1.31.21-2.62.18-3.93a169.3,169.3,0,0,1,.52-18.16,38.17,38.17,0,0,0-.33-6.66,42.77,42.77,0,0,1,.09-9.19,3.26,3.26,0,0,0,.06-1.07,19.15,19.15,0,0,1-.06-6c.25-4,.56-7.95.86-11.93a6,6,0,0,1,.26-1.52c.95-3,2.41-5.73,5.25-7.43a22.13,22.13,0,0,1,5.41-2.77,9.89,9.89,0,0,1,2.69-.44,43.72,43.72,0,0,1,6.68.33A16.09,16.09,0,0,1,307,192.4a20.38,20.38,0,0,1,2.22,3.26,27.46,27.46,0,0,1,3,8.64,85.84,85.84,0,0,1,.85,12.4c-.07,5.74-.06,11.48-.3,17.21-.26,6.1-.48,12.19-.4,18.29,0,1.39.17,2.78.24,4.17a.71.71,0,0,0,.62.75,5.7,5.7,0,0,1,.81.22,2.57,2.57,0,0,1,1.67,2.75,2.48,2.48,0,0,1-2.15,2.24,22.79,22.79,0,0,1-3,.15c-1.23,0-2.47-.1-3.7-.15a3.22,3.22,0,0,1-2.17-.86,2.75,2.75,0,0,1,1.07-4.69C306.07,256.67,306.42,256.61,306.92,256.48Zm-25.1-35.82a2.17,2.17,0,0,0,.51-.14,11.36,11.36,0,0,1,7.86-1.8,6.21,6.21,0,0,1,2.81.9c1.34.85,2.74,1.62,4.05,2.54a8.49,8.49,0,0,0,6.42,1.61h.24a2.27,2.27,0,0,0,2.15-1.27,10.48,10.48,0,0,0,1.25-3.45,47.54,47.54,0,0,0,.14-7.16,55.19,55.19,0,0,0-2.51-13.09,3.55,3.55,0,0,0-.68-1.25c-.91-1.1-1.88-2.16-2.8-3.26a6.49,6.49,0,0,0-2.52-1.75c-3-1.33-6.08-1-9.11-.05a11.47,11.47,0,0,0-2.34,1.13c-1.86,1.07-3,2.83-4.16,4.54a4.08,4.08,0,0,0-.59,1.54c-.22,1.41-.35,2.84-.51,4.27a28.62,28.62,0,0,0-.3,3.2c0,4,.06,8,.09,12.06C281.83,219.66,281.82,220.09,281.82,220.66Zm-36.19-78.78c-.08,3.78-.13,7.57-.26,11.35-.16,4.48-.58,8.94-2.31,13.12a18.57,18.57,0,0,1-7.61,9.4c-.54.32-1.07.69-1.6,1a9.68,9.68,0,0,1-5.16,1.65,43.42,43.42,0,0,1-10.77-1.35,6.41,6.41,0,0,1-2.65-1.31c-1.11-.9-2.29-1.72-3.39-2.64a7.17,7.17,0,0,1-1.81-2.91,8.62,8.62,0,0,0-.89-1.67,19.27,19.27,0,0,1-3.89-9.88,8.94,8.94,0,0,0-.36-2,18.45,18.45,0,0,1-.76-5.9c0-3.67.05-7.34.15-11,.05-1.91.29-3.81.38-5.72.21-4.28,1.29-8.42,1.85-12.65.15-1.1.31-2.2.5-3.3a20.58,20.58,0,0,1,3.9-8.77c.35-.48.67-1,1-1.48s.47-.79,1-.91c.3-.06.56-.41.8-.67a12.23,12.23,0,0,1,9.05-3.94c1.28,0,2.56,0,3.83,0a21.25,21.25,0,0,1,4.55.93,12.32,12.32,0,0,1,5,2.53,25.24,25.24,0,0,1,4.5,4.08,17.78,17.78,0,0,1,2.75,5.13,50.47,50.47,0,0,1,2.38,12.53,67.1,67.1,0,0,1,.05,7.77c0,2.19-.17,4.38-.26,6.57Zm-33.85-17c-.05.54-.09.85-.12,1.16q-.36,4-.71,8.1c-.17,2-.42,4.05-.44,6.07,0,4.67.1,9.33,0,14a22,22,0,0,0,1.44,8.18,11.28,11.28,0,0,0,2,3.39,34.82,34.82,0,0,0,5.34,5.1,8,8,0,0,0,6.65,1.56,41.47,41.47,0,0,0,5.82-1.77,6.14,6.14,0,0,0,3.51-3.22,19.87,19.87,0,0,1,1.08-1.85,17,17,0,0,0,3.06-7.2c.28-2.21.44-4.44.53-6.66.2-4.74.35-9.48.48-14.22.14-5,.32-10-.59-15a48.83,48.83,0,0,0-1.66-6.23,9,9,0,0,0-2.45-3.9,10.88,10.88,0,0,0-5-3.17,36,36,0,0,0-8.54-.92,8,8,0,0,0-6.75,4.06,4,4,0,0,0-.58,1.8c-.12,1.71-.15,3.42-.18,5.14a2.76,2.76,0,0,0,1.13,2.27,6,6,0,0,0,4.59,1.28,1.37,1.37,0,0,0,.9-.49,41.48,41.48,0,0,0,2.08-3.89c.41-.9,0-1.5-.87-1.91a3,3,0,0,0-2.31,0,2.15,2.15,0,0,1-2.91-2,3.41,3.41,0,0,1,3.39-3.44,13.59,13.59,0,0,1,1.43,0,8.06,8.06,0,0,1,6,3.47,2.33,2.33,0,0,1,.47,1.08,9.69,9.69,0,0,1-.17,4.15A22.17,22.17,0,0,1,225,126a4.48,4.48,0,0,1-2.92,1.74,11.48,11.48,0,0,1-9.36-2.22C212.47,125.35,212.21,125.18,211.78,124.88Zm-95.27,48.76a22,22,0,0,1,2.29,1,2.08,2.08,0,0,1,1.12,2.31,2.69,2.69,0,0,1-2.09,2.06,23.68,23.68,0,0,1-6.77.48,17.67,17.67,0,0,1-2.58-.46,2.11,2.11,0,0,1-1.67-1.95l0-.23c-.28-2.41.48-3.23,2.89-3.19a5.76,5.76,0,0,0,.66,0,40.82,40.82,0,0,0,.41-5.83c0-2.51-.13-5,0-7.53.13-3.5.45-7,.59-10.5a30.43,30.43,0,0,0-.17-4.87,43.62,43.62,0,0,1-.21-10,10.57,10.57,0,0,0,0-3.32,8.13,8.13,0,0,1,0-2.15c.32-4.81.57-9.63,1-14.43a11.54,11.54,0,0,1,5.26-8.83,19.89,19.89,0,0,1,5.71-3,10.75,10.75,0,0,1,2.81-.43,44.31,44.31,0,0,1,6.32.32c4.56.72,8.51,2.62,11.26,6.53.07.1.13.2.2.29a25,25,0,0,1,4.78,13c.28,3.49.56,7,.58,10.5,0,5.69-.12,11.4-.24,17.09-.12,5.86-.32,11.71-.43,17.57,0,1.63.16,3.26.23,4.89a.74.74,0,0,0,.69.81l.47.1a2.6,2.6,0,0,1,1.95,2.79,2.54,2.54,0,0,1-2.45,2.35c-1.11.09-2.23.07-3.34.06s-1.91-.06-2.87-.09a3.36,3.36,0,0,1-2.21-.76,2.73,2.73,0,0,1-.95-2.79,2.62,2.62,0,0,1,2.09-2.07c.26-.07.53-.12.94-.2V145.3a2.76,2.76,0,0,0-.7.17,8.48,8.48,0,0,1-5.82.59,13.12,13.12,0,0,1-6.09-3.13c-.77-.63-1.56-1.23-2.39-1.79a2.27,2.27,0,0,0-1.1-.38,11.63,11.63,0,0,0-5.8,1.17A3.52,3.52,0,0,0,119.7,143c-.41.54-.67,1.19-1.11,1.7a4.05,4.05,0,0,0-.93,2.72c-.1,2.51-.35,5-.53,7.51-.13,1.91-.31,3.82-.37,5.73-.12,3.9-.17,7.8-.25,11.71C116.5,172.83,116.51,173.29,116.51,173.64Zm1.18-36.37a23.37,23.37,0,0,1,2.61-1.3c3.26-1.14,6.45-1.27,9.47.8,1.41,1,2.91,1.81,4.37,2.71a6.14,6.14,0,0,0,4,.91,9.66,9.66,0,0,1,1.2-.07,2.65,2.65,0,0,0,2.65-1.84,13.55,13.55,0,0,0,1.15-5.44,72.26,72.26,0,0,0-.53-8.69,79.31,79.31,0,0,0-2.08-9.06,2.77,2.77,0,0,0-.62-1.14C139,113,138,111.92,137,110.79a6.48,6.48,0,0,0-2.54-1.72c-3.22-1.36-6.4-1-9.56.16a9.17,9.17,0,0,0-1.89,1,13.2,13.2,0,0,0-3.61,3.76,6.47,6.47,0,0,0-1.25,3.17c-.06.52-.12,1-.17,1.55-.17,1.62-.46,3.24-.48,4.86,0,4.22.06,8.45.1,12.67C117.64,136.53,117.67,136.84,117.69,137.27ZM127.31,257c.46.14.89.24,1.3.39a2.59,2.59,0,0,1,1.66,2.63,2.49,2.49,0,0,1-2.18,2.35,17.56,17.56,0,0,1-2.62.16c-1.39,0-2.78-.1-4.18-.17a2.91,2.91,0,0,1-2.65-1.74,2.73,2.73,0,0,1,1.63-3.78c.37-.13.76-.2,1.17-.3.12-9.27.25-18.5,0-27.8a3.54,3.54,0,0,0-.57.12c-3,1.62-6.06,1-9-.37a13.67,13.67,0,0,1-3.58-2.55,6,6,0,0,0-5.83-1.53,14.66,14.66,0,0,0-2.93,1,3.2,3.2,0,0,0-1.11,1,17.44,17.44,0,0,1-1,1.5,4.84,4.84,0,0,0-1.12,3.51c-.13,2.94-.45,5.88-.68,8.82-.09,1.19-.16,2.38-.19,3.58-.11,4-.19,8-.27,12.07,0,.31,0,.62,0,1.06a5.05,5.05,0,0,1,3,1.43,2.39,2.39,0,0,1,.83,2.66,2.56,2.56,0,0,1-2.32,1.79c-2.22.09-4.45.18-6.68.2a4.68,4.68,0,0,1-2-.4A3,3,0,0,1,87,258a7.87,7.87,0,0,1,2.18-1.3,32.8,32.8,0,0,0,.35-5.41,134.23,134.23,0,0,1,.57-18,18.5,18.5,0,0,0-.11-4.52,42.55,42.55,0,0,1-.18-11.44,2.93,2.93,0,0,0,0-1.06,18,18,0,0,1-.07-5.72c.26-4.05.48-8.12.9-12.16a11.63,11.63,0,0,1,4.93-8.53,20.08,20.08,0,0,1,5.88-3.14,9.22,9.22,0,0,1,2.69-.47,43.89,43.89,0,0,1,6.79.33c4.36.73,8.21,2.55,10.9,6.27.47.65,1,1.28,1.36,2a25.4,25.4,0,0,1,3.54,9.43,101.1,101.1,0,0,1,.86,16.58c-.06,2.56,0,5.11-.1,7.66-.16,5.34-.39,10.67-.56,16a99,99,0,0,0,.22,12.06A3.5,3.5,0,0,0,127.31,257ZM96.47,220.71a26.41,26.41,0,0,1,2.5-1.25c3.29-1.19,6.52-1.36,9.57.74,1,.7,2.14,1.25,3.14,2a8.91,8.91,0,0,0,6.31,1.64,3.14,3.14,0,0,0,2.88-2.09,14.42,14.42,0,0,0,1.06-5.46,50.45,50.45,0,0,0-1.42-13.13c-.31-1.32-.67-2.63-1.08-3.92a5.52,5.52,0,0,0-.87-1.79c-.85-1.11-1.82-2.11-2.72-3.18a6.61,6.61,0,0,0-2.54-1.73,12.58,12.58,0,0,0-9-.06,9.49,9.49,0,0,0-2.66,1.29A14.26,14.26,0,0,0,98,197.8a5.48,5.48,0,0,0-.84,1.94c-.26,1.41-.37,2.84-.53,4.27a26.74,26.74,0,0,0-.3,3c0,4.18.06,8.36.09,12.55C96.42,219.86,96.45,220.21,96.47,220.71ZM65.87,151a1.56,1.56,0,0,0-2.15-.14,22.41,22.41,0,0,0-2,1.52,14.89,14.89,0,0,0-4.3,4.9,5.45,5.45,0,0,0-.57,2.77c0,.64.09,1.28.08,1.91a4.86,4.86,0,0,0,1.49,3.67A14.13,14.13,0,0,0,63.13,169a31.82,31.82,0,0,0,7,2,17.89,17.89,0,0,0,2.74.05,7.18,7.18,0,0,1,1.31,0c4,.69,7.86,0,11.73-.73a11.06,11.06,0,0,0,2.47-.89,33.59,33.59,0,0,0,5.82-3,10.71,10.71,0,0,0,2.73-3.11,35.88,35.88,0,0,0,4-8.39,8,8,0,0,0,.37-2.1,21.88,21.88,0,0,0-.53-6.41c-.55-1.87-1.29-3.68-2-5.51a1.94,1.94,0,0,0-.39-.6c-1.53-1.73-3-3.48-4.61-5.16a16.26,16.26,0,0,0-10-5.38c-2.77-.34-5.54-.62-8.31-1a22.7,22.7,0,0,1-11.17-4.21c-2.74-2.08-3.68-5-3.48-8.35A10.07,10.07,0,0,1,63.69,110a24.37,24.37,0,0,1,7.5-5.23,20.06,20.06,0,0,1,9.51-2c3.42,0,6.85.15,10.28.3a9.89,9.89,0,0,1,4.24,1.13,7.5,7.5,0,0,0,1.22.47,2,2,0,0,1,1.57,1.9,32.89,32.89,0,0,1,0,3.58c-.07,1.31-.28,2.61-.41,3.92a2.62,2.62,0,0,1-2.07,2.59,3,3,0,0,1-3.22-1.52,6.41,6.41,0,0,1-.59-3.14c0-.76,0-1.51,0-2.27s-.1-1-.93-1c-1.32-.05-2.63,0-3.95,0-3.23.06-6.45.18-9.68.22a10.32,10.32,0,0,0-4.5,1,15,15,0,0,0-5.27,3.84,6.93,6.93,0,0,0-1.17,2c-.56,1.62.15,3,1.18,4.16a7.83,7.83,0,0,0,4.15,2.47,44.52,44.52,0,0,0,4.59.81c2.65.35,5.31.55,8,.94a25.74,25.74,0,0,1,13.93,6.91,13.68,13.68,0,0,1,1.77,2.09c1.21,1.63,2.43,3.26,3.54,4.95a12.2,12.2,0,0,1,1.18,2.6,24.94,24.94,0,0,1,1.74,5.71c.27,2.53.51,5.07.74,7.61a4.08,4.08,0,0,1-.13,1.3c-.94,3.8-1.9,7.59-4,11a20.36,20.36,0,0,1-8,7.42,41.68,41.68,0,0,1-10.64,3.89,43.56,43.56,0,0,1-6,.66c-1.47.1-3-.05-4.42,0a22,22,0,0,1-9.18-1.89c-1.74-.69-3.5-1.32-5.24-2a11.29,11.29,0,0,1-5.59-4.65,25.42,25.42,0,0,1-2.91-5.47,3,3,0,0,1-.2-.93,27.67,27.67,0,0,1,.64-8.32,16,16,0,0,1,4.14-6.88,18.29,18.29,0,0,1,2.12-1.92c2.7-1.92,5.7-2.05,8.82-1.35a9.91,9.91,0,0,1,4.71,2.18,3.93,3.93,0,0,1,1.4,3,6,6,0,0,1-2,4.9,5.73,5.73,0,0,1-5.94.82,2.77,2.77,0,0,1-1.49-2.66,2,2,0,0,1,1.57-1.88C65,151.2,65.38,151.13,65.87,151Zm223.81,22.06c-1.4-5-3.63-9.46-5.59-14.07A73.83,73.83,0,0,0,277,145.55c-.86.19-1.91.39-2.94.63a33.41,33.41,0,0,1-9,.75,3.33,3.33,0,0,1-.93-.18c-1.55-.53-3.1-1-4.62-1.64a8.86,8.86,0,0,1-1.59-1c-.25-.17-.48-.37-.9-.7,0,.61,0,1-.06,1.44,0,4.15,0,8.3-.06,12.44,0,3.35-.08,6.7-.1,10.05A10.4,10.4,0,0,0,257,169c.1.67.25,1.33.34,2,.26,2.11.29,2.16,2.36,2.73.35.1.71.15,1,.27a2.41,2.41,0,0,1,.05,4.52,5.1,5.1,0,0,1-1.5.33c-2,.12-4.06.27-6.09.29-1.87,0-3.74-.11-5.6-.23a2.52,2.52,0,0,1-2.31-2.09,2.47,2.47,0,0,1,1.24-2.74,24.65,24.65,0,0,1,2.8-.94,38.2,38.2,0,0,0,.65-3.79c.52-6.92.25-13.86.3-20.8.07-10.17.17-20.33.19-30.5,0-3.7-.22-7.41-.24-11.11a9.17,9.17,0,0,1,.56-3.15,2.25,2.25,0,0,1,4-.55,1.43,1.43,0,0,0,1.92.58,20.6,20.6,0,0,1,5.78-1.44c.95-.06,1.91-.1,2.86-.07,2.27.06,4.54.3,6.81.22,4.22-.14,7.88,1.38,11.35,3.52a12.21,12.21,0,0,1,3.66,3.74,23.46,23.46,0,0,1,3.65,8.14,15.5,15.5,0,0,1,.37,2.71c.06,2,0,4.07.06,6.1a8.77,8.77,0,0,1-.88,3.94c-1.05,2.23-2.12,4.46-3.22,6.67a5.24,5.24,0,0,1-.88,1.12c-.95,1-1.91,2-2.88,3a1.14,1.14,0,0,0-.23,1.42c.79,1.69,1.56,3.4,2.37,5.08s1.63,3,2.31,4.59c1,2.23,1.88,4.49,2.64,6.8a65.63,65.63,0,0,0,2.63,6.92c.46,1,.73,2.1,1.09,3.15s.68,1.95,1,2.93a.94.94,0,0,0,1,.69h1.31a2.66,2.66,0,0,1,2.69,2.63,2.58,2.58,0,0,1-2.54,2.64q-3.35.15-6.69.18a3.7,3.7,0,0,1-1.61-.34,2.59,2.59,0,0,1-.54-4.44C289.07,173.5,289.34,173.33,289.68,173.09Zm-33-41.51c1.46-.93,2.76-1.7,4-2.57a10.34,10.34,0,0,1,7.4-1.7,6.87,6.87,0,0,1,6,6.92c0,2.17-2.58,3.62-4.2,3.19a1.73,1.73,0,0,1-1.44-2,8.1,8.1,0,0,1,.27-1.16,1.36,1.36,0,0,0-1.3-1.9,5.16,5.16,0,0,0-3.86.89c-.63.48-1.35.84-2,1.29-.26.17-.61.37-.69.63a7,7,0,0,0,.06,3.76.9.9,0,0,0,.4.42c1,.68,2,1.4,3.13,2a4.55,4.55,0,0,0,1.94.51,30.2,30.2,0,0,0,7.57-1,6.81,6.81,0,0,0,1.74-.79c1.17-.68,2.33-1.39,3.46-2.13a16.69,16.69,0,0,0,1.7-1.31,17.92,17.92,0,0,0,3.84-5.43,15.67,15.67,0,0,0,1.37-9.88,29.74,29.74,0,0,0-3-8.54,7.49,7.49,0,0,0-4.33-3.72,20,20,0,0,0-9.09-1.65h-.36c-1.94.18-3.89.29-5.81.59a21.61,21.61,0,0,0-3.68,1c-1,.34-2,.81-3,1.23a1.26,1.26,0,0,0-.8,1.33c0,2.43,0,4.86.12,7.29.09,2.75.29,5.49.43,8.24C256.6,128.56,256.63,130,256.69,131.58Zm3.08,125.21c-1.36-4.94-3.64-9.43-5.57-14a72.74,72.74,0,0,0-7.07-13.48c-.86.18-1.9.38-2.93.62a33.8,33.8,0,0,1-8.91.77,3.79,3.79,0,0,1-.94-.17c-1.62-.55-3.24-1.09-4.84-1.71a7.8,7.8,0,0,1-1.48-1c-.25-.18-.48-.37-.91-.71,0,.61-.06,1-.06,1.44,0,4.19,0,8.37-.07,12.56,0,3.31-.08,6.61-.09,9.92a10.49,10.49,0,0,0,.22,1.66c.11.7.24,1.41.36,2.12s0,1.39.31,1.69a6.63,6.63,0,0,0,2.14,1c.29.11.63.12.92.22a2.35,2.35,0,0,1,1.61,2.18,2.23,2.23,0,0,1-1.41,2.28,7,7,0,0,1-2,.42c-1.79.13-3.58.19-5.38.27-.39,0-.79,0-1.19,0l-4-.19c-.12,0-.23,0-.35,0a2.61,2.61,0,0,1-2.74-2.44,2.48,2.48,0,0,1,2.25-2.75c1.53,0,1.86-.74,2.16-2a35,35,0,0,0,.5-5.59c.14-2.06.12-4.14.12-6.21,0-6.62,0-13.24,0-19.86,0-7.13.14-14.27.18-21.4,0-2.07-.07-4.15-.12-6.22s-.17-4-.13-6a7.78,7.78,0,0,1,.51-2.56,2.28,2.28,0,0,1,4.09-.6,1.39,1.39,0,0,0,1.84.51,19,19,0,0,1,5.18-1.36c1.35-.06,2.71-.13,4-.11,1.92,0,3.83.29,5.73.18,4.26-.24,8,1.17,11.55,3.3a13,13,0,0,1,4.16,4.23,23.16,23.16,0,0,1,3.47,8,18.08,18.08,0,0,1,.36,2.84c.07,1.87,0,3.75.07,5.62a9.27,9.27,0,0,1-.88,4.18c-1.05,2.23-2.12,4.46-3.23,6.67a5.7,5.7,0,0,1-.95,1.2c-1,1-1.91,2-2.87,3a1.09,1.09,0,0,0-.19,1.32c.28.62.49,1.27.79,1.87,1.31,2.64,2.72,5.24,4,7.92a63.64,63.64,0,0,1,2.56,6.56,63.54,63.54,0,0,0,2.61,6.93c.49,1.08.79,2.25,1.17,3.37.28.83.61,1.65.84,2.49a1.36,1.36,0,0,0,1.61,1.08,6.37,6.37,0,0,1,1.07,0,2.61,2.61,0,0,1,2.47,2.59A2.49,2.49,0,0,1,268,262c-2.42.14-4.86.18-7.29.21a2.78,2.78,0,0,1-1.95-.78,2.58,2.58,0,0,1,0-3.9C259.08,257.27,259.38,257.08,259.77,256.79Zm-33-41.46c1.52-1,2.82-1.74,4.05-2.61a10.22,10.22,0,0,1,7.51-1.68,6.88,6.88,0,0,1,5.84,6.91c0,2.09-2.51,3.62-4.21,3.18a1.7,1.7,0,0,1-1.43-1.9,7.56,7.56,0,0,1,.32-1.39,1.32,1.32,0,0,0-1.13-1.74,5,5,0,0,0-3.78.67c-.38.29-.8.52-1.21.78-2.14,1.38-2.14,1.38-2,3.92,0,.16,0,.32.05.48a1.45,1.45,0,0,0,.78,1.26,18.17,18.17,0,0,1,1.91,1.22,5.86,5.86,0,0,0,4.41,1.1c1.54-.18,3.08-.41,4.62-.61a9,9,0,0,0,3.86-1.5c.6-.4,1.21-.78,1.84-1.12,3.64-2,5.75-5.19,7.17-8.93a10.34,10.34,0,0,0,.85-2.85,25.34,25.34,0,0,0-.1-5.37,27.46,27.46,0,0,0-3.51-9.47,5.69,5.69,0,0,0-1.93-1.91c-1.84-1.21-4-1.61-6-2.28a7.87,7.87,0,0,0-2-.31,42.52,42.52,0,0,0-9.51.64c-1.07.3-2.16.55-3.21.9s-2,.79-3,1.22a1.43,1.43,0,0,0-.9,1.51c.06,2.31,0,4.63.11,6.93.15,3.71.37,7.41.56,11.11C226.75,214,226.73,214.58,226.73,215.33ZM177.46,121.9a5,5,0,0,0,.63.18,29.52,29.52,0,0,1,11.51,4.46,28.47,28.47,0,0,1,11,13.65,13.43,13.43,0,0,1,.83,4.57c0,3.47.06,6.94,0,10.4A15.16,15.16,0,0,1,201,158c-.15.7-.39,1.38-.55,2.08a26.71,26.71,0,0,1-3.88,8.28,21.29,21.29,0,0,1-2.94,3.91c-3,2.85-6.34,5.22-10.59,5.87a19.17,19.17,0,0,1-2.73.19c-4.31,0-8.61,0-12.92,0A7.94,7.94,0,0,1,161,175.6c-.18-.2-.41-.36-.74-.65-.07.43-.13.72-.16,1a2.88,2.88,0,0,1-3,2.67,2.83,2.83,0,0,1-2.77-2.88c0-2,0-4.07,0-6.1,0-6.77,0-13.54.55-20.31.33-4.41.14-8.85.21-13.27.1-5.7.24-11.4.31-17.1,0-2.79,0-5.58,0-8.37q0-3.34.07-6.69a1.42,1.42,0,0,1,1.27-1.5,2.5,2.5,0,0,1,2.65.63,1.54,1.54,0,0,0,1.41.45c1.79-.12,3.58-.26,5.36-.4a27.66,27.66,0,0,1,6.92.29,9.33,9.33,0,0,1,6.07,4.1,10.34,10.34,0,0,1,1.78,7.16,10.92,10.92,0,0,1-2.09,5.4ZM160.26,155c.43-.39.68-.58.89-.8a15,15,0,0,1,13-4.66,4.2,4.2,0,0,1,1.27.29,9.28,9.28,0,0,1,4.31,3.64,14.9,14.9,0,0,1,1.95,9.78,5,5,0,0,1-4.2,4.72,40.44,40.44,0,0,1-5.72.1,2.16,2.16,0,0,1-2.05-1.91,10.87,10.87,0,0,1,.15-3.41,1.53,1.53,0,0,1,2-1.13c.31.06.6.25.91.28a2.67,2.67,0,0,0,3.31-3.19,5.22,5.22,0,0,0-1.71-3.2,2,2,0,0,0-1-.51,8.7,8.7,0,0,0-6,1.24,16.16,16.16,0,0,0-5.62,6.37,5.42,5.42,0,0,0,.41,5.68c2.81,3.87,2.92,4.22,7.82,4.41,3.66.15,7.34.06,11,0a9.12,9.12,0,0,0,5.17-1.67,20.82,20.82,0,0,0,6.41-7.3c1.27-2.38,2.23-4.93,3.27-7.43a5.32,5.32,0,0,0,.31-1.87c0-3.23.06-6.46,0-9.69a9.42,9.42,0,0,0-.54-2.92,22.68,22.68,0,0,0-9.6-11.55A21.86,21.86,0,0,0,171.43,127c-2.89.32-5.78.58-8.67.89a2.38,2.38,0,0,0-1.09.41,2.75,2.75,0,0,0-1.26,2.5c0,7.69.36,15.39-.2,23.08A10,10,0,0,0,160.26,155Zm7.63-47.82,0-.15c-1.73.21-3.47.4-5.2.63a4.27,4.27,0,0,0-2.49,1.76c-.32.35-.23,1.13-.2,1.71.1,2.55.25,5.09.38,7.63a2.67,2.67,0,0,0,2.57,2.43c.95,0,1.9.13,2.85.17a7.59,7.59,0,0,0,1.43,0c1-.1,2-.27,2.95-.39a4.26,4.26,0,0,0,2.78-1.24c1.91-2.16,3.35-4.49,3-7.62a4.66,4.66,0,0,0-2-3.58,6.41,6.41,0,0,0-3.88-1.35C169.32,107.15,168.61,107.14,167.89,107.14Zm44.6-37.92a44.81,44.81,0,0,1-78.17-.08l-.43,0a70.31,70.31,0,0,0-9,.72c-2,.33-4.11.5-6.17.78-1.22.17-2.44.36-3.65.6-1.87.37-3.73.82-5.61,1.18s-3.69.6-5.54.93c-1,.19-2,.52-3,.66-2.52.35-5.06.62-7.59.93-1.94.23-3.88.43-5.81.7-1.5.21-3,.54-4.48.74-2.81.38-5.63.63-8.43,1-4.33.65-8.66,1.38-13,2.07-2.56.42-5.12.82-7.67,1.25-1.18.19-2.34.49-3.52.65-4.19.57-8.4,1-12.09,3.36-.06,0-.14.06-.21.1-1.6.9-3.28,1.68-4.78,2.72s-2.52,2.19-3.79,3.27c-1.54,1.32-3.08,2.64-4.68,3.9a10.38,10.38,0,0,0-3.33,3.67,12.58,12.58,0,0,1-1.05,1.6c-.6.89-1.26,1.74-1.8,2.67-.89,1.55-1.63,3.19-2.55,4.72a17.07,17.07,0,0,0-2.55,5.63,3.76,3.76,0,0,1-.43,1.11,10,10,0,0,0-.93,3.56c-.15,1.06-.45,2.1-.67,3.15A12.24,12.24,0,0,0,11,123.3c0,5.38,0,10.77,0,16.15,0,9.52.28,19.05-.78,28.55-.28,2.53-.32,5.09-.37,7.64a155.53,155.53,0,0,0,.59,16.72l.21,2.63c.12,1.34.33,2.69.34,4,0,8.49,0,17,.05,25.47,0,3.79.08,7.58,0,11.37,0,2.79-.12,5.58.9,8.25.09.26.11.55.19.82.42,1.33.79,2.67,1.27,4s1.15,2.72,1.67,4.1c2.73,7.12,7.75,12,14.56,15.26,2.12,1,4.18,2.14,6.3,3.15a16.54,16.54,0,0,0,3,1.12c1.27.31,2.59.45,3.89.66L51,274.48a26.64,26.64,0,0,1,2.84.44,56.61,56.61,0,0,0,7.43,1.19c4.11.52,8.23,1,12.32,1.68,2.87.49,5.75.86,8.65,1.13,1.82.17,3.65.37,5.47.61,2.32.29,4.64.67,7,1,3.79.46,7.63.63,11.33,1.7.54.15,1.11.16,1.66.26,2.43.41,4.87.8,7.29,1.25,1.37.25,2.71.67,4.09.87,1.93.29,3.88.44,5.82.64,2.62.27,5.23.63,7.85.79,3.82.24,7.64.32,11.47.49,3.5.15,7,.33,10.3,1.75a2.86,2.86,0,0,0,.94.1c3.54.14,7.09.23,10.63.42a164.67,164.67,0,0,0,17.21.1c3.78-.2,7.57-.2,11.36-.3a2.67,2.67,0,0,0,1.17-.17,12.43,12.43,0,0,1,4.72-1.17c3.17-.34,6.36-.52,9.54-.61,4.86-.13,9.73,0,14.55-.88,3.33-.59,6.73-.59,10.06-1.37,4-.93,8-1.57,12.09-2.23,2.55-.41,5.14-.64,7.71-.93,2.22-.25,4.44-.45,6.66-.71.94-.12,1.87-.37,2.82-.51,4.3-.59,8.64-.79,12.93-1.61,3.91-.74,7.89-1.13,11.84-1.66,1.54-.21,3.12-.25,4.62-.61,3-.7,6-1,9-1.47a10.08,10.08,0,0,0,2.61-.79,20.33,20.33,0,0,1,5-1.69c2.12-.34,4.26-.63,6.38-1a5.34,5.34,0,0,0,1.9-.64c1.36-.89,2.64-1.91,4-2.86a10.09,10.09,0,0,0,1.95-2.07c1-1.25,2.07-2.41,3.15-3.58.83-.91,1.75-1.74,2.57-2.66a26.69,26.69,0,0,0,1.9-2.45,21.53,21.53,0,0,0,1.64-2.61c.76-1.53,1.41-3.11,2.11-4.67a2.38,2.38,0,0,0,.15-.45c.49-2.17,1-4.34,1.45-6.52.24-1.25.27-2.54.43-3.8.2-1.62.34-3.25.7-4.84a12.57,12.57,0,0,0,.71-2.84q-.07-13.75,0-27.51a94.38,94.38,0,0,1,.4-9.79c.49-4.39.59-8.82.74-13.24a139.86,139.86,0,0,0-.58-16.25c-.15-1.79-.52-3.56-.54-5.35-.06-7.57,0-15.15,0-23.48-.08-3.63-.18-8-.28-12.4-.07-3.3-.16-6.61-.22-9.92a3.86,3.86,0,0,0-.5-1.93c-1-1.71-2-3.46-3-5.16a11,11,0,0,0-1.7-2.14c-2.81-2.71-5.68-5.35-8.49-8.06a49.65,49.65,0,0,0-7.78-6.32,35.39,35.39,0,0,0-9.08-4.48,39.88,39.88,0,0,1-6.54-2.29,17.59,17.59,0,0,0-5.66-1.73c-.43,0-.84-.22-1.27-.31-1.06-.22-2.11-.47-3.17-.62-5.13-.74-10.26-1.43-15.39-2.16-2-.29-3.92-.71-5.89-1-3.8-.5-7.63-.66-11.37-1.55a20.64,20.64,0,0,0-2.61-.3c-4.44-.49-8.91-.7-13.24-1.93a13,13,0,0,0-1.41-.25c-2.59-.44-5.2-.79-7.76-1.36a46.65,46.65,0,0,0-7-1.15c-1.43-.09-2.84-.36-4.27-.53s-3-.43-4.51-.51ZM173.43,2.44a44.85,44.85,0,0,1,42.25,59.79c1.29.16,2.59.35,3.88.5,4.56.52,9.13.82,13.7,1.21,3.93.34,7.87.61,11.79,1.06,4.28.49,8.53,1.16,12.79,1.73q9,1.18,18,2.31c.66.08,1.35,0,2,0,1.5.07,3,.12,4.52.28a68,68,0,0,1,10.46,1.91,51.49,51.49,0,0,0,5.31.83,17.4,17.4,0,0,1,5.5,1.92c2.15,1.13,4.3,2.27,6.48,3.33a50.33,50.33,0,0,1,7.55,4.56,22.72,22.72,0,0,0,3.47,2.1,22.82,22.82,0,0,1,6.39,4.54c1.91,1.86,4,3.54,5.89,5.42,2.06,2,4,4.24,6,6.37.25.26.46.55.72.8a7.64,7.64,0,0,1,2,3c.9,2.35,1.78,4.7,2.67,7,.28.74.56,1.49.89,2.21a13.21,13.21,0,0,1,1,5.26c.14,7.53.21,15.07.35,22.6a59.26,59.26,0,0,1-.7,8.92,72.9,72.9,0,0,0-.54,8.23c-.09,4.82,0,9.65-.05,14.47,0,3-.12,6-.11,9,0,5.22.13,10.44.12,15.66a89.57,89.57,0,0,0,.9,11.91A62.69,62.69,0,0,1,347,217c0,4.63-.08,9.25-.06,13.88a26,26,0,0,1-1,7.55c-.55,1.87-1.15,3.73-1.55,5.64a16.6,16.6,0,0,1-1.8,4.27c-1,1.95-2.06,3.87-3,5.85a60.42,60.42,0,0,1-4.34,7.42c-1.6,2.47-3.31,4.88-4.83,7.4a15.33,15.33,0,0,1-4.69,5.14c-1.47.94-3,1.75-4.59,2.55-2.26,1.18-4.54,2.32-6.83,3.44a15.77,15.77,0,0,1-2.22.88c-1.36.43-2.76.77-4.12,1.21A70.86,70.86,0,0,1,295.5,285c-2,.28-4,.93-6,1.26-2.83.46-5.68.79-8.53,1.16a3.4,3.4,0,0,1-1.19,0c-2.17-.51-4.28.09-6.4.33q-7.55.86-15.08,1.78c-3.68.45-7.35,1-11,1.39s-7.22.68-10.84,1c-4.73.37-9.46.64-14.19,1-2.18.18-4.34.58-6.52.82-1,.12-2,.07-3,.15-4.17.35-8.34.72-12.51,1.06-1,.08-2,.07-3,.11-3.62.15-7.23.34-10.86.45-8.69.26-17.38.07-26.06-.23-4.58-.16-9.14-.6-13.71-.95-4.09-.32-8.18-.65-12.27-1.05-2.1-.2-4.17-.64-6.27-.84-3.85-.37-7.71-.65-11.56-1s-7.48-.54-11.21-.89c-1.94-.18-3.86-.59-5.8-.82-5.46-.63-10.93-1.19-16.4-1.83-3.32-.39-6.63-.9-10-1.32-.7-.09-1.43,0-2.14,0-1.54-.07-3.1-.11-4.64-.25a58.89,58.89,0,0,1-10.12-1.76,17.36,17.36,0,0,0-2.6-.4,36.48,36.48,0,0,1-6.77-1.46c-2.05-.62-4.13-1.23-6.11-2-1.77-.72-3.43-1.68-5.13-2.55-2.83-1.46-5.65-2.94-8.49-4.37-1.07-.54-2.16-1-3.27-1.48a10.72,10.72,0,0,1-2.83-2.17c-1.11-1-2.19-2-3.26-3a8.64,8.64,0,0,1-1-1.15c-1.3-1.81-2.63-3.6-3.87-5.45-1.87-2.82-3.69-5.67-5.49-8.55a35.57,35.57,0,0,1-2.16-4,24,24,0,0,1-1.89-8.84c-.24-4.66-.33-9.32-.48-14H3c0-3.27,0-6.54,0-9.81a45.23,45.23,0,0,1,.57-7.62,57.69,57.69,0,0,0,.7-9.29c0-4.74,0-9.49,0-14.23,0-3,.12-6.06.11-9.09,0-5.26-.13-10.52-.11-15.78a89.64,89.64,0,0,0-.89-11.68A57,57,0,0,1,3,140.21c0-6.81.21-13.63.27-20.45a18.89,18.89,0,0,1,1.61-7.06,191.66,191.66,0,0,1,9.25-19.15,32.14,32.14,0,0,1,3.3-4.68c1.29-1.62,2.75-3.1,4.13-4.65a12,12,0,0,1,3.86-2.76,55.32,55.32,0,0,1,9.25-3.54,60.57,60.57,0,0,0,10.71-4.08,22.39,22.39,0,0,1,7.51-2.27A27.42,27.42,0,0,0,57,70.71a77.47,77.47,0,0,1,11.32-1.87,2.12,2.12,0,0,1,.71,0c1.93.49,3.81,0,5.7-.26q7.94-1,15.88-2.08c3.71-.5,7.41-1.13,11.13-1.56s7.54-.74,11.31-1c3.14-.26,6.28-.41,9.42-.66a44.31,44.31,0,0,0,4.75-.58c1.31-.26,2.63-.44,3.95-.58a44.84,44.84,0,0,1,42.3-59.63Z" transform="translate(-2.91 -2.44)"/><path class="cls-1" d="M139.7,350.6h-2.45V338.43c1.56-.05,2.56-.08,3-.08a5.35,5.35,0,0,1,4,1.55,5.7,5.7,0,0,1,1.48,4.12Q145.77,350.61,139.7,350.6Zm-.79-10.67V349a8.84,8.84,0,0,0,1.38.09A3.26,3.26,0,0,0,143,347.8a5.85,5.85,0,0,0,1-3.64q0-4.31-3.88-4.31C140,339.85,139.58,339.87,138.91,339.93Z" transform="translate(-2.91 -2.44)"/><path class="cls-1" d="M155.05,346.31h-6.41a3.21,3.21,0,0,0,.85,2.4,2.74,2.74,0,0,0,1.95.73,3.36,3.36,0,0,0,2.26-.79l.66,1.14a3.06,3.06,0,0,1-1.12.63,6.1,6.1,0,0,1-2.11.35,3.93,3.93,0,0,1-2.85-1.14,4.46,4.46,0,0,1-1.3-3.37,4.74,4.74,0,0,1,1.33-3.53,3.92,3.92,0,0,1,2.84-1.19,4.07,4.07,0,0,1,3,1.07,3.66,3.66,0,0,1,1,2.73A3.74,3.74,0,0,1,155.05,346.31Zm-3.83-3.44a2.49,2.49,0,0,0-2.54,2.29h4.92a2.21,2.21,0,0,0-.59-1.59A2.34,2.34,0,0,0,151.22,342.87Z" transform="translate(-2.91 -2.44)"/><path class="cls-1" d="M156.25,350.07l.56-1.5a4.27,4.27,0,0,0,2.13.87c1,0,1.46-.41,1.46-1.23,0-.59-.47-1.09-1.41-1.51a11.07,11.07,0,0,1-1.47-.76,3.35,3.35,0,0,1-.66-.58,2.38,2.38,0,0,1-.41-.7,2.3,2.3,0,0,1-.14-.79,2.05,2.05,0,0,1,.8-1.72,3.38,3.38,0,0,1,2.08-.61,6.84,6.84,0,0,1,2.45.61l-.44,1.47a3,3,0,0,0-1.89-.75,1.68,1.68,0,0,0-.95.26.81.81,0,0,0-.39.68,1.4,1.4,0,0,0,1,1.29l1.13.52a3.86,3.86,0,0,1,1.52,1.08,2.42,2.42,0,0,1,.47,1.52,2.27,2.27,0,0,1-.84,1.87,3.61,3.61,0,0,1-2.33.68A5.38,5.38,0,0,1,156.25,350.07Z" transform="translate(-2.91 -2.44)"/><path class="cls-1" d="M169.36,350.59v-.65a3.28,3.28,0,0,1-2.39.82,3.4,3.4,0,0,1-2.71-1.2,4.69,4.69,0,0,1-1-3.19,5.09,5.09,0,0,1,1.2-3.41,3.59,3.59,0,0,1,2.85-1.42,3,3,0,0,1,2.09.65v-4.13h1.58v12.53Zm0-6.82a1.88,1.88,0,0,0-1.64-.9,2.51,2.51,0,0,0-2.05.95,3.6,3.6,0,0,0-.79,2.4q0,3.22,2.93,3.22a2.24,2.24,0,0,0,.89-.24,1.31,1.31,0,0,0,.66-.5Z" transform="translate(-2.91 -2.44)"/><path class="cls-1" d="M180.69,346.31h-6.42a3.22,3.22,0,0,0,.86,2.4,2.7,2.7,0,0,0,1.94.73,3.33,3.33,0,0,0,2.26-.79l.67,1.14a3.14,3.14,0,0,1-1.12.63,6.18,6.18,0,0,1-2.11.35,3.93,3.93,0,0,1-2.85-1.14,4.47,4.47,0,0,1-1.31-3.37,4.75,4.75,0,0,1,1.34-3.53,3.89,3.89,0,0,1,2.83-1.19,4.06,4.06,0,0,1,3,1.07,3.66,3.66,0,0,1,1.05,2.73A3.74,3.74,0,0,1,180.69,346.31Zm-3.83-3.44a2.46,2.46,0,0,0-1.77.68,2.44,2.44,0,0,0-.77,1.61h4.92a2.21,2.21,0,0,0-.6-1.59A2.3,2.3,0,0,0,176.86,342.87Z" transform="translate(-2.91 -2.44)"/><path class="cls-1" d="M190.61,350.6v-9.33l-2.47,1.55v-1.55a12.07,12.07,0,0,0,2-1.31,8.92,8.92,0,0,0,1.64-1.58h.5V350.6Z" transform="translate(-2.91 -2.44)"/><path class="cls-1" d="M198.64,350.81l-.81-.89a7,7,0,0,0,2.12-2,6.26,6.26,0,0,0,1.53-2.57,2.67,2.67,0,0,1-1.92.65,3.37,3.37,0,0,1-2.58-1,3.94,3.94,0,0,1-1-2.83,4,4,0,0,1,1-2.87,3.25,3.25,0,0,1,2.51-1.09q4,0,4,5.31a8.11,8.11,0,0,1-1.56,4.52A6.14,6.14,0,0,1,198.64,350.81Zm3.14-8.58c0-1.73-.71-2.6-2.13-2.6a1.7,1.7,0,0,0-1.42.68,3.35,3.35,0,0,0,0,3.63,1.71,1.71,0,0,0,1.41.69C201.08,344.63,201.78,343.83,201.78,342.23Z" transform="translate(-2.91 -2.44)"/><path class="cls-1" d="M207.56,350.81l-.81-.89a7,7,0,0,0,2.12-2,6.38,6.38,0,0,0,1.53-2.57,2.67,2.67,0,0,1-1.92.65,3.37,3.37,0,0,1-2.58-1,3.94,3.94,0,0,1-1-2.83,4,4,0,0,1,1-2.87,3.24,3.24,0,0,1,2.51-1.09q4,0,4,5.31a8.11,8.11,0,0,1-1.56,4.52A6.14,6.14,0,0,1,207.56,350.81Zm3.14-8.58c0-1.73-.71-2.6-2.14-2.6a1.69,1.69,0,0,0-1.41.68,3.35,3.35,0,0,0,0,3.63,1.71,1.71,0,0,0,1.41.69C210,344.63,210.7,343.83,210.7,342.23Z" transform="translate(-2.91 -2.44)"/><path class="cls-1" d="M216.16,343.83a3.47,3.47,0,0,1-1.26-1.15,2.81,2.81,0,0,1,.43-3.67,3.48,3.48,0,0,1,2.37-.79,3.44,3.44,0,0,1,2.43.79,2.74,2.74,0,0,1,.87,2.15,3,3,0,0,1-.53,1.62,3.53,3.53,0,0,1-1.21,1.22,3.65,3.65,0,0,1,2.19,3.23,3.35,3.35,0,0,1-1,2.61,3.94,3.94,0,0,1-2.78.93q-3.69,0-3.69-3.54a3.71,3.71,0,0,1,.63-2A3.5,3.5,0,0,1,216.16,343.83Zm1.3.72a3,3,0,0,0-1.83,2.68,2.12,2.12,0,0,0,.57,1.51,1.87,1.87,0,0,0,1.46.61,2,2,0,0,0,2.13-2.12,2.23,2.23,0,0,0-.41-1.27A6.14,6.14,0,0,0,217.46,344.55Zm.74-1.23a3.06,3.06,0,0,0,1.13-2.2,1.36,1.36,0,0,0-.46-1.09,1.68,1.68,0,0,0-1.17-.4c-1.08,0-1.63.5-1.63,1.5C216.07,341.88,216.78,342.6,218.2,343.32Z" transform="translate(-2.91 -2.44)"/></svg>