<svg id="Layer_1" data-name="Layer 1" xmlns="http://www.w3.org/2000/svg" viewBox="0 0 32 32"><defs><style>.cls-1{fill:#e0af75;}</style></defs><path class="cls-1" d="M29,22.4A6.59,6.59,0,0,1,22.4,29H9.6A6.66,6.66,0,0,1,3,22.4V9.6A6.66,6.66,0,0,1,9.6,3H22.3A6.68,6.68,0,0,1,29,9.6ZM32,9.6A9.6,9.6,0,0,0,22.4,0H9.6A9.6,9.6,0,0,0,0,9.6V22.3A9.62,9.62,0,0,0,9.6,32H22.3a9.6,9.6,0,0,0,9.6-9.6V9.6ZM16.1,21.3a5.1,5.1,0,1,1,5.1-5.1A5.26,5.26,0,0,1,16.1,21.3Zm0-13A7.9,7.9,0,1,0,24,16.2,7.85,7.85,0,0,0,16.1,8.3Zm8.3-2.4a1.9,1.9,0,0,0-1.9,1.9,1.84,1.84,0,0,0,1.9,1.9h0a1.9,1.9,0,0,0,1.9-1.9A1.84,1.84,0,0,0,24.4,5.9Z" transform="translate(0 0)"/></svg>