<svg id="Layer_1" data-name="Layer 1" xmlns="http://www.w3.org/2000/svg" viewBox="0 0 126.65 126.65"><defs><style>.cls-1{fill:#e0af75;}</style></defs><path class="cls-1" d="M36.67,116.75A3.4,3.4,0,0,1,40.18,115c1.8.08,3.6,0,5.52,0v-1.73c0-14.51,0-29,0-43.54A21.38,21.38,0,0,1,51.28,54.6a20.34,20.34,0,0,1,14.61-6.82c4.37-.16,8.74,0,13.42,0-.62-.72-1.09-1.24-1.53-1.79A18.47,18.47,0,0,1,74.14,28.9a2.66,2.66,0,0,1,2.16-2,18.63,18.63,0,0,1,11.64.64l.72.26a54.72,54.72,0,0,1,.75-6.12,18.13,18.13,0,0,1,9.18-12,2.43,2.43,0,0,1,2.79.26,38.22,38.22,0,0,1,3.89,3,42.27,42.27,0,0,1,3.13,3.8c.16-.25.36-.53.52-.82a17,17,0,0,1,14.62-9.29c1.74-.12,2.88.76,3,2.22s-.83,2.6-2.67,2.69a12.31,12.31,0,0,0-11.63,9.55c0,.12,0,.24,0,.36,12.9,3,16.53,17.41,8.77,26.13.45,0,.78.08,1.12.08,4,0,8,0,12,0A21,21,0,0,1,155,64.34a25.32,25.32,0,0,1,.52,5.64c0,14.43,0,28.86,0,43.29V115h4.65c2.3,0,3.21,1,3.12,3.28a15.92,15.92,0,0,1-13,14.77,7.24,7.24,0,0,0-.79.25h-99a2.78,2.78,0,0,0-.54-.22,15.44,15.44,0,0,1-11.76-8.9,35.88,35.88,0,0,1-1.56-4.73ZM150.51,82l-1.15.72a10.53,10.53,0,0,1-12.28-.1c-1.55-1-3.05-2.11-4.59-3.15a5.58,5.58,0,0,0-6.8,0c-1.5,1-3,2.06-4.48,3.07a10.61,10.61,0,0,1-12.7,0c-1.5-1-3-2.08-4.48-3.08a5.67,5.67,0,0,0-6.71,0c-1.55,1-3,2.11-4.59,3.15a10.61,10.61,0,0,1-12.6,0c-1.53-1-3-2.13-4.58-3.15a5.64,5.64,0,0,0-6.71,0c-1.58,1.05-3.12,2.15-4.69,3.22a10.33,10.33,0,0,1-9.06,1.53,30.83,30.83,0,0,1-4.35-2V115H88.15c.41,0,.83,0,1.23,0a2.45,2.45,0,0,1,.09,4.88,10.3,10.3,0,0,1-1.36,0H42c.09.39.13.59.18.78,1.41,4.65,5.65,7.63,10.94,7.63h93.64a11.54,11.54,0,0,0,7.3-2.22,10.41,10.41,0,0,0,4-6.2H112c-.37,0-.75,0-1.12,0a2.47,2.47,0,1,1,.06-4.93c.37,0,.74,0,1.11,0h38.47ZM51,64.55c-.12,2.33-.28,4.53-.34,6.74,0,1.52-.44,3.31.2,4.49s2.39,1.92,3.68,2.79a5.76,5.76,0,0,0,6.92,0c1.47-1,2.91-2,4.38-3a10.59,10.59,0,0,1,12.69,0c1.5,1,3,2.07,4.48,3.08a5.76,5.76,0,0,0,6.82,0c1.57-1.06,3.1-2.18,4.69-3.21a10.45,10.45,0,0,1,12.27,0c1.42.92,2.79,1.91,4.18,2.87,2.85,2,5,1.95,7.84,0l3.66-2.52c4.51-3.08,8.8-3.06,13.31.06,1.36.93,2.7,1.89,4.07,2.81a5.63,5.63,0,0,0,6.8,0c1.06-.71,2.16-1.39,3.14-2.2a2.36,2.36,0,0,0,.77-1.49c.08-1.93.06-3.87,0-5.81-.19-9.33-7-16.4-16.08-16.42-22.55-.06-45.09,0-67.64,0a15.85,15.85,0,0,0-9,2.71,14.14,14.14,0,0,0-4.23,4.21h19c1.83,0,2.95.93,3,2.43s-1.13,2.51-3,2.51H51Zm58.4-38.21A10.69,10.69,0,1,0,120.11,37,10.72,10.72,0,0,0,109.41,26.34ZM94.54,47.39c2-8.72-5.94-17.2-15-16-.77.09-1,.34-1.1,1.1A13.56,13.56,0,0,0,94.54,47.39Zm.37-16.26A16,16,0,0,1,105,22a12.21,12.21,0,0,0-5.26-7.12C94,18.45,92.46,26.45,94.91,31.13Z" transform="translate(-36.67 -6.68)"/><path class="cls-1" d="M102.46,117.45A2.45,2.45,0,1,1,100,115,2.54,2.54,0,0,1,102.46,117.45Z" transform="translate(-36.67 -6.68)"/><path class="cls-1" d="M85.15,62.1a2.45,2.45,0,1,1-2.42-2.48A2.53,2.53,0,0,1,85.15,62.1Z" transform="translate(-36.67 -6.68)"/></svg>