<svg xmlns="http://www.w3.org/2000/svg" viewBox="0 0 126.65 126.65"><defs><style>.cls-1{fill:#e0af75;}</style></defs><g id="Layer_2" data-name="Layer 2"><g id="Layer_1-2" data-name="Layer 1"><path class="cls-1" d="M0,110.07a3.4,3.4,0,0,1,3.5-1.75c1.8.08,3.61,0,5.53,0v-1.73Q9,84.85,9,63.07a21.38,21.38,0,0,1,5.59-15.15,20.31,20.31,0,0,1,14.61-6.81c4.36-.16,8.74,0,13.42,0-.62-.72-1.1-1.24-1.54-1.78a18.46,18.46,0,0,1-3.63-17.07,2.68,2.68,0,0,1,2.15-2,18.66,18.66,0,0,1,11.65.64l.72.26A54.73,54.73,0,0,1,52.73,15,18.21,18.21,0,0,1,61.91,3a2.42,2.42,0,0,1,2.79.27,38.45,38.45,0,0,1,3.89,3,42,42,0,0,1,3.14,3.8c.16-.25.35-.52.51-.82A17,17,0,0,1,86.87,0c1.73-.12,2.88.76,3,2.22S89,4.84,87.19,4.92a12.32,12.32,0,0,0-11.62,9.56,1.35,1.35,0,0,0,0,.35c12.89,3,16.52,17.41,8.77,26.13.44,0,.78.08,1.12.08,4,0,8,0,12,0a21,21,0,0,1,20.89,16.61,26,26,0,0,1,.53,5.64c0,14.43,0,28.87,0,43.3v1.74c1.61,0,3.13,0,4.64,0,2.3,0,3.22,1,3.12,3.28a15.92,15.92,0,0,1-13,14.77,5.61,5.61,0,0,0-.79.26h-99a2.31,2.31,0,0,0-.54-.23,15.43,15.43,0,0,1-11.76-8.89A37.52,37.52,0,0,1,0,112.79ZM113.84,75.36l-1.15.72A10.56,10.56,0,0,1,100.4,76c-1.55-1-3-2.12-4.58-3.15a5.57,5.57,0,0,0-6.8,0c-1.51,1-3,2.06-4.49,3.08a10.62,10.62,0,0,1-12.69,0c-1.51-1-3-2.08-4.49-3.08a5.64,5.64,0,0,0-6.71,0c-1.55,1-3,2.1-4.59,3.14a10.59,10.59,0,0,1-12.59,0c-1.54-1-3-2.12-4.59-3.15a5.63,5.63,0,0,0-6.7,0C30.59,73.86,29,75,27.48,76a10.31,10.31,0,0,1-9.06,1.53,30.94,30.94,0,0,1-4.36-2v32.79H51.47a10.22,10.22,0,0,1,1.24,0,2.44,2.44,0,0,1,.08,4.87,8.67,8.67,0,0,1-1.35,0H5.3c.09.38.12.58.18.77,1.4,4.65,5.65,7.63,10.94,7.63H54.89q27.57,0,55.16,0a11.43,11.43,0,0,0,7.31-2.22,10.43,10.43,0,0,0,4-6.19H75.31c-.37,0-.74,0-1.11,0a2.47,2.47,0,1,1,0-4.94c.37,0,.75,0,1.12,0h38.47ZM14.33,57.87c-.12,2.33-.27,4.54-.34,6.74,0,1.52-.44,3.31.21,4.5S16.59,71,17.88,71.9a5.73,5.73,0,0,0,6.91,0c1.47-1,2.91-2,4.38-3a10.61,10.61,0,0,1,12.7,0c1.5,1,3,2.07,4.48,3.08a5.75,5.75,0,0,0,6.81,0c1.57-1.06,3.1-2.18,4.69-3.21a10.46,10.46,0,0,1,12.28,0c1.41.92,2.78,1.91,4.18,2.86,2.85,2,5,2,7.83,0L85.81,69c4.5-3.08,8.79-3.06,13.31.06,1.35.94,2.7,1.89,4.06,2.81a5.63,5.63,0,0,0,6.81,0,38.2,38.2,0,0,0,3.13-2.2,2.29,2.29,0,0,0,.77-1.48c.09-1.94.07-3.88,0-5.81-.2-9.34-7-16.4-16.09-16.43Q64,45.94,30.2,46a15.76,15.76,0,0,0-9,2.72A14.1,14.1,0,0,0,17,52.92h1.57c5.81,0,11.62,0,17.43,0,1.84,0,3,.94,3,2.43s-1.13,2.51-3,2.51c-3.29,0-6.59,0-9.89,0Zm58.41-38.2a10.69,10.69,0,1,0,10.7,10.68A10.7,10.7,0,0,0,72.74,19.67Zm-14.87,21c2-8.72-5.94-17.2-15-16-.77.1-1,.34-1.11,1.1A13.57,13.57,0,0,0,57.87,40.71Zm.37-16.25a16,16,0,0,1,10.09-9.15A12.2,12.2,0,0,0,63.07,8.2C57.34,11.77,55.79,19.78,58.24,24.46Z"/><path class="cls-1" d="M65.79,110.77a2.46,2.46,0,1,1-4.91.08,2.46,2.46,0,0,1,4.91-.08Z"/><path class="cls-1" d="M48.48,55.42a2.46,2.46,0,1,1-2.42-2.48A2.54,2.54,0,0,1,48.48,55.42Z"/></g></g></svg>