<svg id="Layer_3" data-name="Layer 3" xmlns="http://www.w3.org/2000/svg" viewBox="0 0 123.93 123.87"><defs><style>.cls-1{fill:#e0af75;}</style></defs><path class="cls-1" d="M46.91,52.32a3,3,0,0,1,3.18-1.88c5.69,0,11.37,0,17.06,0a5.86,5.86,0,0,1,1.32.14,2.35,2.35,0,0,1-.3,4.65c-.44,0-.88,0-1.33,0h-15c0,.48-.06.84-.06,1.19,0,5.77-.11,11.53,0,17.3q.58,25.41,22,39.26a3.27,3.27,0,0,0,1.67.48q22.34,0,44.65,0a3.28,3.28,0,0,0,1.67-.49c12.47-7.91,19.65-19.23,21.65-33.83a42.92,42.92,0,0,0,.32-5.67c0-5.65,0-11.29,0-16.94,0-.39,0-.78-.05-1.3H95.1a14,14,0,0,1-1.45,0A2.37,2.37,0,0,1,91.47,53a2.35,2.35,0,0,1,1.89-2.44,7,7,0,0,1,1.44-.14h50.45c2.49,0,3.3.85,3.31,3.37V58h18.87c2.62,0,3.39.78,3.39,3.38,0,5.4,0,10.81,0,16.21A23.09,23.09,0,0,1,152,100.51c-3.25.62-6.66.42-10,.48a2.41,2.41,0,0,0-2.17,1.14,71.31,71.31,0,0,1-4.69,6c-1.66,1.86-3.55,3.51-5.53,5.43h21.42c2.54,0,3.4.93,3.25,3.49a16,16,0,0,1-13.22,14.65,7,7,0,0,0-.78.24H61a3,3,0,0,0-.54-.21A15.68,15.68,0,0,1,47.8,121.11c-.39-1-.6-2.14-.89-3.21v-2.66a3.42,3.42,0,0,1,3.42-1.72c4,.07,7.9,0,11.85,0h3.46l-.43.31c-1.62-1.88-3.2-3.8-4.87-5.63a50.06,50.06,0,0,1-12.49-24.8c-.38-2-.63-4.11-.94-6.17Zm102.21,66.12h-97a6.43,6.43,0,0,0,.15.74c1.36,4.81,5.78,7.91,11.3,7.91H137.7a17.94,17.94,0,0,0,2.53-.18C144.62,126.22,148.46,122.58,149.12,118.44Zm-5.74-22.06c2.89-.23,5.62-.13,8.2-.71A18.23,18.23,0,0,0,166,77.61c0-4.56,0-9.11,0-13.66,0-.35,0-.69-.07-1H148.66v4.66a2.77,2.77,0,0,0,.33.08c3.07,0,6.13,0,9.19,0,2.08,0,2.95.91,3,3,0,2.46.05,4.92,0,7.38a13.24,13.24,0,0,1-4.5,9.81,13.76,13.76,0,0,1-10,3.53c-.45,0-1.15.16-1.3.47C144.64,93.19,144.12,94.62,143.38,96.38Zm3.91-9.91A8.49,8.49,0,0,0,154,83.59c3-3.22,2.2-7.17,2.25-11h-7.41C148.33,77.25,147.81,81.82,147.29,86.47Z" transform="translate(-46.91 -8.07)"/><path class="cls-1" d="M116.31,35.05c0,4-1.74,7.14-4.32,10a2.36,2.36,0,0,1-3.09.27,2.32,2.32,0,0,1-.67-3.11,13.48,13.48,0,0,1,1.13-1.56c2.85-3.64,2.84-7.54,0-11.17a14.1,14.1,0,0,1-3-5.34,11,11,0,0,1,1.86-9.39,2.44,2.44,0,0,1,3.39-.79,2.34,2.34,0,0,1,.62,3.39c-1.18,1.81-1.87,3.73-1.1,5.81a13,13,0,0,0,2,3.28A14.07,14.07,0,0,1,116.31,35.05Z" transform="translate(-46.91 -8.07)"/><path class="cls-1" d="M99.23,10.87a13.27,13.27,0,0,1-.67,1.4A6.27,6.27,0,0,0,99,20.11a16.34,16.34,0,0,1,3.53,6.52A13.14,13.14,0,0,1,100,37.88a18.35,18.35,0,0,1-1.3,1.59,2.41,2.41,0,0,1-3.18.35,2.36,2.36,0,0,1-.6-3.23c.54-.85,1.25-1.59,1.78-2.44a8,8,0,0,0,0-9.09c-.67-1-1.51-2-2.2-3A11,11,0,0,1,94.8,9.25,2.42,2.42,0,0,1,97.63,8.2,2.47,2.47,0,0,1,99.23,10.87Z" transform="translate(-46.91 -8.07)"/><path class="cls-1" d="M83.43,13.3a2.6,2.6,0,0,1,2.21,3.54,7,7,0,0,1-.47.85,6.2,6.2,0,0,0,.48,7.92A15.29,15.29,0,0,1,89.4,33.7c.46,4.52-1.34,8.17-4.31,11.36a2.37,2.37,0,0,1-3.1.16,2.33,2.33,0,0,1-.6-3,16.67,16.67,0,0,1,1.28-1.75,8.35,8.35,0,0,0,0-10.8,20.64,20.64,0,0,1-2.55-3.93,10.48,10.48,0,0,1,1.35-11A7.23,7.23,0,0,1,83.43,13.3Z" transform="translate(-46.91 -8.07)"/><path class="cls-1" d="M136.88,75.78A39.62,39.62,0,0,1,126,101c-1.28,1.36-2.69,1.59-3.8.57s-1-2.46.24-3.83a34.93,34.93,0,0,0,9.63-23,7.28,7.28,0,0,1,.11-1.32,2.41,2.41,0,0,1,2.31-1.94,2.37,2.37,0,0,1,2.36,2A17.47,17.47,0,0,1,136.88,75.78Z" transform="translate(-46.91 -8.07)"/><path class="cls-1" d="M115.89,103.43a2.46,2.46,0,0,1,2.42,2.35,2.43,2.43,0,0,1-2.41,2.47,2.37,2.37,0,0,1-2.42-2.32A2.52,2.52,0,0,1,115.89,103.43Z" transform="translate(-46.91 -8.07)"/><path class="cls-1" d="M84,52.87a2.37,2.37,0,0,1-2.37,2.39A2.38,2.38,0,1,1,84,52.87Z" transform="translate(-46.91 -8.07)"/></svg>