<svg xmlns="http://www.w3.org/2000/svg" viewBox="0 0 123.93 123.87"><defs><style>.cls-1{fill:#e0af75;}</style></defs><g id="Layer_2" data-name="Layer 2"><g id="Layer_3" data-name="Layer 3"><path class="cls-1" d="M0,44.26a3,3,0,0,1,3.18-1.88c5.69,0,11.37,0,17.06,0a6.5,6.5,0,0,1,1.32.14,2.35,2.35,0,0,1-.3,4.65,11.64,11.64,0,0,1-1.32,0h-15c0,.48-.07.83-.07,1.18,0,5.77-.11,11.54,0,17.3q.6,25.41,22,39.26a3.29,3.29,0,0,0,1.68.49q22.32,0,44.64,0a3.35,3.35,0,0,0,1.68-.49c12.46-7.92,19.64-19.24,21.65-33.84a44.69,44.69,0,0,0,.31-5.67c0-5.64,0-11.29,0-16.93,0-.39,0-.79-.06-1.3H48.19a14,14,0,0,1-1.45,0,2.35,2.35,0,0,1-.29-4.65,7,7,0,0,1,1.44-.14H98.34c2.49,0,3.31.84,3.31,3.36v4.19h18.87c2.62,0,3.39.78,3.39,3.37,0,5.41,0,10.81,0,16.21a23.08,23.08,0,0,1-18.78,22.92c-3.24.61-6.65.42-10,.48A2.42,2.42,0,0,0,93,94.06a71.46,71.46,0,0,1-4.69,6c-1.66,1.85-3.55,3.51-5.53,5.43h21.42c2.54,0,3.4.93,3.25,3.49A16.05,16.05,0,0,1,94.2,123.63a5.81,5.81,0,0,0-.78.24H14a3.6,3.6,0,0,0-.54-.22A15.69,15.69,0,0,1,.89,113.05c-.39-1-.6-2.14-.89-3.21v-2.67a3.41,3.41,0,0,1,3.43-1.71c3.94.06,7.9,0,11.85,0h3.45l-.43.3c-1.62-1.88-3.2-3.79-4.87-5.63A49.93,49.93,0,0,1,1,75.36c-.39-2-.64-4.12-.95-6.18Zm102.21,66.11H5.2c.06.28.09.52.15.74,1.36,4.82,5.78,7.92,11.3,7.92H90.79a16.56,16.56,0,0,0,2.53-.18A10.83,10.83,0,0,0,102.21,110.37ZM96.48,88.32c2.88-.24,5.62-.13,8.19-.72a18.23,18.23,0,0,0,14.4-18.06c0-4.55,0-9.11,0-13.66,0-.34,0-.68-.07-1H101.75v4.67a2,2,0,0,0,.34.07c3.06,0,6.12,0,9.18,0,2.08,0,3,.91,3,3,0,2.46,0,4.92,0,7.37a13.27,13.27,0,0,1-4.51,9.81,13.76,13.76,0,0,1-10,3.53c-.44,0-1.15.17-1.3.47C97.74,85.12,97.21,86.55,96.48,88.32Zm3.9-9.92a8.43,8.43,0,0,0,6.73-2.88c3-3.22,2.2-7.16,2.25-11H102C101.43,69.19,100.91,73.76,100.38,78.4Z"/><path class="cls-1" d="M69.4,27c0,3.94-1.74,7.13-4.32,9.94a2.37,2.37,0,0,1-3.76-2.84,14.13,14.13,0,0,1,1.14-1.56c2.84-3.64,2.83-7.53-.06-11.16a14.25,14.25,0,0,1-3-5.34A10.93,10.93,0,0,1,61.3,6.64a2.45,2.45,0,0,1,3.39-.8,2.35,2.35,0,0,1,.63,3.39C64.13,11,63.44,13,64.21,15.05a13,13,0,0,0,2,3.27A14.08,14.08,0,0,1,69.4,27Z"/><path class="cls-1" d="M52.32,2.8a11.5,11.5,0,0,1-.67,1.41A6.27,6.27,0,0,0,52.1,12a16.16,16.16,0,0,1,3.53,6.52,13.16,13.16,0,0,1-2.58,11.26,20,20,0,0,1-1.3,1.59,2.42,2.42,0,0,1-3.18.35A2.36,2.36,0,0,1,48,28.52c.53-.85,1.24-1.59,1.77-2.44a8,8,0,0,0,0-9.09c-.67-1-1.51-2-2.2-3a11,11,0,0,1,.35-12.78,2.4,2.4,0,0,1,2.83-1A2.45,2.45,0,0,1,52.32,2.8Z"/><path class="cls-1" d="M36.52,5.23a2.61,2.61,0,0,1,2.21,3.55,6.92,6.92,0,0,1-.47.84,6.23,6.23,0,0,0,.48,7.93,15.18,15.18,0,0,1,3.75,8.09C43,30.15,41.16,33.81,38.18,37a2.36,2.36,0,0,1-3.1.15,2.31,2.31,0,0,1-.6-3,16.79,16.79,0,0,1,1.28-1.76,8.34,8.34,0,0,0,0-10.79,20.64,20.64,0,0,1-2.55-3.93A10.52,10.52,0,0,1,34.55,6.58,7.46,7.46,0,0,1,36.52,5.23Z"/><path class="cls-1" d="M90,67.72A39.54,39.54,0,0,1,79.1,92.9c-1.28,1.37-2.68,1.59-3.8.58s-1-2.46.24-3.84a34.88,34.88,0,0,0,9.63-23,7.28,7.28,0,0,1,.11-1.32,2.41,2.41,0,0,1,2.32-2,2.38,2.38,0,0,1,2.35,2A16,16,0,0,1,90,67.72Z"/><path class="cls-1" d="M69,95.37a2.41,2.41,0,1,1,0,4.81,2.36,2.36,0,0,1-2.42-2.32A2.51,2.51,0,0,1,69,95.37Z"/><path class="cls-1" d="M37,44.81a2.38,2.38,0,0,1-2.37,2.39A2.39,2.39,0,1,1,37,44.81Z"/></g></g></svg>