<svg id="Layer_3" data-name="Layer 3" xmlns="http://www.w3.org/2000/svg" viewBox="0 0 114.1 120.68"><defs><style>.cls-1{fill:#e0af75;}</style></defs><path class="cls-1" d="M71,130.34a44.79,44.79,0,0,1-5.45-1.7c-5.06-2.32-8.13-6.34-9.66-11.66Q49.63,95.11,43.28,73.26c-.45-1.56-.6-3,.64-4.29a3.63,3.63,0,0,1,4.24-.71,1,1,0,0,0,.34,0c-.12-2-.31-4.08-.34-6.11a51,51,0,0,1,6.89-26.43c.42-.72.41-1.14-.22-1.67a16.06,16.06,0,0,1-1.75-1.75,3.52,3.52,0,0,1,5-5A16.87,16.87,0,0,1,59.5,29c1.66-1.74,3.08-3.3,4.58-4.78a48.29,48.29,0,0,1,10.24-7.68A2.14,2.14,0,0,0,75.54,15a3.38,3.38,0,0,1,4.9-2.23,2.08,2.08,0,0,0,1.85.07,51.32,51.32,0,0,1,37.15.68,2.32,2.32,0,0,0,2.28-.06,3.53,3.53,0,0,1,5.41,3.12,1.82,1.82,0,0,0,.74,1.24A51.78,51.78,0,0,1,150.77,51a8.66,8.66,0,0,1,.33,1.73,2.44,2.44,0,0,0,1.34,2.13,3.43,3.43,0,0,1,.11,5.76,1.53,1.53,0,0,0-.71,1.44c0,1.06-.08,2.12-.14,3.17s-.17,2-.25,3a1.55,1.55,0,0,0,.31,0,3.67,3.67,0,0,1,4.34.7c1.23,1.27,1.06,2.74.61,4.3q-6.32,21.61-12.58,43.24c-2.21,7.7-7.06,12.39-15.06,13.65a1.3,1.3,0,0,0-.31.16ZM148.22,77c-2.64.55-2.72.72-5-.3a10.68,10.68,0,0,0-9.66,0c-.13.07-.3.09-.44.15a5.54,5.54,0,0,1-5,0,10.68,10.68,0,0,0-10.08,0,5.79,5.79,0,0,1-5.44,0,10.3,10.3,0,0,0-9.75,0,6.12,6.12,0,0,1-5.66,0,9.91,9.91,0,0,0-9.41-.06c-.17.09-.38.11-.56.2a5.68,5.68,0,0,1-5.11-.06,10.55,10.55,0,0,0-10,0,5.88,5.88,0,0,1-5.44,0A10.28,10.28,0,0,0,57,76.67a4,4,0,0,1-1.45.47c-.95.08-1.91.06-2.87.06a6.92,6.92,0,0,1-.93-.17c.11.43.18.74.27,1q5.31,18.42,10.63,36.84c1.64,5.65,5.26,8.36,11.14,8.36h52.32c5.84,0,9.47-2.76,11.11-8.41q4.91-16.89,9.82-33.77C147.45,79.79,147.81,78.48,148.22,77ZM56,69.6a23.06,23.06,0,0,0,2.7-.9,6.84,6.84,0,0,1,6.23,0,9.52,9.52,0,0,0,9,0,6.83,6.83,0,0,1,6.44,0,9.35,9.35,0,0,0,8.85,0,7,7,0,0,1,6.55,0,9,9,0,0,0,8.51,0,7.72,7.72,0,0,1,7.12,0l.11,0A8.18,8.18,0,0,0,119,69a23.24,23.24,0,0,1,2.22-.77,4.61,4.61,0,0,1,3.33,0c2,.69,4,1.82,6,1.82s4-1.27,6-1.77a7.46,7.46,0,0,1,3.19,0,40.89,40.89,0,0,1,4.34,1.37c.2-2.7.32-5.25.6-7.77.26-2.3-.22-4.06-2.65-4.85a2.7,2.7,0,0,1-1.06-.91,3.44,3.44,0,0,1,.67-5,11.64,11.64,0,0,1,1.62-.84,44.78,44.78,0,0,0-21.84-27.95,1.53,1.53,0,0,0-1.25.07c-1.46.77-2.84,1.67-4.31,2.42a3.43,3.43,0,0,1-4.42-1,3.5,3.5,0,0,1,.26-4.54c.2-.22.41-.42.64-.67-6.58-2.52-20.61-2.37-25.56.29.86.84,1.7,1.66,2.53,2.49,1.69,1.71,1.83,3.82.35,5.32s-3.6,1.4-5.32-.3-3.16-3.16-4.76-4.77A44.59,44.59,0,0,0,64.84,33.85a25.94,25.94,0,0,1,2.47,3.23,3.3,3.3,0,0,1-.82,3.78c-1.52,1.45-3.33,1.23-5.8-.79A44.71,44.71,0,0,0,56,69.6Z" transform="translate(-42.95 -9.66)"/><path class="cls-1" d="M63.92,59.57a3.2,3.2,0,0,1,1.69-2.51c3.07-1.8,6.15-3.6,9.26-5.34A3.52,3.52,0,0,1,79.68,53a3.43,3.43,0,0,1-1.2,4.73c-3.12,1.88-6.27,3.73-9.48,5.45C66.65,64.45,63.94,62.73,63.92,59.57Z" transform="translate(-42.95 -9.66)"/><path class="cls-1" d="M105,43.22A7.85,7.85,0,0,1,103,42.06c-2.17-2-4.26-4.16-6.34-6.3a3.52,3.52,0,0,1,4.91-5c2.21,2.12,4.36,4.29,6.5,6.48a3.38,3.38,0,0,1,.7,3.92C108.15,42.48,107.05,43.13,105,43.22Z" transform="translate(-42.95 -9.66)"/><path class="cls-1" d="M126.57,64.87a11.37,11.37,0,0,1-2.37-1.34c-2.17-2.05-4.26-4.17-6.34-6.31a3.52,3.52,0,1,1,5-5q3.26,3.15,6.41,6.4a3.42,3.42,0,0,1,.72,3.92A4,4,0,0,1,126.57,64.87Z" transform="translate(-42.95 -9.66)"/><path class="cls-1" d="M88.5,35.84a8.82,8.82,0,0,1-1.19,2.09c-1.67,1.82-3.45,3.54-5.23,5.26a3.53,3.53,0,1,1-5-5c1.75-1.81,3.53-3.58,5.33-5.33a3.47,3.47,0,0,1,4-.75C87.75,32.77,88.4,33.86,88.5,35.84Z" transform="translate(-42.95 -9.66)"/><path class="cls-1" d="M102.17,50.22a3.84,3.84,0,0,1,3.19,2.16,3.21,3.21,0,0,1-.44,3.75c-1.93,2.06-3.91,4.08-6,6a3.5,3.5,0,0,1-4.85-5c1.9-2,3.88-4,5.92-5.9A7.91,7.91,0,0,1,102.17,50.22Z" transform="translate(-42.95 -9.66)"/><path class="cls-1" d="M122.61,46.5c-1.88-.12-3-.75-3.59-2.1a3.2,3.2,0,0,1,.54-3.73c1.85-2,3.77-3.89,5.74-5.74A3.44,3.44,0,0,1,130,35a3.4,3.4,0,0,1,.27,4.78c-1.87,2-3.83,4-5.84,5.82A6,6,0,0,1,122.61,46.5Z" transform="translate(-42.95 -9.66)"/></svg>