<svg id="Layer_2" data-name="Layer 2" xmlns="http://www.w3.org/2000/svg" viewBox="0 0 140.05 97.83"><defs><style>.cls-1{fill:#e0af75;}</style></defs><path class="cls-1" d="M39.92,104.9a32.49,32.49,0,0,1-4-.37,7.62,7.62,0,0,1,1.51-15.07c3,0,6.05,0,9.07,0,.05,0,.1,0,.36-.16.29-2.39.61-4.89.9-7.41l5.58-47.16a13.27,13.27,0,0,1,5.81-9.41c7.74-5.61,21-5.52,27.69,1.63a.84.84,0,0,0,.27.13c11.13-7.65,17.59-7.88,29-1,4.22-3.65,9.25-4.95,14.75-4.76a22.52,22.52,0,0,1,9.18,2.24c5.66,2.75,8.4,7.32,9.07,13.57,1.58,14.86,3.45,29.69,5.2,44.53.3,2.53.58,5.06.9,7.8,2.46,0,4.83,0,7.21,0A7.53,7.53,0,0,1,169.92,96c.6,3.52-1.42,7.3-4.94,8.21-2.15.56-2.84,1.72-3.54,3.55-2.83,7.33-8.64,11.18-16.54,11.18H58.6C48.2,118.91,42.85,114.92,39.92,104.9Zm82.4-15.54c-.22-1.87-.44-3.62-.65-5.38q-2.81-23.82-5.59-47.65a9.94,9.94,0,0,0-4.7-7.53A17.84,17.84,0,0,0,92.7,29a9.35,9.35,0,0,0-4.32,6.76c-.4,3.2-.78,6.41-1.16,9.62L83.29,78.72c-.41,3.51-.8,7-1.22,10.64ZM77,89.38c.33-2.75.65-5.48,1-8.21Q80.09,63,82.24,44.86c.46-3.88.82-7.78,1.61-11.6a3.05,3.05,0,0,0-1.17-3.44c-5.34-4.58-15-4.73-20.82-.28a8.58,8.58,0,0,0-3.57,6c-.35,3-.72,6-1.07,9Q55.06,62.77,52.92,81c-.32,2.76-.62,5.54-.94,8.38Zm73.17,0c-.06-.82-.1-1.54-.18-2.25-.58-4.86-1.17-9.72-1.74-14.58-1.41-11.9-2.86-23.79-4.16-35.7a10.48,10.48,0,0,0-7.14-9.2,17.17,17.17,0,0,0-17.21,2.08c.57,2.9,1.14,5.46,1.55,8.06.35,2.15.51,4.34.77,6.51q2.13,18.24,4.29,36.47c.34,2.88.7,5.75,1,8.61Zm-105,15.49a14.6,14.6,0,0,0,.63,2,11.51,11.51,0,0,0,11.17,7.07H114q15.78,0,31.57,0a11.56,11.56,0,0,0,11-7.29,17,17,0,0,0,.5-1.76ZM100,94.45h-61c-.52,0-1,0-1.56,0A2.67,2.67,0,0,0,35,97a2.7,2.7,0,0,0,2.19,2.68,8.85,8.85,0,0,0,1.55.07H161.34a8,8,0,0,0,1.55-.08,2.64,2.64,0,0,0-.32-5.23c-.52,0-1,0-1.56,0Z" transform="translate(-29.97 -21.09)"/></svg>